<svg width="29" height="29" viewBox="0 0 29 29" fill="none" xmlns="http://www.w3.org/2000/svg">
<path fill-rule="evenodd" clip-rule="evenodd" d="M14.5 29C22.5081 29 29 22.5081 29 14.5C29 6.49187 22.5081 0 14.5 0C6.49187 0 0 6.49187 0 14.5C0 22.5081 6.49187 29 14.5 29Z" fill="#D23A3A"/>
<path fill-rule="evenodd" clip-rule="evenodd" d="M12.6824 17.4176L10.0476 14.8632C9.75968 14.584 9.3023 14.5832 9.01337 14.8613V14.8613C8.71 15.1534 8.70914 15.6387 9.01148 15.9319L12.6627 19.4718C12.6737 19.4825 12.6911 19.4825 12.7021 19.4718L21.2007 11.2322C21.5013 10.9408 21.5013 10.4585 21.2007 10.167V10.167C20.9131 9.88815 20.456 9.88804 20.1682 10.1668L12.6824 17.4176Z" fill="white"/>
</svg>
