<svg width="24" height="24" fill="none" xmlns="http://www.w3.org/2000/svg"><path opacity=".7" d="M4 13.333l3.556 1.778 4.444.444 4.889-.444L20 13.333v4l-3.111 2.223L12 20l-4.444-.445L4 17.333v-4z" fill="#F15087"/><path clip-rule="evenodd" d="M12 10.4c4.419 0 8-1.432 8-3.2C20 5.433 16.42 4 12 4 7.582 4 4 5.433 4 7.2c0 1.768 3.582 3.2 8 3.2z" stroke="#000" stroke-width="1.3" stroke-linecap="round" stroke-linejoin="round"/><path d="M4 7.2V12c0 1.767 3.582 3.2 8 3.2 4.419 0 8-1.433 8-3.2V7.2" stroke="#000" stroke-width="1.3" stroke-linecap="round" stroke-linejoin="round"/><path d="M4 12v4.8c0 1.767 3.582 3.2 8 3.2 4.419 0 8-1.433 8-3.2V12" stroke="#000" stroke-width="1.3" stroke-linecap="round" stroke-linejoin="round"/></svg>