<svg width="240" height="63" viewBox="0 0 240 63" fill="none" xmlns="http://www.w3.org/2000/svg">
<path d="M35.7419 4.78536L37.3845 4.07236L37.2132 2.29004L38.3999 3.63133L40.0424 2.91798L39.1349 4.45984L40.3223 5.80148L38.5712 5.414L37.6609 6.95726L37.4892 5.17494L35.7419 4.78536Z" fill="#009FE3"/>
<path d="M45.5566 1.73472L47.3477 1.71022L47.8778 0L48.4545 1.69517L50.2449 1.67067L48.8129 2.74349L49.3893 4.43796L47.9244 3.40504L46.4882 4.47751L47.0183 2.76729L45.5566 1.73472Z" fill="#009FE3"/>
<path d="M55.773 2.68916L57.4369 3.3507L58.5815 1.97266L58.4659 3.75953L60.1302 4.42038L58.3952 4.86421L58.2795 6.65108L57.3213 5.13723L55.5834 5.57966L56.7277 4.20196L55.773 2.68916Z" fill="#009FE3"/>
<path d="M64.8514 7.48291L66.1313 8.7346L67.7189 7.90399L66.9232 9.5078L68.2034 10.7591L66.432 10.5005L65.6356 12.1046L65.336 10.3381L63.5621 10.0773L65.1496 9.24668L64.8514 7.48291Z" fill="#009FE3"/>
<path d="M71.3792 15.3911L72.0841 17.0362L73.8682 16.8742L72.5193 18.053L73.2242 19.6982L71.6851 18.7828L70.3361 19.9614L70.7345 18.2144L69.1946 17.2966L70.9787 17.1346L71.3792 15.3911Z" fill="#009FE3"/>
<path d="M74.3766 25.2075L74.3921 26.9965L76.1008 27.5352L74.4015 28.1029L74.4166 29.8919L73.3508 28.455L71.6507 29.0228L72.6927 27.5642L71.6262 26.1242L73.3353 26.6629L74.3766 25.2075Z" fill="#009FE3"/>
<path d="M73.3627 35.4274L72.6907 37.0854L74.0628 38.237L72.2748 38.111L71.6035 39.7698L71.1694 38.0343L69.3825 37.9076L70.9035 36.9594L70.4708 35.2212L71.8428 36.3724L73.3627 35.4274Z" fill="#009FE3"/>
<path d="M25.0395 39.9218L24.3542 38.2683L22.567 38.4093L23.9302 37.2465L23.2446 35.593L24.7725 36.5265L26.1348 35.3638L25.7164 37.1062L27.2455 38.0418L25.4586 38.1825L25.0395 39.9218Z" fill="#009FE3"/>
<path d="M22.1557 30.0615L22.1623 28.2722L20.4602 27.7129L22.1662 27.1658L22.1728 25.3765L23.2218 26.8263L24.9278 26.2795L23.8693 27.7251L24.9176 29.1784L23.2152 28.6191L22.1557 30.0615Z" fill="#009FE3"/>
<path d="M23.2877 19.8739L23.9786 18.2228L22.6195 17.0562L24.4053 17.2025L25.0959 15.5518L25.5101 17.2921L27.2963 17.438L25.7641 18.3694L26.1768 20.1126L24.8184 18.9456L23.2877 19.8739Z" fill="#009FE3"/>
<path d="M28.2395 10.8914L29.5138 9.63444L28.7101 8.03448L30.3014 8.85738L31.5754 7.6001L31.2863 9.36492L32.8781 10.1878L31.1052 10.4573L30.814 12.2246L30.0099 10.625L28.2395 10.8914Z" fill="#009FE3"/>
<path d="M34.2812 13.479C34.2812 13.479 34.6624 13.772 35.3015 14.3103C35.6291 14.5686 36.0443 14.8479 36.4885 15.1938C36.7271 15.3495 36.9808 15.5154 37.2485 15.6905C37.3802 15.7787 37.5155 15.8693 37.6539 15.9624C37.793 16.0538 37.9447 16.135 38.0936 16.2242C38.3963 16.3972 38.7022 16.5886 39.0319 16.7643C39.3633 16.9348 39.706 17.1112 40.0584 17.2922C40.7743 17.6278 41.5279 17.9775 42.3341 18.2684C42.7297 18.4315 43.1449 18.5607 43.5636 18.6919C43.7724 18.7581 43.9826 18.8242 44.1942 18.8911C44.4083 18.9453 44.6241 18.9999 44.8403 19.0545C45.0565 19.1098 45.273 19.1655 45.4902 19.2212L46.1524 19.343L46.8161 19.4697C47.0385 19.5001 47.2628 19.5201 47.486 19.546L48.1555 19.6282C48.3791 19.645 48.6026 19.6471 48.8254 19.6576L49.4932 19.6877C49.7143 19.6884 49.9347 19.673 50.1544 19.6667C50.3748 19.659 50.5937 19.6513 50.8117 19.6436C51.0286 19.6286 51.2419 19.5943 51.456 19.5712C51.6697 19.546 51.8824 19.5208 52.0937 19.4959C52.3032 19.4648 52.5068 19.4112 52.7124 19.3717C52.9167 19.329 53.1206 19.2863 53.3217 19.2446C53.526 19.2089 53.712 19.1263 53.9069 19.0738C54.0996 19.0139 54.2905 18.9551 54.479 18.8967L54.6209 18.8533L54.6913 18.8316L54.7089 18.826C54.7173 18.8225 54.6626 18.848 54.6899 18.8351L54.6987 18.8316L54.7344 18.8165C54.8297 18.7763 54.9247 18.7374 55.0189 18.6982C55.2207 18.6216 55.3704 18.5421 55.5214 18.4651C55.6745 18.3958 55.8265 18.2988 55.9803 18.2096C56.1366 18.1249 56.2806 18.0255 56.4218 17.9264C56.5672 17.8319 56.7018 17.7283 56.831 17.6222C57.8755 16.7811 58.598 15.8532 59.0104 15.1574C59.2143 14.8077 59.3611 14.5175 59.4259 14.3089C59.4655 14.2053 59.4841 14.1237 59.4949 14.067C59.5075 14.01 59.5138 13.9806 59.5138 13.9806C59.5054 13.9795 59.5443 14.0996 59.5296 14.3282C59.5212 14.5574 59.4732 14.8938 59.346 15.3033C59.2206 15.7132 59.0377 16.2071 58.7402 16.7314C58.4505 17.2596 58.0693 17.8347 57.5546 18.3891C57.4284 18.5306 57.2953 18.6709 57.1481 18.8046C57.0055 18.9425 56.8577 19.0818 56.6948 19.2096C56.5367 19.3426 56.371 19.4725 56.1776 19.5953C55.9895 19.7231 55.795 19.8515 55.624 19.9415L55.3553 20.0924L55.3213 20.1113L55.3129 20.1162L55.2765 20.1333L55.2575 20.141L55.1829 20.1736L55.0308 20.2387C54.8276 20.3255 54.622 20.4137 54.4135 20.5029C54.0018 20.7011 53.5551 20.8197 53.1021 20.9524C52.8754 21.0147 52.6487 21.0962 52.415 21.1428C52.1795 21.1851 51.9423 21.2275 51.7041 21.2702C51.4651 21.3101 51.2251 21.3609 50.982 21.392C50.7377 21.4099 50.4928 21.4277 50.2472 21.4456C50.0006 21.461 49.7532 21.4851 49.5051 21.4928C49.2578 21.4876 49.009 21.482 48.7599 21.476C48.5115 21.4676 48.261 21.4666 48.0122 21.4505L47.2691 21.3682C47.0217 21.3363 46.774 21.3108 46.528 21.2733L45.7989 21.1267C45.5565 21.078 45.3144 21.0287 45.0747 20.9741C44.8389 20.9058 44.6042 20.8369 44.3698 20.769C44.1361 20.7 43.9034 20.6314 43.6718 20.5635C43.4462 20.4781 43.2223 20.3937 42.9995 20.309C42.7773 20.2236 42.5566 20.1389 42.3373 20.0546C42.1176 19.973 41.9126 19.8585 41.7027 19.7637C40.8597 19.3864 40.0917 18.9313 39.3777 18.4889C39.0319 18.2498 38.6955 18.0178 38.3704 17.7927C38.0554 17.5547 37.7653 17.3048 37.4811 17.0762C37.1945 16.8511 36.9342 16.6173 36.6991 16.3814C36.4633 16.1486 36.2391 15.9281 36.0288 15.7206C35.6315 15.2757 35.2927 14.8858 35.0345 14.5574C34.5454 13.8801 34.2812 13.479 34.2812 13.479Z" fill="#009FE3"/>
<path d="M51.7679 26.8848C51.7679 26.8848 51.9718 27.0419 52.3148 27.3307C52.4907 27.4693 52.7135 27.6191 52.9514 27.8043C53.0793 27.8879 53.2156 27.9768 53.3596 28.071C53.43 28.1182 53.5022 28.1669 53.5769 28.2166C53.6515 28.2656 53.7324 28.309 53.8123 28.3573C53.9745 28.4501 54.1388 28.5526 54.3158 28.6468C54.4938 28.7381 54.6774 28.833 54.8666 28.93C55.2506 29.1099 55.6545 29.2978 56.0873 29.4536C56.2992 29.5407 56.5217 29.6101 56.746 29.6808C56.8581 29.7161 56.9712 29.7515 57.0844 29.7875C57.1997 29.8166 57.3153 29.846 57.4309 29.875C57.5465 29.9048 57.6629 29.9345 57.7795 29.9643L58.1352 30.0297L58.4908 30.098C58.6103 30.1144 58.7305 30.1253 58.8499 30.1389L59.2091 30.183C59.3289 30.1918 59.4487 30.1928 59.5685 30.1988L59.9263 30.2145C60.0447 30.2149 60.1635 30.2068 60.2812 30.204C60.3989 30.1998 60.5166 30.1953 60.6333 30.1911C60.75 30.1834 60.8642 30.1648 60.9791 30.1526C61.0937 30.1389 61.2079 30.1256 61.3214 30.1123C61.4339 30.0955 61.5425 30.0668 61.6529 30.0458C61.7629 30.0227 61.8719 30 61.9798 29.9776C62.0895 29.9583 62.189 29.9142 62.2934 29.8859C62.3967 29.8537 62.499 29.8222 62.6003 29.791L62.676 29.7676L62.7135 29.7557L62.7229 29.7525C62.7282 29.7508 62.698 29.7644 62.7135 29.7581L62.718 29.7557L62.7373 29.7476C62.7884 29.7266 62.8392 29.7056 62.8897 29.6846C62.998 29.6433 63.0778 29.6006 63.1588 29.5593C63.2411 29.5222 63.3228 29.4704 63.4054 29.4224C63.4888 29.3769 63.5659 29.3237 63.6419 29.2702C63.7197 29.2198 63.7923 29.1641 63.8613 29.1074C64.4215 28.6566 64.8097 28.1585 65.0305 27.7857C65.1401 27.5981 65.2183 27.4427 65.253 27.3303C65.2743 27.2747 65.2841 27.2309 65.2897 27.2005C65.2967 27.17 65.2999 27.1543 65.2999 27.1543C65.2957 27.1536 65.316 27.218 65.3083 27.3408C65.3034 27.4637 65.2782 27.6443 65.2095 27.8638C65.1426 28.0836 65.0441 28.3486 64.8847 28.6296C64.7291 28.9128 64.5256 29.2212 64.2491 29.519C64.1812 29.5947 64.11 29.6703 64.0312 29.7417C63.9541 29.8152 63.8753 29.8904 63.7877 29.9587C63.7033 30.0304 63.6143 30.0997 63.5102 30.1655C63.4097 30.2338 63.3056 30.3031 63.2138 30.3511L63.0694 30.4319L63.0516 30.4417L63.0467 30.4449L63.0274 30.4536L63.0172 30.4578L62.9769 30.475L62.8957 30.5103C62.7867 30.5569 62.6763 30.6045 62.5646 30.6517C62.3438 30.7581 62.1042 30.8218 61.8614 30.8929C61.7398 30.9265 61.6182 30.9702 61.4924 30.9951C61.3663 31.0178 61.2395 31.0406 61.1116 31.0637C60.9837 31.0847 60.8547 31.112 60.7248 31.1285C60.5941 31.1379 60.4627 31.1477 60.3306 31.1572C60.1985 31.1652 60.0661 31.1785 59.9329 31.1824C59.7998 31.1799 59.6666 31.1764 59.5335 31.174C59.4 31.1687 59.2655 31.1684 59.1323 31.1596L58.7336 31.1159C58.6015 31.0987 58.4684 31.0851 58.3359 31.0648L57.9449 30.9863C57.8153 30.9604 57.6849 30.9338 57.5567 30.9048C57.4306 30.868 57.3041 30.8309 57.1787 30.7945C57.0532 30.7578 56.9288 30.721 56.8041 30.6843C56.6836 30.6384 56.5631 30.5929 56.4432 30.5478C56.3245 30.5019 56.2064 30.4564 56.0887 30.4113C55.9706 30.3675 55.8609 30.3062 55.7484 30.2555C55.2961 30.0528 54.8844 29.8089 54.5011 29.5716C54.3154 29.4431 54.1357 29.3188 53.9609 29.1984C53.792 29.0707 53.6371 28.9363 53.484 28.8141C53.3302 28.6933 53.1911 28.5677 53.0646 28.4413C52.9385 28.3164 52.8179 28.1981 52.7055 28.0867C52.4921 27.848 52.3106 27.6391 52.1722 27.463C51.9091 27.1 51.7679 26.8848 51.7679 26.8848Z" fill="#009FE3"/>
<path d="M41.8976 47.6868C41.8976 47.6868 41.9166 47.5668 41.952 47.341C41.994 47.1159 42.0444 46.7831 42.1359 46.3679C42.3086 45.5338 42.5833 44.3469 43.0073 42.9486C43.4211 41.5464 43.9771 39.9303 44.7367 38.2425C45.1186 37.3996 45.5513 36.5382 46.0818 35.6873C46.3568 35.2652 46.6336 34.8353 46.9875 34.4276C47.3424 34.0208 47.7292 33.6096 48.3052 33.2704C48.5827 33.0999 48.9566 32.9704 49.3654 32.9249C49.3504 32.9242 49.5697 32.9197 49.4821 32.9221L49.4933 32.9228L49.5158 32.9235L49.5613 32.9256L49.6513 32.9295L49.7417 32.9333C49.7908 32.9393 49.8595 32.9519 49.9176 32.9631C50.0396 32.9872 50.1608 33.018 50.2775 33.0551C50.3728 33.0929 50.4509 33.1328 50.5378 33.1734C51.2021 33.5182 51.5703 33.996 51.8899 34.4346C52.5097 35.3306 52.8818 36.2372 53.2125 37.1133C53.8561 38.8697 54.2482 40.5257 54.5555 41.9503C54.717 42.658 54.8417 43.3129 54.9549 43.8905C55.0702 44.467 55.17 44.971 55.2527 45.3854C55.341 45.7974 55.4097 46.1226 55.4675 46.3424C55.5271 46.5619 55.5589 46.6795 55.5589 46.6795C55.5589 46.6795 55.272 46.278 54.9066 45.502C54.5348 44.7305 54.0643 43.6045 53.5454 42.2538C53.2826 41.5835 52.9974 40.8565 52.6957 40.0885C52.3944 39.3254 52.0703 38.5277 51.7063 37.7325C51.3447 36.9418 50.9337 36.1346 50.4491 35.4811C50.213 35.1588 49.9264 34.8931 49.7274 34.8024C49.7046 34.793 49.6762 34.7758 49.6608 34.7681C49.6612 34.7744 49.6661 34.7755 49.671 34.7688C49.7803 34.744 49.3756 34.7562 49.507 34.7461C49.439 34.7688 49.342 34.7783 49.2092 34.8658C48.9475 35.0114 48.6433 35.2953 48.369 35.6103C48.0908 35.9274 47.8252 36.2904 47.5726 36.6569C47.073 37.4021 46.6157 38.1879 46.1911 38.9632C45.7678 39.7399 45.3747 40.5082 45.0093 41.2429C44.646 41.9818 44.3033 42.6804 43.9869 43.3259C43.3636 44.6329 42.8436 45.7211 42.4803 46.4831C42.1093 47.25 41.8976 47.6868 41.8976 47.6868Z" fill="#009FE3"/>
<path d="M55.5312 46.6654C55.5312 46.6654 55.5439 46.5863 55.567 46.4372C55.5943 46.2905 55.628 46.0707 55.6882 45.7977C55.8021 45.2495 55.9822 44.4683 56.2611 43.5484C56.5333 42.6268 56.8994 41.5634 57.3984 40.4539C57.6496 39.8994 57.9344 39.332 58.2831 38.773C58.4645 38.4955 58.646 38.213 58.8794 37.9442C59.1124 37.6768 59.3671 37.4066 59.7459 37.1829C59.9284 37.0709 60.1747 36.9858 60.4431 36.9557C60.4336 36.9557 60.578 36.9526 60.5198 36.954L60.5272 36.9543L60.5423 36.955L60.5717 36.9564L60.6309 36.9589L60.6901 36.9613C60.7227 36.9652 60.7682 36.9732 60.8061 36.9806C60.886 36.9967 60.9658 37.017 61.0433 37.0411C61.106 37.066 61.1575 37.0922 61.2143 37.1195C61.6508 37.346 61.8933 37.6603 62.1035 37.9487C62.5117 38.5378 62.7559 39.1346 62.9738 39.7115C63.3971 40.8655 63.6546 41.9558 63.8571 42.8918C63.9633 43.3587 64.0453 43.7885 64.1199 44.1687C64.1956 44.5477 64.2618 44.8792 64.3157 45.1512C64.3739 45.4225 64.4188 45.636 64.4566 45.7812C64.4962 45.9254 64.5165 46.0024 64.5165 46.0024C64.5165 46.0024 64.3284 45.7392 64.088 45.2285C63.8434 44.7214 63.5337 43.9807 63.1928 43.0916C63.0194 42.6506 62.8319 42.1732 62.6336 41.6677C62.4357 41.1658 62.2223 40.6415 61.983 40.1178C61.7451 39.5977 61.4749 39.0674 61.1561 38.6372C61.0005 38.4251 60.8124 38.2508 60.681 38.1906C60.6663 38.1847 60.6474 38.1735 60.6372 38.1686C60.6379 38.1728 60.6411 38.1731 60.6446 38.1689C60.7164 38.1528 60.4501 38.1609 60.5363 38.1539C60.4921 38.1689 60.4277 38.1749 60.3408 38.233C60.1688 38.3285 59.9687 38.5154 59.7876 38.7226C59.6047 38.9313 59.4302 39.17 59.2637 39.4101C58.9351 39.9008 58.6345 40.4175 58.3552 40.9274C58.077 41.4388 57.8185 41.9436 57.5774 42.4266C57.3392 42.9131 57.1135 43.3724 56.9054 43.7973C56.4958 44.6563 56.1535 45.3721 55.9146 45.874C55.6707 46.378 55.5312 46.6654 55.5312 46.6654Z" fill="#009FE3"/>
<path d="M47.6079 17.5199C47.6079 17.5199 47.5694 17.5056 47.4972 17.4782C47.4282 17.4502 47.3217 17.4072 47.1962 17.3277C46.9482 17.179 46.6076 16.9123 46.3221 16.4677C46.0372 16.0302 45.806 15.3981 45.8599 14.6641L45.8732 14.5268L45.8802 14.4575L45.882 14.4404L45.8823 14.4362L45.8918 14.398L45.8932 14.3914L45.8981 14.3655L45.917 14.2612L45.9272 14.2087L45.9489 14.131C46.012 13.907 46.0782 13.734 46.1717 13.5587C46.3483 13.2062 46.6024 12.8905 46.9037 12.6238C47.2102 12.3633 47.5729 12.1544 47.9698 12.0385C48.3567 11.916 48.8055 11.8954 49.1671 11.9668L49.302 11.9976L49.4694 12.0417C49.5854 12.0714 49.6569 12.1124 49.7469 12.1509C49.9154 12.2349 50.07 12.3273 50.2031 12.4354C50.4711 12.65 50.668 12.901 50.8036 13.1502C50.9392 13.3998 51.0125 13.65 51.0356 13.8733C51.0668 14.0939 51.0349 14.2892 51.0047 14.4362C50.968 14.5853 50.9158 14.6914 50.8758 14.7593C50.8373 14.8275 50.8131 14.8601 50.8131 14.8601C50.8131 14.8601 50.7984 14.8219 50.7711 14.7498C50.7521 14.6805 50.695 14.5828 50.6414 14.4747C50.5093 14.2584 50.291 14.0081 49.9869 13.832C49.838 13.7428 49.6716 13.6696 49.502 13.6259C49.3289 13.5779 49.1632 13.5713 49.036 13.5884C48.8468 13.6014 48.7144 13.6539 48.5515 13.7204C48.399 13.7949 48.2396 13.8856 48.1005 14.0141C47.9548 14.1334 47.8297 14.2822 47.7193 14.4344C47.6661 14.51 47.616 14.6024 47.5827 14.6466C47.5778 14.6539 47.5732 14.6585 47.5676 14.669L47.5483 14.719L47.5105 14.8181L47.5007 14.8426L47.4986 14.8492C47.5021 14.8345 47.4888 14.886 47.5063 14.8174L47.506 14.8191L47.5028 14.8279L47.4898 14.8611L47.4625 14.9287C47.3308 15.292 47.2933 15.7131 47.3168 16.1013C47.3374 16.4901 47.4152 16.8451 47.4825 17.1027C47.521 17.2234 47.5448 17.3358 47.5739 17.4061C47.5957 17.4803 47.6079 17.5199 47.6079 17.5199Z" fill="#009FE3"/>
<path d="M59.3166 28.7095C59.3166 28.7095 59.2857 28.6979 59.2283 28.6766C59.1733 28.6542 59.0881 28.6199 58.9879 28.5562C58.79 28.4379 58.5184 28.225 58.2907 27.8705C58.064 27.5215 57.8794 27.0175 57.9217 26.4319L57.9326 26.3223L57.9379 26.2674L57.9396 26.253V26.2495L57.9477 26.2191L57.9484 26.2138L57.9522 26.1932L57.9676 26.1102L57.9754 26.0682L57.9925 26.0062C58.0433 25.8281 58.0955 25.6902 58.1702 25.5502C58.311 25.2687 58.5139 25.0174 58.7542 24.8046C58.9981 24.597 59.2875 24.4301 59.6042 24.338C59.9129 24.2404 60.2703 24.2236 60.5593 24.281L60.6669 24.3051L60.8004 24.3405C60.8932 24.3646 60.9493 24.3968 61.0218 24.428C61.156 24.4948 61.2786 24.5687 61.3852 24.6548C61.5996 24.826 61.7566 25.0262 61.8641 25.225C61.9724 25.4238 62.0309 25.6237 62.0491 25.8015C62.074 25.9775 62.0484 26.1333 62.0242 26.2509C61.9952 26.3696 61.9538 26.4546 61.9219 26.5085C61.8907 26.5628 61.8715 26.5887 61.8715 26.5887C61.8715 26.5887 61.8599 26.5582 61.8375 26.5008C61.8228 26.4459 61.7772 26.3678 61.7345 26.2814C61.629 26.1095 61.4552 25.9093 61.2121 25.7693C61.0937 25.6979 60.9605 25.6391 60.8256 25.6044C60.6872 25.5663 60.5551 25.561 60.4535 25.5747C60.3029 25.5852 60.1967 25.6268 60.0671 25.68C59.9458 25.7395 59.8183 25.8116 59.7079 25.9142C59.592 26.009 59.4914 26.1277 59.4038 26.2495C59.3607 26.3097 59.3215 26.3836 59.2945 26.4186C59.2903 26.4245 59.2868 26.428 59.2822 26.4364L59.2672 26.4763L59.237 26.5558L59.2293 26.5754L59.2276 26.5803C59.23 26.5687 59.2195 26.6097 59.2335 26.5547L59.2328 26.5565L59.2307 26.5628L59.2202 26.5897L59.1985 26.6436C59.0937 26.9335 59.0636 27.2691 59.0825 27.5786C59.099 27.8887 59.1607 28.1722 59.2146 28.3777C59.2454 28.4739 59.2647 28.5639 59.2875 28.6195C59.3071 28.678 59.3166 28.7095 59.3166 28.7095Z" fill="#009FE3"/>
<path d="M39.0596 47.6866L39.8392 44.7583L40.6341 41.844L41.4263 38.9349C41.6958 37.9678 41.9564 36.9993 42.2059 36.0287L42.9529 33.1224L43.304 31.6688C43.4175 31.184 43.5331 30.7006 43.6365 30.2158C43.8439 29.2466 44.0415 28.2781 44.1841 27.3169C44.258 26.8357 44.3095 26.3596 44.3495 25.8916C44.3789 25.4307 44.3915 24.9648 44.3407 24.5773L44.9248 25.2987L43.0671 24.5881C42.4378 24.3323 41.8079 24.0463 41.194 23.7236C40.892 23.5552 40.5882 23.3869 40.2971 23.2024C40.0066 23.0165 39.712 22.8377 39.4376 22.6322C39.1566 22.4351 38.884 22.2304 38.6199 22.0172C38.3497 21.8104 38.0891 21.5944 37.8336 21.3742C37.5754 21.1572 37.3182 20.9395 37.0751 20.7085C36.8326 20.4764 36.5814 20.2531 36.3481 20.0137L35.6386 19.3063C35.4049 19.069 35.1803 18.8222 34.955 18.5772C34.0514 17.5992 33.1954 16.5827 32.3878 15.5264C32.9211 15.9261 33.4379 16.3409 33.9554 16.7522C34.4848 17.1505 34.9834 17.5807 35.5107 17.9748C35.772 18.1743 36.0313 18.3763 36.2874 18.5803L37.0688 19.1736C37.3266 19.3752 37.5964 19.5569 37.8599 19.7484C38.1213 19.9419 38.3837 20.1309 38.6507 20.3122C38.9145 20.4988 39.1815 20.6794 39.4537 20.8478C39.7218 21.0249 39.994 21.1908 40.2708 21.3469C40.543 21.5121 40.8202 21.6623 41.0973 21.8121C41.3741 21.9633 41.6597 22.0928 41.9417 22.23C42.2283 22.3578 42.5118 22.4897 42.8071 22.6028C43.0962 22.7253 43.4007 22.8272 43.6978 22.9416L45.5561 23.5951C45.8795 23.7085 46.095 23.9907 46.1395 24.3078L46.1402 24.3165C46.2243 24.9287 46.2036 25.4741 46.176 26.0159C46.1378 26.5514 46.0807 27.0772 45.9945 27.5903C45.834 28.6194 45.6231 29.6239 45.3792 30.6166C45.1406 31.6103 44.8684 32.5911 44.5818 33.5656C44.4395 34.0532 44.2882 34.5369 44.1347 35.0203C43.9791 35.503 43.8299 35.987 43.662 36.4645C43.3337 37.4232 42.9953 38.3766 42.6484 39.3263C42.4785 39.8026 42.2889 40.272 42.1068 40.7432L41.549 42.1534C41.1709 43.0915 40.768 44.019 40.363 44.9452C39.9467 45.8665 39.5231 46.7863 39.0596 47.6866Z" fill="#009FE3"/>
<path d="M117.837 30.8331C117.95 30.8331 118 30.8834 118 30.9819V32.8401C118 32.9378 117.95 33 117.837 33H117.261C117.149 33 117.098 32.9386 117.098 32.8401V31.6593H112.151C112.05 31.6593 112 31.6104 112 31.5001V25.1599C112 25.0622 112.05 25 112.151 25H112.79C112.902 25 112.952 25.0614 112.952 25.1599V30.8345H116.247V25.1599C116.247 25.0622 116.309 25 116.41 25H117.049C117.149 25 117.212 25.0614 117.212 25.1599V30.8345H117.837V30.8331Z" fill="#009FE3"/>
<path d="M125 27.798V28.1143C125 28.2989 124.965 28.3853 124.639 28.3853H120.838C120.885 29.8999 121.164 30.3026 122.535 30.3026H124.349C124.453 30.3026 124.5 30.3458 124.5 30.4441V30.7813C124.5 30.8586 124.453 30.9116 124.36 30.9227C123.825 30.9771 123.128 31 122.535 31C120.42 31 120 30.4008 120 27.9944C120 25.588 120.419 25 122.535 25C124.512 24.9993 124.977 25.5553 125 27.798ZM120.838 27.6775H124.163C124.14 26.0673 123.872 25.6967 122.535 25.6967C121.129 25.6961 120.861 26.0883 120.838 27.6775Z" fill="#009FE3"/>
<path d="M131.873 25C131.958 25 132 25.0554 132 25.1441V30.8566C132 30.956 131.958 31 131.873 31H131.33C131.235 31 131.192 30.956 131.192 30.8566V28.3379H127.809V30.8566C127.809 30.956 127.766 31 127.681 31H127.138C127.043 31 127 30.956 127 30.8566V25.1441C127 25.056 127.043 25 127.138 25H127.681C127.766 25 127.809 25.0554 127.809 25.1441V27.5954H131.192V25.1441C131.192 25.056 131.234 25 131.33 25H131.873Z" fill="#009FE3"/>
<path d="M138.856 25C138.955 25 139 25.0554 139 25.1441V25.6103C139 25.6983 138.955 25.7543 138.856 25.7543H136.922V30.8566C136.922 30.956 136.878 31 136.789 31H136.222C136.122 31 136.078 30.956 136.078 30.8566V25.7543H134.144C134.045 25.7543 134 25.699 134 25.6103V25.1441C134 25.056 134.044 25 134.144 25H138.856Z" fill="#009FE3"/>
<path d="M146 28.3718C146 31.0404 145.599 31.6845 143.409 31.6845C142.835 31.6845 142.365 31.6721 141.826 31.6108V33.8424C141.826 33.9395 141.78 34 141.688 34H141.15C141.046 34 141 33.9395 141 33.8424V25.34C141 25.2181 141.046 25.1831 141.161 25.1576C142.216 25.0124 142.686 25 143.477 25C145.61 25 146 25.6675 146 28.3718ZM141.826 25.7762V30.8222C142.331 30.8704 142.904 30.9083 143.409 30.9083C144.98 30.9083 145.175 30.4108 145.175 28.3609C145.175 26.2861 144.992 25.7769 143.478 25.7769H141.826V25.7762Z" fill="#009FE3"/>
<path d="M155.843 25.0766C155.947 25.0865 156 25.1408 156 25.2181V25.5553C156 25.6529 155.947 25.6967 155.829 25.6967H153.919C152.204 25.6967 151.942 26.1544 151.942 27.9938C151.942 29.8338 152.204 30.3026 153.919 30.3026H155.829C155.947 30.3026 156 30.3459 156 30.4441V30.7813C156 30.8586 155.947 30.9116 155.843 30.9227C155.241 30.9771 154.416 31 153.919 31C151.511 31 151 30.4008 151 27.9944C151 25.5992 151.51 25 153.919 25C154.416 24.9994 155.24 25.0105 155.843 25.0766Z" fill="#009FE3"/>
<path d="M161.872 25C161.961 25 162 25.0554 162 25.1441V30.8566C162 30.956 161.961 31 161.872 31H161.371C161.292 31 161.253 30.956 161.253 30.8566V25.7537H158.747V30.8566C158.747 30.956 158.708 31 158.629 31H158.128C158.04 31 158 30.956 158 30.8566V25.1441C158 25.056 158.04 25 158.128 25H161.872Z" fill="#009FE3"/>
<path d="M170 27.9944C170 30.4009 169.563 31 167.5 31C165.437 31 165 30.4009 165 27.9944C165 25.5991 165.437 25 167.5 25C169.562 25 170 25.5991 170 27.9944ZM165.807 27.9944C165.807 29.8344 166.032 30.3033 167.5 30.3033C168.968 30.3033 169.181 29.8344 169.181 27.9944C169.181 26.1544 168.968 25.6974 167.5 25.6974C166.032 25.6967 165.807 26.1544 165.807 27.9944Z" fill="#009FE3"/>
<path d="M177 28.3718C177 31.0404 176.599 31.6845 174.409 31.6845C173.835 31.6845 173.365 31.6721 172.826 31.6108V33.8424C172.826 33.9395 172.781 34 172.688 34H172.15C172.046 34 172 33.9395 172 33.8424V25.34C172 25.2181 172.046 25.1831 172.161 25.1576C173.215 25.0124 173.686 25 174.477 25C176.611 25 177 25.6675 177 28.3718ZM172.826 25.7762V30.8222C173.331 30.8704 173.904 30.9083 174.409 30.9083C175.981 30.9083 176.175 30.4108 176.175 28.3609C176.175 26.2861 175.992 25.7769 174.478 25.7769H172.826V25.7762Z" fill="#009FE3"/>
<path d="M183.856 25C183.955 25 184 25.0554 184 25.1441V25.6103C184 25.6983 183.956 25.7543 183.856 25.7543H181.922V30.8566C181.922 30.956 181.878 31 181.789 31H181.223C181.122 31 181.078 30.956 181.078 30.8566V25.7543H179.144C179.045 25.7543 179 25.699 179 25.6103V25.1441C179 25.056 179.044 25 179.144 25H183.856Z" fill="#009FE3"/>
<path d="M190.893 25.0007C190.969 25.0007 191 25.0447 191 25.112V30.8886C191 30.956 190.969 31 190.893 31H190.295C190.22 31 190.188 30.966 190.188 30.8886V26.3198L186.856 30.856C186.77 30.9767 186.695 30.9993 186.578 30.9993H186.107C186.044 30.9993 186 30.9553 186 30.888V25.1114C186 25.044 186.043 25 186.107 25H186.706C186.78 25 186.813 25.044 186.813 25.1114V29.5128L189.964 25.2107C190.071 25.0554 190.124 25 190.381 25H190.893V25.0007Z" fill="#009FE3"/>
<path d="M197.812 26.6555C197.812 27.4185 197.588 27.8533 196.979 27.9725V27.9948C197.777 28.0923 198 28.6595 198 29.3883C198 30.6726 197.178 31 195.699 31C195.183 31 193.774 31 193.129 30.9456C193.035 30.9345 193 30.8913 193 30.814V25.1749C193 25.0976 193.047 25.0655 193.129 25.0544C193.775 25.0223 194.912 25 195.429 25C197.014 25 197.812 25.3923 197.812 26.6555ZM193.892 25.7308V27.6785H195.229C196.451 27.6785 196.921 27.592 196.921 26.7538C196.921 25.9365 196.404 25.7308 195.36 25.7308H193.892V25.7308ZM193.892 28.3209V30.2698H195.711C196.626 30.2698 197.096 30.0851 197.096 29.313C197.096 28.4957 196.604 28.3209 195.782 28.3209H193.892Z" fill="#009FE3"/>
<path d="M205.872 25C205.958 25 206 25.0554 206 25.1441V30.8566C206 30.956 205.958 31 205.872 31H205.329C205.234 31 205.191 30.956 205.191 30.8566V28.3379H201.809V30.8566C201.809 30.956 201.766 31 201.681 31H201.139C201.044 31 201 30.956 201 30.8566V25.1441C201 25.056 201.043 25 201.139 25H201.681C201.766 25 201.809 25.0554 201.809 25.1441V27.5954H205.191V25.1441C205.191 25.056 205.234 25 205.329 25H205.872Z" fill="#009FE3"/>
<path d="M213 27.9944C213 30.4009 212.562 31 210.5 31C208.438 31 208 30.4009 208 27.9944C208 25.5991 208.438 25 210.5 25C212.562 25 213 25.5991 213 27.9944ZM208.807 27.9944C208.807 29.8344 209.032 30.3033 210.5 30.3033C211.969 30.3033 212.182 29.8344 212.182 27.9944C212.182 26.1544 211.969 25.6974 210.5 25.6974C209.032 25.6967 208.807 26.1544 208.807 27.9944Z" fill="#009FE3"/>
<path d="M218.885 25C218.965 25 219 25.044 219 25.1114V25.6423C219 25.7096 218.965 25.7537 218.885 25.7537H215.874V30.8886C215.874 30.956 215.84 31 215.759 31H215.115C215.047 31 215 30.956 215 30.8886V25.1227C215 25.044 215.046 25 215.138 25H218.885Z" fill="#009FE3"/>
<path d="M226 27.9944C226 30.4009 225.564 31 223.5 31C221.436 31 221 30.4009 221 27.9944C221 25.5991 221.436 25 223.5 25C225.564 25 226 25.5991 226 27.9944ZM221.807 27.9944C221.807 29.8344 222.031 30.3033 223.5 30.3033C224.969 30.3033 225.182 29.8344 225.182 27.9944C225.182 26.1544 224.969 25.6974 223.5 25.6974C222.031 25.6974 221.807 26.1544 221.807 27.9944Z" fill="#009FE3"/>
<path d="M117.872 39C117.961 39 118 39.044 118 39.1114V44.8886C118 44.956 117.961 45 117.872 45H117.154C117.064 45 117.025 44.9653 117.025 44.8886V40.3199L113.025 44.8559C112.923 44.9773 112.833 45 112.692 45H112.129C112.052 45 112 44.956 112 44.8886V39.1114C112 39.044 112.052 39 112.129 39H112.847C112.936 39 112.975 39.044 112.975 39.1114V43.5133L116.756 39.2108C116.884 39.0554 116.949 39 117.256 39H117.872Z" fill="#009FE3"/>
<path d="M128.893 39C128.969 39 129 39.044 129 39.1114V44.8886C129 44.956 128.969 45 128.893 45H128.295C128.221 45 128.188 44.9653 128.188 44.8886V40.3199L124.855 44.8559C124.769 44.9773 124.695 45 124.577 45H124.107C124.043 45 124 44.956 124 44.8886V39.1114C124 39.044 124.043 39 124.107 39H124.705C124.78 39 124.812 39.044 124.812 39.1114V43.5133L127.964 39.2108C128.07 39.0554 128.124 39 128.38 39H128.893Z" fill="#009FE3"/>
<path d="M136.873 39C136.958 39 137 39.0554 137 39.1441V44.8559C137 44.9553 136.958 45 136.873 45H136.33C136.235 45 136.192 44.956 136.192 44.8559V42.3375H132.809V44.8559C132.809 44.9553 132.766 45 132.681 45H132.138C132.043 45 132 44.956 132 44.8559V39.1441C132 39.056 132.043 39 132.138 39H132.681C132.766 39 132.809 39.0554 132.809 39.1441V41.5952H136.192V39.1441C136.192 39.056 136.234 39 136.33 39H136.873Z" fill="#009FE3"/>
<path d="M143.856 39C143.955 39 144 39.0554 144 39.1441V39.6102C144 39.6989 143.955 39.7542 143.856 39.7542H141.922V44.856C141.922 44.9553 141.878 45 141.789 45H141.222C141.122 45 141.078 44.956 141.078 44.856V39.7542H139.144C139.045 39.7542 139 39.6989 139 39.6102V39.1441C139 39.056 139.044 39 139.144 39H143.856Z" fill="#009FE3"/>
<path d="M150 41.798V42.1143C150 42.2989 149.972 42.386 149.711 42.386H146.67C146.708 43.8999 146.931 44.3026 148.028 44.3026H149.479C149.562 44.3026 149.599 44.3458 149.599 44.4441V44.7813C149.599 44.8566 149.562 44.9109 149.488 44.9227C149.06 44.9771 148.502 45 148.027 45C146.335 45 146 44.4009 146 41.9944C146 39.5874 146.335 39 148.027 39C149.61 38.9993 149.982 39.5553 150 41.798ZM146.67 41.6775H149.33C149.311 40.0673 149.097 39.6967 148.028 39.6967C146.903 39.6961 146.689 40.0883 146.67 41.6775Z" fill="#009FE3"/>
<path d="M156.859 39.0007C156.946 39.0007 157 39.0444 157 39.1324V44.8464C157 44.9133 156.956 44.957 156.88 44.957H156.274C156.209 44.957 156.166 44.9133 156.166 44.8464V39.7488H154.521L154.024 43.4043C153.861 44.6597 153.331 45 152.562 45C152.378 45 152.27 44.9887 152.13 44.9563C152.043 44.9338 152 44.8894 152 44.8133V44.3617C152 44.2949 152.043 44.2631 152.108 44.2631H152.26C153.006 44.2631 153.125 43.932 153.233 43.1719L153.764 39.1218C153.774 39.0437 153.807 39 153.894 39H156.859V39.0007Z" fill="#009FE3"/>
<path d="M163.859 39.0007C163.946 39.0007 164 39.0444 164 39.1324V44.8464C164 44.9133 163.957 44.957 163.881 44.957H163.275C163.21 44.957 163.167 44.9133 163.167 44.8464V39.7488H161.522L161.024 43.4043C160.861 44.6597 160.331 45 159.562 45C159.378 45 159.27 44.9887 159.13 44.9563C159.043 44.9338 159 44.8894 159 44.8133V44.3617C159 44.2949 159.043 44.2631 159.108 44.2631H159.26C160.006 44.2631 160.126 43.932 160.234 43.1719L160.763 39.1218C160.775 39.0437 160.807 39 160.894 39H163.859V39.0007Z" fill="#009FE3"/>
<path d="M171 41.798V42.1143C171 42.2989 170.972 42.386 170.711 42.386H167.671C167.708 43.8999 167.931 44.3026 169.028 44.3026H170.479C170.562 44.3026 170.6 44.3458 170.6 44.4441V44.7813C170.6 44.8566 170.562 44.9109 170.488 44.9227C170.06 44.9771 169.502 45 169.027 45C167.336 45 167 44.4009 167 41.9944C167 39.5874 167.335 39 169.027 39C170.609 38.9993 170.981 39.5553 171 41.798ZM167.671 41.6775H170.33C170.312 40.0673 170.097 39.6967 169.028 39.6967C167.903 39.6961 167.689 40.0883 167.671 41.6775Z" fill="#009FE3"/>
<path d="M177.711 39C177.818 39 177.867 39.0674 177.808 39.1441L175.519 41.7719L177.964 44.8333C178.032 44.91 178.003 45 177.886 45H177.263C177.195 45 177.155 44.9773 177.107 44.9213L174.74 41.9713V44.8559C174.74 44.9553 174.702 45 174.623 45H174.127C174.039 45 174 44.956 174 44.8559V39.1441C174 39.056 174.039 39 174.127 39H174.623C174.701 39 174.74 39.0554 174.74 39.1441V41.6072L176.99 39.0674C177.029 39.0233 177.068 39 177.137 39H177.711V39Z" fill="#009FE3"/>
<path d="M184.827 39C184.946 39 185 39.0554 185 39.1441V39.6102C185 39.6989 184.946 39.7542 184.827 39.7542H182.507V44.856C182.507 44.9553 182.453 45 182.346 45H181.666C181.547 45 181.493 44.956 181.493 44.856V39.7542H179.173C179.054 39.7542 179 39.6989 179 39.6102V39.1441C179 39.056 179.053 39 179.173 39H184.827Z" fill="#009FE3"/>
<path d="M190.851 39C190.954 39 191 39.0538 191 39.1401V44.3688C190.988 46.4385 190.541 47 188.443 47C187.801 47 187.399 46.978 186.837 46.9235C186.746 46.9138 186.699 46.8599 186.699 46.7724V46.4385C186.699 46.3529 186.746 46.3101 186.848 46.3101H188.442C189.864 46.3101 190.174 45.9762 190.174 44.8875V44.8C189.555 44.8765 189.096 44.8875 188.522 44.8875C186.39 44.8875 186 44.2942 186 41.9113V39.1401C186 39.0545 186.046 39 186.149 39H186.688C186.779 39 186.826 39.0538 186.826 39.1401V41.8886C186.826 43.7327 187.009 44.197 188.522 44.197C189.015 44.197 189.566 44.1749 190.174 44.1003V39.1401C190.174 39.0545 190.22 39 190.312 39H190.851Z" fill="#009FE3"/>
<path d="M198 40.6874V44.4991C198 44.5855 198 44.706 197.783 44.7819C197.409 44.9116 196.277 45 195.217 45C193.638 45 193 44.6405 193 43.3217V43.2143C193 42.0809 193.675 41.6683 195.024 41.6683H197.121V40.8079C197.121 39.9907 196.53 39.6967 195.349 39.6967H193.711C193.591 39.6967 193.554 39.6646 193.554 39.5553V39.2501C193.554 39.1408 193.602 39.1198 193.699 39.0976C194.362 39.0111 194.916 39 195.349 39C197 39 198 39.4256 198 40.6874ZM195.06 42.3539C194 42.3539 193.867 42.5818 193.867 43.3014V43.3446C193.867 44.1717 194.325 44.3026 195.301 44.3026C195.675 44.3026 196.614 44.2692 197.121 44.1599V42.3539H195.06Z" fill="#009FE3"/>
<path d="M204.859 39.0007C204.946 39.0007 205 39.0444 205 39.1324V44.8464C205 44.9133 204.957 44.957 204.881 44.957H204.275C204.21 44.957 204.167 44.9133 204.167 44.8464V39.7488H202.522L202.024 43.4043C201.861 44.6597 201.331 45 200.562 45C200.379 45 200.27 44.9887 200.13 44.9563C200.043 44.9338 200 44.8894 200 44.8133V44.3617C200 44.2949 200.043 44.2631 200.108 44.2631H200.26C201.006 44.2631 201.126 43.932 201.234 43.1719L201.764 39.1218C201.775 39.0437 201.808 39 201.894 39H204.859V39.0007Z" fill="#009FE3"/>
<path d="M210.707 41.4168C212.188 41.4168 213 41.7571 213 43.0538V43.373C213 44.6689 212.188 45 210.707 45C210.189 45 208.753 45 208.118 44.9452C208.025 44.9339 208 44.9015 208 44.8236V39.1104C208 39.0436 208.047 39 208.118 39H208.778C208.859 39 208.895 39.0436 208.895 39.1104V41.4175H210.707V41.4168ZM212.094 43.1198C212.094 42.3063 211.565 42.1523 210.718 42.1523H208.894V44.2618H210.718C211.636 44.2618 212.094 44.0755 212.094 43.2963V43.1198Z" fill="#009FE3"/>
<path d="M219.873 39C219.957 39 220 39.0554 220 39.1441V44.8559C220 44.9553 219.958 45 219.873 45H219.33C219.234 45 219.192 44.956 219.192 44.8559V42.3375H215.809V44.8559C215.809 44.9553 215.766 45 215.681 45H215.138C215.042 45 215 44.956 215 44.8559V39.1441C215 39.056 215.042 39 215.138 39H215.681C215.765 39 215.809 39.0554 215.809 39.1441V41.5952H219.192V39.1441C219.192 39.056 219.234 39 219.33 39H219.873Z" fill="#009FE3"/>
<path d="M227 41.9944C227 44.4009 226.563 45 224.5 45C222.437 45 222 44.4009 222 41.9944C222 39.5991 222.437 39 224.5 39C226.562 39 227 39.5991 227 41.9944ZM222.806 41.9944C222.806 43.8344 223.031 44.3026 224.499 44.3026C225.968 44.3026 226.181 43.8338 226.181 41.9944C226.181 40.1544 225.968 39.6967 224.499 39.6967C223.031 39.6967 222.806 40.1544 222.806 41.9944Z" fill="#009FE3"/>
<path d="M233.885 39C233.966 39 234 39.044 234 39.1114V39.6429C234 39.7102 233.966 39.7542 233.885 39.7542H230.874V44.8886C230.874 44.956 230.84 45 230.76 45H230.115C230.046 45 230 44.956 230 44.8886V39.1234C230 39.0447 230.046 39.0007 230.138 39.0007H233.885V39Z" fill="#009FE3"/>
<path d="M240 41.9944C240 44.4009 239.562 45 237.5 45C235.438 45 235 44.4009 235 41.9944C235 39.5991 235.438 39 237.5 39C239.562 39 240 39.5991 240 41.9944ZM235.807 41.9944C235.807 43.8344 236.032 44.3026 237.5 44.3026C238.969 44.3026 239.182 43.8338 239.182 41.9944C239.182 40.1544 238.969 39.6967 237.5 39.6967C236.032 39.6967 235.807 40.1544 235.807 41.9944Z" fill="#009FE3"/>
<path d="M117 55.9969C117 58.3688 116.598 58.9413 114.409 58.9413C113.835 58.9413 113.365 58.9296 112.826 58.8758V60.8599C112.826 60.9462 112.78 61 112.688 61H112.149C112.046 61 112 60.9462 112 60.8599V53.3021C112 53.1939 112.046 53.1621 112.161 53.14C113.216 53.011 113.686 53 114.477 53C116.61 53 117 53.5933 117 55.9969ZM112.825 53.6899V58.1749C113.33 58.2177 113.903 58.2514 114.408 58.2514C115.979 58.2514 116.174 57.8092 116.174 55.9878C116.174 54.1438 115.991 53.6905 114.477 53.6905H112.825V53.6899Z" fill="#009FE3"/>
<path d="M124 54.6874V58.4991C124 58.5855 124 58.706 123.783 58.7819C123.41 58.9116 122.277 59 121.217 59C119.638 59 119 58.6405 119 57.3217V57.2143C119 56.0809 119.674 55.6683 121.023 55.6683H123.12V54.8079C123.12 53.9907 122.53 53.6967 121.349 53.6967H119.71C119.589 53.6967 119.554 53.6646 119.554 53.5553V53.2501C119.554 53.1408 119.601 53.1198 119.698 53.0976C120.361 53.0111 120.915 53 121.349 53C122.999 53 124 53.4256 124 54.6874ZM121.059 56.3539C120 56.3539 119.867 56.5818 119.867 57.3014V57.3446C119.867 58.1717 120.326 58.3026 121.301 58.3026C121.675 58.3026 122.614 58.2692 123.121 58.1599V56.3539H121.059Z" fill="#009FE3"/>
<path d="M130 54.5033V54.7645C130 55.3636 129.769 55.8533 129.217 56.0059C129.78 56.1584 130 56.6364 130 57.2244V57.4745C130 58.727 129.342 59 127.567 59C127.169 59 126.522 58.9568 126.114 58.9116C126.042 58.9116 126 58.8684 126 58.7931V58.3675C126 58.2922 126.041 58.27 126.114 58.27H127.577C128.83 58.27 129.195 58.0965 129.195 57.3776V57.2682C129.195 56.5827 128.924 56.3431 128.036 56.3431H126.439C126.376 56.3431 126.335 56.311 126.335 56.2337V55.7761C126.335 55.6897 126.376 55.668 126.439 55.668H128.026C128.915 55.668 129.195 55.4382 129.195 54.7305V54.5779C129.195 53.8492 128.768 53.73 127.525 53.73H126.104C126.042 53.73 126 53.7189 126 53.6305V53.2069C126 53.1316 126.041 53.0864 126.114 53.0864C126.533 53.0334 127.169 53 127.567 53C129.311 53.0007 130 53.2514 130 54.5033Z" fill="#009FE3"/>
<path d="M137.813 54.6549C137.813 55.4178 137.59 55.8527 136.979 55.9712V55.9941C137.776 56.0917 138 56.6588 138 57.3877C138 58.6719 137.178 59 135.7 59C135.184 59 133.776 59 133.13 58.9456C133.036 58.9345 133 58.8913 133 58.814V53.1749C133 53.0976 133.047 53.0655 133.13 53.0544C133.776 53.0223 134.914 53 135.429 53C137.014 52.9993 137.813 53.3916 137.813 54.6549ZM133.893 53.7302V55.6778H135.231C136.451 55.6778 136.92 55.5914 136.92 54.7531C136.92 53.9358 136.405 53.7302 135.36 53.7302H133.893V53.7302ZM133.893 56.3202V58.2698H135.712C136.627 58.2698 137.096 58.0851 137.096 57.313C137.096 56.4957 136.602 56.3209 135.782 56.3209H133.893V56.3202Z" fill="#009FE3"/>
<path d="M144.895 53C144.969 53 145 53.044 145 53.1114V58.8886C145 58.956 144.969 59 144.895 59H144.296C144.22 59 144.188 58.9653 144.188 58.8886V54.3199L140.854 58.8559C140.769 58.9773 140.695 59 140.576 59H140.107C140.042 59 140 58.956 140 58.8886V53.1114C140 53.044 140.042 53 140.107 53H140.705C140.78 53 140.812 53.044 140.812 53.1114V57.5133L143.965 53.2108C144.071 53.0554 144.124 53 144.38 53H144.895Z" fill="#009FE3"/>
<path d="M151.856 53C151.955 53 152 53.0554 152 53.1441V53.6102C152 53.6989 151.956 53.7542 151.856 53.7542H149.922V58.856C149.922 58.9553 149.878 59 149.789 59H149.222C149.122 59 149.078 58.956 149.078 58.856V53.7542H147.144C147.045 53.7542 147 53.6989 147 53.6102V53.1441C147 53.056 147.044 53 147.144 53H151.856Z" fill="#009FE3"/>
<path d="M158.894 53C158.968 53 159 53.044 159 53.1114V58.8886C159 58.956 158.969 59 158.894 59H158.295C158.219 59 158.188 58.9653 158.188 58.8886V54.3199L154.854 58.8559C154.769 58.9773 154.695 59 154.577 59H154.107C154.042 59 154 58.956 154 58.8886V53.1114C154 53.044 154.042 53 154.107 53H154.704C154.78 53 154.812 53.044 154.812 53.1114V57.5133L157.964 53.2108C158.07 53.0554 158.124 53 158.38 53H158.894Z" fill="#009FE3"/>
<path d="M165.868 53.0548C165.964 53.0667 166 53.0872 166 53.1652V58.8896C166 58.9775 165.977 59 165.868 59H165.203C165.105 59 165.082 58.9775 165.082 58.8896V56.7914H163.631L162.073 58.846C162.002 58.9564 161.941 59 161.747 59H161.12C161.012 59 160.962 58.9451 161.034 58.8672L162.616 56.7365C161.494 56.5938 161.094 56.1761 161.094 54.9443C161.094 53.3304 161.784 53 163.896 53C164.431 53 165.214 53 165.868 53.0548ZM163.984 53.7375C162.45 53.7375 162.026 53.9126 162.026 54.9674C162.026 56.0221 162.449 56.11 163.984 56.11H165.083V53.7375H163.984Z" fill="#009FE3"/>
<path d="M7.22773 56.4554C8.21262 57.0116 8.75815 57.8905 8.75815 58.8265C8.75815 60.6554 7.29815 61.8258 5.08136 61.8258H0.190186V51.582H4.69385C6.89278 51.582 8.35312 52.7235 8.35312 54.5086C8.35347 55.139 8.07177 56.0025 7.22773 56.4554ZM4.43002 55.6066C4.95768 55.6066 5.32732 55.2702 5.34484 54.7725C5.36236 54.2163 4.99307 53.8509 4.43002 53.8509H3.18095V55.607H4.43002V55.6066ZM4.8347 59.5286C5.34519 59.5286 5.74952 59.1779 5.74952 58.6508C5.74952 58.0946 5.34519 57.7134 4.8347 57.7134H3.18095V59.5286H4.8347Z" fill="url(#paint0_linear)"/>
<path d="M5.08108 61.9845H0V51.4253H4.69392C7.03229 51.4253 8.54309 52.636 8.54309 54.5097C8.54309 55.1405 8.27716 55.9532 7.54944 56.4555C8.44183 57.0365 8.94812 57.8895 8.94812 58.8276C8.94812 60.7443 7.43031 61.9845 5.08108 61.9845ZM0.380153 61.6687H5.08108C7.19942 61.6687 8.56796 60.5529 8.56796 58.8273C8.56796 57.9228 8.04066 57.1058 7.12058 56.5864L6.88338 56.4527L7.12409 56.3232C7.89035 55.9119 8.16329 55.1163 8.16329 54.5097C8.16329 52.8285 6.8014 51.741 4.69392 51.741H0.380153V61.6687ZM4.83477 59.6869H2.99111V57.556H4.83477C5.46473 57.556 5.93983 58.0271 5.93983 58.6512C5.93983 59.2518 5.47524 59.6869 4.83477 59.6869ZM3.37092 59.3712H4.83477C5.26117 59.3712 5.55968 59.0744 5.55968 58.6512C5.55968 58.1997 5.25486 57.8727 4.83477 57.8727H3.37092V59.3712V59.3712ZM4.43009 55.7649H2.99111V53.6931H4.43009C4.73386 53.6931 4.99839 53.7824 5.19635 53.9504C5.42584 54.1471 5.54602 54.4404 5.53516 54.7768C5.51448 55.3592 5.06005 55.7649 4.43009 55.7649ZM3.37092 55.4492H4.42974C4.85579 55.4492 5.14029 55.1821 5.15465 54.7687C5.16306 54.5181 5.08108 54.306 4.92341 54.1712C4.79903 54.0648 4.6284 54.0092 4.42974 54.0092H3.37092V55.4492V55.4492Z" fill="url(#paint1_linear)"/>
<path d="M15.765 51.4365C17.9464 51.4365 20.392 52.6224 20.7437 55.3585H17.823C17.5067 54.3057 16.8024 53.8517 15.7646 53.8517C14.3751 53.8517 13.4424 54.9931 13.4424 56.7051C13.4424 58.388 14.3751 59.5147 15.7825 59.5147C16.8203 59.5147 17.6121 59.0023 17.8409 57.891H20.7791C20.3923 60.8018 18.0347 61.959 15.765 61.959C12.5629 61.959 10.4166 59.8658 10.4166 56.7194C10.4169 53.5444 12.5633 51.4365 15.765 51.4365Z" fill="url(#paint2_linear)"/>
<path d="M15.7649 62.1165C12.4525 62.1165 10.2266 59.9477 10.2266 56.7191C10.2266 53.4649 12.4529 51.2783 15.7649 51.2783C18.0774 51.2783 20.572 52.5346 20.9326 55.3418L20.955 55.5161H17.6752L17.6391 55.3967C17.3542 54.4502 16.7589 54.0092 15.7649 54.0092C14.4896 54.0092 13.6329 55.0922 13.6329 56.7047C13.6329 58.2907 14.4966 59.3565 15.7828 59.3565C16.8059 59.3565 17.453 58.8399 17.6534 57.8633L17.6804 57.7321H20.9914L20.9679 57.9071C20.5552 61.0104 18.0101 62.1165 15.7649 62.1165ZM15.7649 51.594C12.6796 51.594 10.6064 53.6536 10.6064 56.7191C10.6064 59.758 12.6796 61.8007 15.7649 61.8007C17.8027 61.8007 20.1088 60.8102 20.564 58.0478H17.9975C17.733 59.0828 16.9324 59.6722 15.7825 59.6722C14.2692 59.6722 13.2528 58.4794 13.2528 56.7044C13.2528 54.9032 14.2618 53.6928 15.7649 53.6928C16.8844 53.6928 17.6254 54.1993 17.9691 55.2H20.5289C20.1148 52.7117 17.8587 51.594 15.7649 51.594Z" fill="url(#paint3_linear)"/>
<path d="M25.7501 55.3731H29.0223V57.7134H25.7501V59.3827H29.4798V61.8258H22.724V51.582H29.339V53.9093H25.7501V55.3731Z" fill="url(#paint4_linear)"/>
<path d="M29.9206 61.9845H22.5341V51.4253H29.6228V54.0676H25.9397V55.215H29.3064V57.8727H25.9397V59.2245H29.9202V61.9845H29.9206ZM22.9135 61.6687H29.2892V59.5413H25.7168V57.5563H28.8327V55.5311H25.7168V53.8146H29.243V51.6784H22.9135V61.6687Z" fill="url(#paint5_linear)"/>
<path d="M36.241 58.6651C35.9593 61.6354 34.904 62.1769 31.7373 61.7674L31.7899 59.85C32.9338 59.9529 33.1451 59.6742 33.2499 58.5766L33.9187 51.582H41.5189V61.8258H38.4928V53.9671H36.5752L36.241 58.6651Z" fill="url(#paint6_linear)"/>
<path d="M33.3122 62.0454C32.8592 62.0454 32.3305 62.0041 31.7075 61.9243L31.5435 61.9029L31.6045 59.675L31.8102 59.6939C32.2888 59.737 32.5596 59.7079 32.7183 59.598C32.9345 59.4496 33.0098 59.0926 33.0606 58.5654L33.7428 51.4253H41.7085V61.9845H38.3025V54.1257H36.7539L36.4298 58.6774C36.2802 60.2585 35.9095 61.1336 35.1905 61.6065C34.7403 61.9036 34.1562 62.0454 33.3122 62.0454ZM31.931 61.6327C33.4937 61.8224 34.3756 61.7409 34.9558 61.359C35.5829 60.9463 35.9109 60.1378 36.0514 58.6547L36.3958 53.81H38.6827V61.6688H41.3287V51.7407H34.0939L33.439 58.5899C33.3795 59.2158 33.2817 59.6197 32.9608 59.8413C32.7453 59.9897 32.4461 60.0464 31.9748 60.0226L31.931 61.6327Z" fill="url(#paint7_linear)"/>
<path d="M56.1056 57.7298V61.8268H53.0619V51.583H56.1056V55.2856H58.8854V51.583H61.9291V61.8268H58.8854V57.7298H56.1056Z" fill="url(#paint8_linear)"/>
<path d="M62.119 61.9845H58.6955V57.8871H56.2955V61.9845H52.872V51.4253H56.2955V55.1275H58.6955V51.4253H62.119V61.9845ZM59.0753 61.6687H61.7392V51.7407H59.0753V55.4432H55.9157V51.7407H53.2518V61.6684H55.9157V57.5714H59.0753V61.6687Z" fill="url(#paint9_linear)"/>
<path d="M67.472 57.7298V61.8268H64.4286V51.583H67.472V55.2856H70.2522V51.583H73.2958V61.8268H70.2522V57.7298H67.472Z" fill="url(#paint10_linear)"/>
<path d="M73.4854 61.9845H70.0619V57.8871H67.6618V61.9845H64.2387V51.4253H67.6618V55.1275H70.0619V51.4253H73.4854V61.9845ZM70.442 61.6687H73.1056V51.7407H70.442V55.4432H67.282V51.7407H64.6185V61.6684H67.282V57.5714H70.442V61.6687Z" fill="url(#paint11_linear)"/>
<path d="M82.6546 61.8315L82.1228 60.5907H78.713L78.1825 61.8315H75.0803V61.6743L79.6908 51.7046H81.1642L85.7239 61.6743V61.8315H82.6546V61.8315ZM81.2847 58.5651C80.7195 57.124 80.6001 56.6109 80.4109 55.7271C80.1705 56.7106 80.051 57.1818 79.5535 58.5651H81.2847Z" fill="url(#paint12_linear)"/>
<path d="M85.9088 61.9847H82.5242L81.9924 60.7439H78.8433L78.3128 61.9847H74.8956L74.9082 61.6182L79.5643 51.5498H81.2927L85.9092 61.6739V61.9847H85.9088ZM82.7846 61.6767H85.5266L81.0373 51.8578H79.8183L75.2775 61.6767H78.0521L78.5826 60.4359H82.2538L82.7846 61.6767ZM81.5387 58.7183H79.305L79.3755 58.5202C79.8677 57.1523 79.9862 56.6931 80.229 55.6958L80.4227 54.902L80.5927 55.6993C80.7843 56.5961 80.9003 57.0914 81.4595 58.5167L81.5387 58.7183ZM79.8012 58.4099H81.0299C80.6943 57.5415 80.5285 57.0207 80.4021 56.5159C80.2595 57.0602 80.1084 57.5478 79.8012 58.4099Z" fill="url(#paint13_linear)"/>
<path d="M89.1893 57.9636C88.0982 57.2902 87.6585 56.266 87.6407 55.0948C87.6407 52.9877 89.3295 51.583 91.863 51.583H96.2079V61.8121H93.1643V58.6076H92.0035L90.4202 61.8121H87.0948V61.6802L89.1893 57.9636ZM93.2175 53.8949H91.8809C91.1412 53.8949 90.649 54.3927 90.649 55.1393C90.649 55.9149 91.1412 56.4266 91.8809 56.4266H93.2175V53.8949Z" fill="url(#paint14_linear)"/>
<path d="M96.3979 61.9696H92.9744V58.7652H92.1307L90.5474 61.9696H86.9049L86.9221 61.6126L88.9518 58.0109C87.9742 57.3567 87.4701 56.3769 87.4501 55.0962C87.4501 52.8991 89.2233 51.4248 91.8623 51.4248H96.3972V61.9696H96.3979ZM93.3552 61.6539H96.0184V51.7405H91.8634C89.4511 51.7405 87.8309 53.0888 87.8309 55.0945C87.8492 56.3216 88.3446 57.245 89.3025 57.8362L89.4269 57.9125L87.3197 61.6536H90.293L91.877 58.448H93.3552V61.6539ZM93.4074 56.5845H91.8802C91.0305 56.5845 90.4594 56.0035 90.4594 55.1386C90.4594 54.301 91.0305 53.7371 91.8802 53.7371H93.4074V56.5845ZM91.8802 54.0528C91.2481 54.0528 90.8389 54.4795 90.8389 55.1386C90.8389 55.825 91.2478 56.2688 91.8802 56.2688H93.028V54.0528H91.8802V54.0528Z" fill="url(#paint15_linear)"/>
<path d="M0 61.7826V62H5.1376C7.466 62 9 60.9609 9 59.0861C9 59.0571 8.99463 59.0287 8.99348 59C5.97802 59.8848 2.98403 60.8256 0 61.7826Z" fill="url(#paint16_linear)"/>
<path d="M26.0151 57.828H29.3877V55.629H25.982V55C24.9462 55.1744 24.1119 55.3302 23.0862 55.5321C23.0571 55.5381 23.0287 55.5441 23 55.5501V62H30V59.6654H26.0151V57.828Z" fill="url(#paint17_linear)"/>
<path d="M46.9742 55.366H50.246V57.7069H46.9742V59.3755H50.7043V61.8186H43.9484V51.5752H50.5634V53.9018H46.9746V55.366H46.9742Z" fill="url(#paint18_linear)"/>
<path d="M51.0819 61.9762H43.7581V51.417H50.8472V54.0604H47.1641V55.2078H50.4996V57.8648H47.1641V59.2173H51.0819V61.9762ZM44.1376 61.6608H50.5133V59.5334H46.9409V57.5491H50.0564V55.5228H46.9409V53.8063H50.4667V51.6711H44.1376V61.6608Z" fill="url(#paint19_linear)"/>
<path d="M33.8887 53.4234L33.4704 58.4904C33.3723 59.676 33.1158 60.1115 32.0494 60.0015L32 61.9036C34.8724 62.2363 35.8991 61.5958 36.1392 58.586L36.4508 53.4439H38.3581V62H41V53C38.5676 53.0064 36.3114 53.1323 33.8887 53.4234Z" fill="url(#paint20_linear)"/>
<path d="M57.0036 55.1087H55.9559V54.7606C54.8265 54.4606 53.9277 54.202 53 54V61.9996H55.9893V57.6581H59.0103V62H62V56.3861C60.1795 55.8864 58.5121 55.5184 57.0036 55.1087Z" fill="url(#paint21_linear)"/>
<path d="M64.6181 57.103V61.7013H67.2834V57.8451C66.2974 57.5962 65.5336 57.3473 64.6181 57.103Z" fill="url(#paint22_linear)"/>
<path d="M70.4087 58.4829V61.7014H73.1052V59.1284C72.128 58.9173 71.334 58.701 70.4087 58.4829Z" fill="url(#paint23_linear)"/>
<path d="M85.5538 61.1295C84.4503 61.0051 83.3882 60.9564 82.3295 60.8112C80.2018 60.5338 78.0457 60.3293 76.0888 60L75 61.967V62H78.1031L78.6289 60.9481H82.4214L82.9836 62H86V61.967L85.5538 61.1295Z" fill="url(#paint24_linear)"/>
<path d="M87.6252 61.105L87.2791 61.6801V61.7179H90.2481L90.4163 61.4218C89.4696 61.3286 88.5407 61.2215 87.6252 61.105Z" fill="url(#paint25_linear)"/>
<path d="M93.3475 61.522V61.7176H96.0138V61.684C95.1137 61.6413 94.2238 61.5881 93.3475 61.522Z" fill="url(#paint26_linear)"/>
<path d="M46.9427 59.4767V57.6205H50.2148V55.4671H46.9427V54.1762V53.9102V53.8066H48.8035C47.2409 53.6495 45.7168 53.5672 44.1362 53.521V61.7322H50.7348V59.477H46.9427V59.4767Z" fill="url(#paint27_linear)"/>
<path d="M49.7236 53.9102H49.7442C49.7372 53.9085 49.7302 53.9085 49.7236 53.9067V53.9102Z" fill="url(#paint28_linear)"/>
<path d="M18.3252 58.4754C18.0389 59.4172 17.0673 59.9787 16.0736 59.9787C14.9051 59.9787 13.8406 59.123 13.5851 58C12.6132 58.2461 11.9655 58.3561 11 58.616C11.6187 60.6602 13.3727 62 15.9921 62C18.2301 62 20.5518 61.0566 21 58.4754H18.3252Z" fill="url(#paint29_linear)"/>
<defs>
<linearGradient id="paint0_linear" x1="4.4741" y1="51.5824" x2="4.4741" y2="61.8261" gradientUnits="userSpaceOnUse">
<stop stop-color="#1D71B8"/>
<stop offset="0.1862" stop-color="#009FE3"/>
<stop offset="1" stop-color="white"/>
</linearGradient>
<linearGradient id="paint1_linear" x1="7.00741e-05" y1="56.7048" x2="8.94805" y2="56.7048" gradientUnits="userSpaceOnUse">
<stop stop-color="#1D71B8"/>
<stop offset="0.1862" stop-color="#009FE3"/>
<stop offset="1" stop-color="#DFF2FD"/>
</linearGradient>
<linearGradient id="paint2_linear" x1="15.598" y1="51.4366" x2="15.598" y2="61.959" gradientUnits="userSpaceOnUse">
<stop stop-color="#1D71B8"/>
<stop offset="0.1862" stop-color="#009FE3"/>
<stop offset="1" stop-color="white"/>
</linearGradient>
<linearGradient id="paint3_linear" x1="10.2267" y1="56.6974" x2="20.9913" y2="56.6974" gradientUnits="userSpaceOnUse">
<stop stop-color="#1D71B8"/>
<stop offset="0.1862" stop-color="#009FE3"/>
<stop offset="1" stop-color="#DFF2FD"/>
</linearGradient>
<linearGradient id="paint4_linear" x1="26.1019" y1="51.5824" x2="26.1019" y2="61.8261" gradientUnits="userSpaceOnUse">
<stop stop-color="#1D71B8"/>
<stop offset="0.1862" stop-color="#009FE3"/>
<stop offset="1" stop-color="white"/>
</linearGradient>
<linearGradient id="paint5_linear" x1="22.534" y1="56.7048" x2="29.9205" y2="56.7048" gradientUnits="userSpaceOnUse">
<stop stop-color="#1D71B8"/>
<stop offset="0.1862" stop-color="#009FE3"/>
<stop offset="1" stop-color="#DFF2FD"/>
</linearGradient>
<linearGradient id="paint6_linear" x1="36.6282" y1="51.5824" x2="36.6282" y2="61.8878" gradientUnits="userSpaceOnUse">
<stop stop-color="#1D71B8"/>
<stop offset="0.1862" stop-color="#009FE3"/>
<stop offset="1" stop-color="white"/>
</linearGradient>
<linearGradient id="paint7_linear" x1="31.5437" y1="56.7353" x2="41.7089" y2="56.7353" gradientUnits="userSpaceOnUse">
<stop stop-color="#1D71B8"/>
<stop offset="0.1862" stop-color="#009FE3"/>
<stop offset="1" stop-color="#DFF2FD"/>
</linearGradient>
<linearGradient id="paint8_linear" x1="57.4954" y1="51.583" x2="57.4954" y2="61.8267" gradientUnits="userSpaceOnUse">
<stop stop-color="#1D71B8"/>
<stop offset="0.1862" stop-color="#009FE3"/>
<stop offset="1" stop-color="white"/>
</linearGradient>
<linearGradient id="paint9_linear" x1="52.8722" y1="56.7048" x2="62.119" y2="56.7048" gradientUnits="userSpaceOnUse">
<stop stop-color="#1D71B8"/>
<stop offset="0.1862" stop-color="#009FE3"/>
<stop offset="1" stop-color="#DFF2FD"/>
</linearGradient>
<linearGradient id="paint10_linear" x1="68.8623" y1="51.583" x2="68.8623" y2="61.8267" gradientUnits="userSpaceOnUse">
<stop stop-color="#1D71B8"/>
<stop offset="0.1862" stop-color="#009FE3"/>
<stop offset="1" stop-color="white"/>
</linearGradient>
<linearGradient id="paint11_linear" x1="64.2387" y1="56.7048" x2="73.4852" y2="56.7048" gradientUnits="userSpaceOnUse">
<stop stop-color="#1D71B8"/>
<stop offset="0.1862" stop-color="#009FE3"/>
<stop offset="1" stop-color="#DFF2FD"/>
</linearGradient>
<linearGradient id="paint12_linear" x1="80.4024" y1="51.7045" x2="80.4024" y2="61.8315" gradientUnits="userSpaceOnUse">
<stop stop-color="#1D71B8"/>
<stop offset="0.1862" stop-color="#009FE3"/>
<stop offset="1" stop-color="white"/>
</linearGradient>
<linearGradient id="paint13_linear" x1="74.8953" y1="56.7673" x2="85.9089" y2="56.7673" gradientUnits="userSpaceOnUse">
<stop stop-color="#1D71B8"/>
<stop offset="0.1862" stop-color="#009FE3"/>
<stop offset="1" stop-color="#DFF2FD"/>
</linearGradient>
<linearGradient id="paint14_linear" x1="91.6514" y1="51.5827" x2="91.6514" y2="61.8117" gradientUnits="userSpaceOnUse">
<stop stop-color="#1D71B8"/>
<stop offset="0.1862" stop-color="#009FE3"/>
<stop offset="1" stop-color="white"/>
</linearGradient>
<linearGradient id="paint15_linear" x1="86.9052" y1="56.6972" x2="96.3979" y2="56.6972" gradientUnits="userSpaceOnUse">
<stop stop-color="#1D71B8"/>
<stop offset="0.1862" stop-color="#009FE3"/>
<stop offset="1" stop-color="#DFF2FD"/>
</linearGradient>
<linearGradient id="paint16_linear" x1="4.50008" y1="62" x2="4.50008" y2="59" gradientUnits="userSpaceOnUse">
<stop stop-color="#1D71B8"/>
<stop offset="0.2819" stop-color="#009FE3"/>
<stop offset="1" stop-color="white"/>
</linearGradient>
<linearGradient id="paint17_linear" x1="26.4999" y1="62.0005" x2="26.4999" y2="55.0002" gradientUnits="userSpaceOnUse">
<stop stop-color="#1D71B8"/>
<stop offset="0.2819" stop-color="#009FE3"/>
<stop offset="1" stop-color="white"/>
</linearGradient>
<linearGradient id="paint18_linear" x1="47.326" y1="51.5752" x2="47.326" y2="61.8187" gradientUnits="userSpaceOnUse">
<stop stop-color="#1D71B8"/>
<stop offset="0.1862" stop-color="#009FE3"/>
<stop offset="1" stop-color="white"/>
</linearGradient>
<linearGradient id="paint19_linear" x1="43.7579" y1="56.6967" x2="51.0818" y2="56.6967" gradientUnits="userSpaceOnUse">
<stop stop-color="#1D71B8"/>
<stop offset="0.1862" stop-color="#009FE3"/>
<stop offset="1" stop-color="#DFF2FD"/>
</linearGradient>
<linearGradient id="paint20_linear" x1="36.5001" y1="61.9999" x2="36.5001" y2="52.9998" gradientUnits="userSpaceOnUse">
<stop stop-color="#1D71B8"/>
<stop offset="0.2819" stop-color="#009FE3"/>
<stop offset="1" stop-color="white"/>
</linearGradient>
<linearGradient id="paint21_linear" x1="57.5" y1="61.9999" x2="57.5" y2="54.0001" gradientUnits="userSpaceOnUse">
<stop stop-color="#1D71B8"/>
<stop offset="0.2819" stop-color="#009FE3"/>
<stop offset="1" stop-color="white"/>
</linearGradient>
<linearGradient id="paint22_linear" x1="65.9508" y1="61.7012" x2="65.9508" y2="57.1029" gradientUnits="userSpaceOnUse">
<stop stop-color="#1D71B8"/>
<stop offset="0.2819" stop-color="#009FE3"/>
<stop offset="1" stop-color="white"/>
</linearGradient>
<linearGradient id="paint23_linear" x1="71.7571" y1="61.7013" x2="71.7571" y2="58.4829" gradientUnits="userSpaceOnUse">
<stop stop-color="#1D71B8"/>
<stop offset="0.2819" stop-color="#009FE3"/>
<stop offset="1" stop-color="white"/>
</linearGradient>
<linearGradient id="paint24_linear" x1="80.4998" y1="61.9999" x2="80.4998" y2="60" gradientUnits="userSpaceOnUse">
<stop stop-color="#1D71B8"/>
<stop offset="0.2819" stop-color="#009FE3"/>
<stop offset="1" stop-color="white"/>
</linearGradient>
<linearGradient id="paint25_linear" x1="88.8476" y1="61.7176" x2="88.8476" y2="61.1049" gradientUnits="userSpaceOnUse">
<stop stop-color="#1D71B8"/>
<stop offset="0.2819" stop-color="#009FE3"/>
<stop offset="1" stop-color="white"/>
</linearGradient>
<linearGradient id="paint26_linear" x1="94.6805" y1="61.7177" x2="94.6805" y2="61.522" gradientUnits="userSpaceOnUse">
<stop stop-color="#1D71B8"/>
<stop offset="0.2819" stop-color="#009FE3"/>
<stop offset="1" stop-color="white"/>
</linearGradient>
<linearGradient id="paint27_linear" x1="47.4355" y1="61.7321" x2="47.4355" y2="53.5209" gradientUnits="userSpaceOnUse">
<stop stop-color="#1D71B8"/>
<stop offset="0.2819" stop-color="#009FE3"/>
<stop offset="1" stop-color="white"/>
</linearGradient>
<linearGradient id="paint28_linear" x1="49.7339" y1="53.9104" x2="49.7339" y2="53.907" gradientUnits="userSpaceOnUse">
<stop stop-color="#1D71B8"/>
<stop offset="0.2819" stop-color="#009FE3"/>
<stop offset="1" stop-color="white"/>
</linearGradient>
<linearGradient id="paint29_linear" x1="16" y1="62.0002" x2="16" y2="58.0003" gradientUnits="userSpaceOnUse">
<stop stop-color="#1D71B8"/>
<stop offset="0.2819" stop-color="#009FE3"/>
<stop offset="1" stop-color="white"/>
</linearGradient>
</defs>
</svg>
