<svg width="192" height="297" viewBox="0 0 192 297" fill="none" xmlns="http://www.w3.org/2000/svg">
<rect x="0.5" y="14.5" width="166" height="274" fill="white" stroke="#EFEFEF"/>
<rect x="5.5" y="18.5" width="166" height="274" fill="white" stroke="#EFEFEF"/>
<rect x="11.5" y="22.5" width="166" height="274" fill="white" stroke="#EFEFEF"/>
<circle cx="169.5" cy="22.5" r="22.5" fill="#DB2121"/>
<path d="M182.679 28.2553C181.721 26.5261 177.528 25.4248 173.825 25.216C173.49 24.8577 173.15 24.4808 172.802 24.0846C169.62 20.446 168.331 15.1583 167.85 12.3571C167.793 11.7635 167.73 11.2701 167.677 10.9025C167.634 10.61 167.544 10 166.909 10C166.706 10 166.51 10.0872 166.371 10.2424C166.145 10.5006 166.179 10.7781 166.219 11.0985C166.264 11.466 166.332 11.958 166.428 12.5194C166.699 15.3635 166.827 20.7785 164.638 25.0801C164.41 25.5285 164.183 25.959 163.957 26.3695C159.86 27.5609 156.555 29.6856 156.071 31.4477C155.896 32.0856 156.048 32.697 156.501 33.1704C157.028 33.7211 157.65 34 158.35 34C160.288 34 162.497 31.8417 164.916 27.5874C165.993 27.3042 167.062 27.1068 168.095 27.0024C168.498 26.9616 169.149 26.8765 169.55 26.815C170.653 26.6448 171.902 26.5762 173.185 26.6184C176.154 29.7049 178.582 31.2696 180.401 31.2696C181.378 31.2689 182.187 30.7926 182.677 29.9287C182.979 29.3938 182.981 28.7988 182.679 28.2553ZM158.349 32.5697C158.046 32.5697 157.787 32.4467 157.533 32.1814C157.43 32.0734 157.407 31.9805 157.45 31.8274C157.699 30.9199 159.796 29.3645 162.86 28.2353C161.129 30.9671 159.472 32.5697 158.349 32.5697ZM169.33 25.4033C168.95 25.462 168.332 25.5421 167.95 25.5821C167.256 25.6508 166.542 25.7602 165.822 25.9075C165.852 25.8489 165.882 25.7895 165.912 25.7302C166.985 23.6212 167.65 21.0925 167.896 18.194C168.881 20.9502 170.165 23.2429 171.725 25.0265C171.771 25.0794 171.819 25.133 171.865 25.1874C170.964 25.2088 170.115 25.2825 169.33 25.4033ZM181.43 29.2265C181.193 29.647 180.855 29.8422 180.371 29.8422H180.37C179.233 29.8422 177.485 28.7659 175.392 26.7921C178.631 27.199 181.003 28.1795 181.429 28.9483C181.49 29.0598 181.49 29.1192 181.43 29.2265Z" fill="white"/>
<path d="M55.0283 125.493V129H52.9775V119.047H56.8604C57.6077 119.047 58.264 119.184 58.8291 119.457C59.3988 119.73 59.8363 120.12 60.1416 120.626C60.4469 121.127 60.5996 121.699 60.5996 122.342C60.5996 123.317 60.2646 124.087 59.5947 124.652C58.9294 125.213 58.0065 125.493 56.8262 125.493H55.0283ZM55.0283 123.832H56.8604C57.4027 123.832 57.8151 123.704 58.0977 123.449C58.3848 123.194 58.5283 122.829 58.5283 122.355C58.5283 121.868 58.3848 121.474 58.0977 121.173C57.8105 120.872 57.4141 120.717 56.9082 120.708H55.0283V123.832ZM68.0029 124.687H64.0654V127.353H68.6865V129H62.0146V119.047H68.6729V120.708H64.0654V123.08H68.0029V124.687ZM73.1367 124.933H71.9541V129H69.9033V119.047H71.9541V123.032H72.8906L75.3242 119.047H77.8262L74.7568 123.757L78.1475 129H75.7002L73.1367 124.933ZM78.9404 129V119.047H82.4268C83.6344 119.047 84.5505 119.279 85.1748 119.744C85.7992 120.204 86.1113 120.881 86.1113 121.774C86.1113 122.262 85.986 122.693 85.7354 123.066C85.4847 123.436 85.1361 123.707 84.6895 123.88C85.1999 124.007 85.6009 124.265 85.8926 124.652C86.1888 125.04 86.3369 125.514 86.3369 126.074C86.3369 127.031 86.0316 127.756 85.4209 128.248C84.8102 128.74 83.9398 128.991 82.8096 129H78.9404ZM80.9912 124.666V127.353H82.748C83.2311 127.353 83.6071 127.239 83.876 127.011C84.1494 126.778 84.2861 126.459 84.2861 126.054C84.2861 125.142 83.8145 124.68 82.8711 124.666H80.9912ZM80.9912 123.217H82.5088C83.5433 123.199 84.0605 122.786 84.0605 121.979C84.0605 121.528 83.9284 121.205 83.6641 121.009C83.4043 120.808 82.9919 120.708 82.4268 120.708H80.9912V123.217ZM93.8496 119.047H95.9072V129H93.8496V122.39L89.8643 129H87.8135V119.047H89.8643V125.671L93.8496 119.047ZM102.593 121.788C102.593 121.41 102.445 121.114 102.148 120.899C101.852 120.681 101.46 120.571 100.973 120.571C100.535 120.571 100.171 120.681 99.8789 120.899C99.5918 121.114 99.4482 121.394 99.4482 121.74H97.3975C97.3975 121.202 97.5479 120.719 97.8486 120.291C98.154 119.858 98.5846 119.521 99.1406 119.279C99.7012 119.038 100.312 118.917 100.973 118.917C102.121 118.917 103.021 119.163 103.673 119.655C104.325 120.147 104.65 120.845 104.65 121.747C104.65 122.189 104.516 122.599 104.247 122.978C103.983 123.356 103.604 123.659 103.112 123.887C103.659 124.078 104.078 124.37 104.37 124.762C104.662 125.149 104.808 125.632 104.808 126.211C104.808 127.104 104.457 127.815 103.755 128.344C103.058 128.868 102.13 129.13 100.973 129.13C100.248 129.13 99.5964 129.007 99.0176 128.761C98.4388 128.51 97.999 128.171 97.6982 127.742C97.402 127.309 97.2539 126.808 97.2539 126.238H99.3184C99.3184 126.594 99.4733 126.892 99.7832 127.134C100.093 127.371 100.49 127.489 100.973 127.489C101.52 127.489 101.95 127.366 102.265 127.12C102.584 126.874 102.743 126.562 102.743 126.184C102.743 125.664 102.602 125.293 102.319 125.069C102.037 124.841 101.624 124.728 101.082 124.728H99.8584V123.121H101.123C102.103 123.107 102.593 122.663 102.593 121.788ZM112.293 119.047H114.351V129H112.293V122.39L108.308 129H106.257V119.047H108.308V125.671L112.293 119.047ZM123.415 120.708H120.366V129H118.315V120.708H115.308V119.047H123.415V120.708ZM126.676 122.636H128.275C129.447 122.636 130.374 122.921 131.058 123.49C131.746 124.055 132.09 124.819 132.09 125.78C132.09 126.746 131.748 127.523 131.064 128.111C130.385 128.695 129.481 128.991 128.351 129H124.611V119.047H126.676V122.636ZM134.995 129H132.944V119.047H134.995V129ZM126.676 124.29V127.353H128.31C128.834 127.353 129.251 127.209 129.561 126.922C129.875 126.635 130.032 126.25 130.032 125.767C130.032 125.315 129.882 124.96 129.581 124.7C129.285 124.436 128.877 124.299 128.357 124.29H126.676ZM40.3994 142.249C40.3994 143.229 40.2262 144.088 39.8799 144.826C39.5335 145.564 39.0368 146.134 38.3896 146.535C37.7471 146.936 37.0088 147.137 36.1748 147.137C35.3499 147.137 34.6139 146.938 33.9668 146.542C33.3197 146.146 32.8184 145.58 32.4629 144.847C32.1074 144.108 31.9274 143.261 31.9229 142.304V141.812C31.9229 140.832 32.0983 139.97 32.4492 139.228C32.8047 138.48 33.3037 137.908 33.9463 137.512C34.5934 137.111 35.3317 136.91 36.1611 136.91C36.9906 136.91 37.7266 137.111 38.3691 137.512C39.0163 137.908 39.5153 138.48 39.8662 139.228C40.2217 139.97 40.3994 140.829 40.3994 141.805V142.249ZM38.3213 141.798C38.3213 140.754 38.1344 139.961 37.7607 139.419C37.387 138.877 36.8538 138.605 36.1611 138.605C35.473 138.605 34.9421 138.874 34.5684 139.412C34.1947 139.945 34.0055 140.729 34.001 141.764V142.249C34.001 143.265 34.1878 144.054 34.5615 144.614C34.9352 145.175 35.473 145.455 36.1748 145.455C36.863 145.455 37.3916 145.186 37.7607 144.648C38.1299 144.106 38.3167 143.318 38.3213 142.283V141.798ZM50.0654 142.249C50.0654 143.229 49.8923 144.088 49.5459 144.826C49.1995 145.564 48.7028 146.134 48.0557 146.535C47.4131 146.936 46.6748 147.137 45.8408 147.137C45.016 147.137 44.2799 146.938 43.6328 146.542C42.9857 146.146 42.4844 145.58 42.1289 144.847C41.7734 144.108 41.5934 143.261 41.5889 142.304V141.812C41.5889 140.832 41.7643 139.97 42.1152 139.228C42.4707 138.48 42.9697 137.908 43.6123 137.512C44.2594 137.111 44.9977 136.91 45.8271 136.91C46.6566 136.91 47.3926 137.111 48.0352 137.512C48.6823 137.908 49.1813 138.48 49.5322 139.228C49.8877 139.97 50.0654 140.829 50.0654 141.805V142.249ZM47.9873 141.798C47.9873 140.754 47.8005 139.961 47.4268 139.419C47.0531 138.877 46.5199 138.605 45.8271 138.605C45.139 138.605 44.6081 138.874 44.2344 139.412C43.8607 139.945 43.6715 140.729 43.667 141.764V142.249C43.667 143.265 43.8538 144.054 44.2275 144.614C44.6012 145.175 45.139 145.455 45.8408 145.455C46.529 145.455 47.0576 145.186 47.4268 144.648C47.7959 144.106 47.9827 143.318 47.9873 142.283V141.798ZM59.7314 142.249C59.7314 143.229 59.5583 144.088 59.2119 144.826C58.8656 145.564 58.3688 146.134 57.7217 146.535C57.0791 146.936 56.3408 147.137 55.5068 147.137C54.682 147.137 53.946 146.938 53.2988 146.542C52.6517 146.146 52.1504 145.58 51.7949 144.847C51.4395 144.108 51.2594 143.261 51.2549 142.304V141.812C51.2549 140.832 51.4303 139.97 51.7812 139.228C52.1367 138.48 52.6357 137.908 53.2783 137.512C53.9255 137.111 54.6637 136.91 55.4932 136.91C56.3226 136.91 57.0586 137.111 57.7012 137.512C58.3483 137.908 58.8473 138.48 59.1982 139.228C59.5537 139.97 59.7314 140.829 59.7314 141.805V142.249ZM57.6533 141.798C57.6533 140.754 57.4665 139.961 57.0928 139.419C56.7191 138.877 56.1859 138.605 55.4932 138.605C54.805 138.605 54.2741 138.874 53.9004 139.412C53.5267 139.945 53.3376 140.729 53.333 141.764V142.249C53.333 143.265 53.5199 144.054 53.8936 144.614C54.2673 145.175 54.805 145.455 55.5068 145.455C56.195 145.455 56.7236 145.186 57.0928 144.648C57.4619 144.106 57.6488 143.318 57.6533 142.283V141.798ZM65.8291 136.268L66.7588 136.808C66.3669 137.427 66.1641 138.056 66.1504 138.694V139.836H64.585V138.811C64.585 138.382 64.7035 137.926 64.9404 137.443C65.182 136.956 65.4782 136.564 65.8291 136.268ZM68.1738 136.268L69.1035 136.808C68.7116 137.427 68.5088 138.056 68.4951 138.694V139.836H66.9297V138.811C66.9297 138.382 67.0482 137.926 67.2852 137.443C67.5267 136.956 67.8229 136.564 68.1738 136.268ZM70.3955 147V137.047H73.8818C75.0895 137.047 76.0055 137.279 76.6299 137.744C77.2542 138.204 77.5664 138.881 77.5664 139.774C77.5664 140.262 77.4411 140.693 77.1904 141.066C76.9398 141.436 76.5911 141.707 76.1445 141.88C76.6549 142.007 77.056 142.265 77.3477 142.652C77.6439 143.04 77.792 143.514 77.792 144.074C77.792 145.031 77.4867 145.756 76.876 146.248C76.2653 146.74 75.3949 146.991 74.2646 147H70.3955ZM72.4463 142.666V145.353H74.2031C74.6862 145.353 75.0622 145.239 75.3311 145.011C75.6045 144.778 75.7412 144.459 75.7412 144.054C75.7412 143.142 75.2695 142.68 74.3262 142.666H72.4463ZM72.4463 141.217H73.9639C74.9984 141.199 75.5156 140.786 75.5156 139.979C75.5156 139.528 75.3835 139.205 75.1191 139.009C74.8594 138.808 74.4469 138.708 73.8818 138.708H72.4463V141.217ZM87.1504 143.685C87.0729 144.756 86.6764 145.599 85.9609 146.214C85.25 146.829 84.3112 147.137 83.1445 147.137C81.8685 147.137 80.8636 146.708 80.1299 145.852C79.4007 144.99 79.0361 143.81 79.0361 142.311V141.702C79.0361 140.745 79.2048 139.902 79.542 139.173C79.8792 138.444 80.36 137.885 80.9844 137.498C81.6133 137.106 82.3424 136.91 83.1719 136.91C84.3203 136.91 85.2454 137.218 85.9473 137.833C86.6491 138.448 87.0547 139.312 87.1641 140.424H85.1133C85.0632 139.781 84.8831 139.316 84.5732 139.029C84.2679 138.738 83.8008 138.592 83.1719 138.592C82.4883 138.592 81.9756 138.838 81.6338 139.33C81.2965 139.818 81.1234 140.576 81.1143 141.606V142.358C81.1143 143.434 81.276 144.22 81.5996 144.717C81.9277 145.214 82.4427 145.462 83.1445 145.462C83.778 145.462 84.2497 145.318 84.5596 145.031C84.874 144.74 85.054 144.291 85.0996 143.685H87.1504ZM94.4854 142.687H90.5479V145.353H95.1689V147H88.4971V137.047H95.1553V138.708H90.5479V141.08H94.4854V142.687ZM104.466 137.047V147H102.408V138.708H99.7559L99.5918 142.222C99.5234 143.407 99.373 144.341 99.1406 145.024C98.9082 145.703 98.5687 146.202 98.1221 146.521C97.6755 146.836 97.0648 146.995 96.29 147H95.7568V145.353L96.0986 145.318C96.6136 145.25 96.9805 144.954 97.1992 144.43C97.4225 143.901 97.5638 142.962 97.623 141.613L97.7939 137.047H104.466ZM112.245 142.687H108.308V145.353H112.929V147H106.257V137.047H112.915V138.708H108.308V141.08H112.245V142.687ZM122.232 147H120.182V142.734H116.183V147H114.132V137.047H116.183V141.08H120.182V137.047H122.232V147ZM132.131 147H130.08V142.734H126.081V147H124.03V137.047H126.081V141.08H130.08V137.047H132.131V147ZM139.671 144.949H136.075L135.392 147H133.211L136.916 137.047H138.816L142.542 147H140.361L139.671 144.949ZM136.629 143.288H139.117L137.866 139.562L136.629 143.288ZM148.072 147V143.411H146.404L144.606 147H142.392L144.518 142.755C143.492 142.19 142.979 141.312 142.979 140.123C142.979 139.148 143.299 138.394 143.937 137.86C144.575 137.327 145.465 137.056 146.609 137.047H150.13V147H148.072ZM145.03 140.273C145.03 140.829 145.165 141.233 145.434 141.483C145.707 141.734 146.115 141.859 146.657 141.859H148.072V138.708H146.657C145.573 138.708 145.03 139.23 145.03 140.273ZM152.358 140.103L151.429 139.562C151.821 138.947 152.023 138.312 152.037 137.655V136.5H153.609V137.56C153.609 137.97 153.495 138.414 153.268 138.893C153.04 139.371 152.737 139.774 152.358 140.103ZM154.73 140.103L153.801 139.562C154.193 138.947 154.396 138.312 154.409 137.655V136.5H155.981V137.56C155.981 137.97 155.868 138.414 155.64 138.893C155.412 139.371 155.109 139.774 154.73 140.103Z" fill="black"/>
<path d="M60.0439 273.463C59.6956 273.886 59.2139 274.098 58.5986 274.098C58.0322 274.098 57.5993 273.935 57.2998 273.609C57.0036 273.284 56.8522 272.807 56.8457 272.179V268.717H58.2568V272.13C58.2568 272.68 58.5075 272.955 59.0088 272.955C59.4873 272.955 59.8161 272.789 59.9951 272.457V268.717H61.4111V274H60.083L60.0439 273.463ZM63.7744 268.717L63.8184 269.327C64.196 268.855 64.7021 268.619 65.3369 268.619C65.8968 268.619 66.3135 268.784 66.5869 269.112C66.8604 269.441 67.0003 269.933 67.0068 270.587V274H65.5957V270.621C65.5957 270.322 65.5306 270.105 65.4004 269.972C65.2702 269.835 65.0537 269.767 64.751 269.767C64.3538 269.767 64.056 269.936 63.8574 270.274V274H62.4463V268.717H63.7744ZM69.5703 274H68.1543V268.717H69.5703V274ZM68.0713 267.35C68.0713 267.138 68.1413 266.964 68.2812 266.827C68.4245 266.69 68.6182 266.622 68.8623 266.622C69.1032 266.622 69.2952 266.69 69.4385 266.827C69.5817 266.964 69.6533 267.138 69.6533 267.35C69.6533 267.564 69.5801 267.74 69.4336 267.877C69.2904 268.014 69.0999 268.082 68.8623 268.082C68.6247 268.082 68.4326 268.014 68.2861 267.877C68.1429 267.74 68.0713 267.564 68.0713 267.35ZM72.7148 272.276L73.6963 268.717H75.1709L73.3887 274H72.041L70.2588 268.717H71.7334L72.7148 272.276ZM78.1592 274.098C77.3844 274.098 76.7529 273.86 76.2646 273.385C75.7796 272.91 75.5371 272.276 75.5371 271.485V271.349C75.5371 270.818 75.6396 270.344 75.8447 269.928C76.0498 269.508 76.3395 269.186 76.7139 268.961C77.0915 268.733 77.5212 268.619 78.0029 268.619C78.7256 268.619 79.2936 268.847 79.707 269.303C80.1237 269.758 80.332 270.405 80.332 271.241V271.817H76.9678C77.0133 272.162 77.1501 272.439 77.3779 272.647C77.609 272.856 77.9004 272.96 78.252 272.96C78.7956 272.96 79.2204 272.763 79.5264 272.369L80.2197 273.146C80.0081 273.445 79.7217 273.679 79.3604 273.849C78.999 274.015 78.5986 274.098 78.1592 274.098ZM77.998 269.762C77.7181 269.762 77.4902 269.856 77.3145 270.045C77.1419 270.234 77.0312 270.504 76.9824 270.855H78.9453V270.743C78.9388 270.431 78.8542 270.19 78.6914 270.021C78.5286 269.848 78.2975 269.762 77.998 269.762ZM84.1064 270.04C83.9144 270.014 83.7451 270.001 83.5986 270.001C83.0648 270.001 82.7148 270.182 82.5488 270.543V274H81.1377V268.717H82.4707L82.5098 269.347C82.793 268.862 83.1852 268.619 83.6865 268.619C83.8428 268.619 83.9893 268.64 84.126 268.683L84.1064 270.04ZM87.6514 272.54C87.6514 272.368 87.5651 272.232 87.3926 272.135C87.2233 272.034 86.9499 271.944 86.5723 271.866C85.3158 271.603 84.6875 271.069 84.6875 270.265C84.6875 269.796 84.8812 269.405 85.2686 269.093C85.6592 268.777 86.1686 268.619 86.7969 268.619C87.4674 268.619 88.0029 268.777 88.4033 269.093C88.807 269.409 89.0088 269.819 89.0088 270.323H87.5977C87.5977 270.121 87.5326 269.955 87.4023 269.825C87.2721 269.692 87.0687 269.625 86.792 269.625C86.5544 269.625 86.3704 269.679 86.2402 269.786C86.11 269.894 86.0449 270.03 86.0449 270.196C86.0449 270.353 86.1182 270.479 86.2646 270.577C86.4144 270.672 86.665 270.755 87.0166 270.826C87.3682 270.895 87.6644 270.973 87.9053 271.061C88.6507 271.334 89.0234 271.808 89.0234 272.481C89.0234 272.963 88.8167 273.354 88.4033 273.653C87.9899 273.95 87.4561 274.098 86.8018 274.098C86.359 274.098 85.9652 274.02 85.6201 273.863C85.2783 273.704 85.0098 273.487 84.8145 273.214C84.6191 272.937 84.5215 272.639 84.5215 272.32H85.8594C85.8724 272.571 85.9652 272.763 86.1377 272.896C86.3102 273.03 86.5413 273.097 86.8311 273.097C87.1012 273.097 87.3047 273.046 87.4414 272.945C87.5814 272.841 87.6514 272.706 87.6514 272.54ZM92.3682 274.098C91.5934 274.098 90.9619 273.86 90.4736 273.385C89.9886 272.91 89.7461 272.276 89.7461 271.485V271.349C89.7461 270.818 89.8486 270.344 90.0537 269.928C90.2588 269.508 90.5485 269.186 90.9229 268.961C91.3005 268.733 91.7301 268.619 92.2119 268.619C92.9346 268.619 93.5026 268.847 93.916 269.303C94.3327 269.758 94.541 270.405 94.541 271.241V271.817H91.1768C91.2223 272.162 91.359 272.439 91.5869 272.647C91.818 272.856 92.1094 272.96 92.4609 272.96C93.0046 272.96 93.4294 272.763 93.7354 272.369L94.4287 273.146C94.2171 273.445 93.9307 273.679 93.5693 273.849C93.208 274.015 92.8076 274.098 92.3682 274.098ZM92.207 269.762C91.9271 269.762 91.6992 269.856 91.5234 270.045C91.3509 270.234 91.2402 270.504 91.1914 270.855H93.1543V270.743C93.1478 270.431 93.0632 270.19 92.9004 270.021C92.7376 269.848 92.5065 269.762 92.207 269.762ZM98.0908 271.524H95.3418V270.387H98.0908V271.524ZM101.421 272.96C101.681 272.96 101.893 272.888 102.056 272.745C102.218 272.602 102.303 272.411 102.31 272.174H103.633C103.63 272.532 103.532 272.861 103.34 273.16C103.148 273.456 102.884 273.688 102.549 273.854C102.217 274.016 101.849 274.098 101.445 274.098C100.69 274.098 100.094 273.858 99.6582 273.38C99.222 272.898 99.0039 272.234 99.0039 271.388V271.295C99.0039 270.481 99.2204 269.832 99.6533 269.347C100.086 268.862 100.68 268.619 101.436 268.619C102.096 268.619 102.625 268.808 103.022 269.186C103.423 269.56 103.626 270.06 103.633 270.685H102.31C102.303 270.411 102.218 270.19 102.056 270.021C101.893 269.848 101.678 269.762 101.411 269.762C101.082 269.762 100.833 269.882 100.664 270.123C100.498 270.361 100.415 270.748 100.415 271.285V271.432C100.415 271.975 100.498 272.366 100.664 272.604C100.83 272.841 101.082 272.96 101.421 272.96ZM106.87 274.098C106.095 274.098 105.464 273.86 104.976 273.385C104.491 272.91 104.248 272.276 104.248 271.485V271.349C104.248 270.818 104.351 270.344 104.556 269.928C104.761 269.508 105.05 269.186 105.425 268.961C105.802 268.733 106.232 268.619 106.714 268.619C107.437 268.619 108.005 268.847 108.418 269.303C108.835 269.758 109.043 270.405 109.043 271.241V271.817H105.679C105.724 272.162 105.861 272.439 106.089 272.647C106.32 272.856 106.611 272.96 106.963 272.96C107.507 272.96 107.931 272.763 108.237 272.369L108.931 273.146C108.719 273.445 108.433 273.679 108.071 273.849C107.71 274.015 107.31 274.098 106.87 274.098ZM106.709 269.762C106.429 269.762 106.201 269.856 106.025 270.045C105.853 270.234 105.742 270.504 105.693 270.855H107.656V270.743C107.65 270.431 107.565 270.19 107.402 270.021C107.24 269.848 107.008 269.762 106.709 269.762ZM111.147 268.717L111.191 269.327C111.569 268.855 112.075 268.619 112.71 268.619C113.27 268.619 113.687 268.784 113.96 269.112C114.233 269.441 114.373 269.933 114.38 270.587V274H112.969V270.621C112.969 270.322 112.904 270.105 112.773 269.972C112.643 269.835 112.427 269.767 112.124 269.767C111.727 269.767 111.429 269.936 111.23 270.274V274H109.819V268.717H111.147ZM117.144 267.418V268.717H118.047V269.752H117.144V272.389C117.144 272.584 117.181 272.724 117.256 272.809C117.331 272.893 117.474 272.936 117.686 272.936C117.842 272.936 117.98 272.924 118.101 272.901V273.971C117.824 274.055 117.539 274.098 117.246 274.098C116.257 274.098 115.752 273.598 115.732 272.599V269.752H114.961V268.717H115.732V267.418H117.144ZM121.265 274.098C120.49 274.098 119.858 273.86 119.37 273.385C118.885 272.91 118.643 272.276 118.643 271.485V271.349C118.643 270.818 118.745 270.344 118.95 269.928C119.155 269.508 119.445 269.186 119.819 268.961C120.197 268.733 120.627 268.619 121.108 268.619C121.831 268.619 122.399 268.847 122.812 269.303C123.229 269.758 123.438 270.405 123.438 271.241V271.817H120.073C120.119 272.162 120.256 272.439 120.483 272.647C120.715 272.856 121.006 272.96 121.357 272.96C121.901 272.96 122.326 272.763 122.632 272.369L123.325 273.146C123.114 273.445 122.827 273.679 122.466 273.849C122.104 274.015 121.704 274.098 121.265 274.098ZM121.104 269.762C120.824 269.762 120.596 269.856 120.42 270.045C120.247 270.234 120.137 270.504 120.088 270.855H122.051V270.743C122.044 270.431 121.96 270.19 121.797 270.021C121.634 269.848 121.403 269.762 121.104 269.762ZM127.212 270.04C127.02 270.014 126.851 270.001 126.704 270.001C126.17 270.001 125.82 270.182 125.654 270.543V274H124.243V268.717H125.576L125.615 269.347C125.898 268.862 126.291 268.619 126.792 268.619C126.948 268.619 127.095 268.64 127.231 268.683L127.212 270.04ZM127.119 273.307C127.119 273.082 127.194 272.9 127.344 272.76C127.497 272.62 127.687 272.55 127.915 272.55C128.146 272.55 128.337 272.62 128.486 272.76C128.639 272.9 128.716 273.082 128.716 273.307C128.716 273.528 128.641 273.709 128.491 273.849C128.341 273.985 128.149 274.054 127.915 274.054C127.684 274.054 127.493 273.985 127.344 273.849C127.194 273.709 127.119 273.528 127.119 273.307ZM132.925 270.04C132.733 270.014 132.563 270.001 132.417 270.001C131.883 270.001 131.533 270.182 131.367 270.543V274H129.956V268.717H131.289L131.328 269.347C131.611 268.862 132.004 268.619 132.505 268.619C132.661 268.619 132.808 268.64 132.944 268.683L132.925 270.04ZM136.772 273.463C136.424 273.886 135.942 274.098 135.327 274.098C134.761 274.098 134.328 273.935 134.028 273.609C133.732 273.284 133.581 272.807 133.574 272.179V268.717H134.985V272.13C134.985 272.68 135.236 272.955 135.737 272.955C136.216 272.955 136.545 272.789 136.724 272.457V268.717H138.14V274H136.812L136.772 273.463Z" fill="black"/>
</svg>
