<svg width="192" height="297" viewBox="0 0 192 297" fill="none" xmlns="http://www.w3.org/2000/svg">
<rect x="0.5" y="14.5" width="166" height="274" fill="white" stroke="#EFEFEF"/>
<rect x="5.5" y="18.5" width="166" height="274" fill="white" stroke="#EFEFEF"/>
<rect x="11.5" y="22.5" width="166" height="274" fill="white" stroke="#EFEFEF"/>
<path d="M50.8789 125.493V129H48.8281V119.047H52.7109C53.4583 119.047 54.1146 119.184 54.6797 119.457C55.2493 119.73 55.6868 120.12 55.9922 120.626C56.2975 121.127 56.4502 121.699 56.4502 122.342C56.4502 123.317 56.1152 124.087 55.4453 124.652C54.7799 125.213 53.8571 125.493 52.6768 125.493H50.8789ZM50.8789 123.832H52.7109C53.2533 123.832 53.6657 123.704 53.9482 123.449C54.2354 123.194 54.3789 122.829 54.3789 122.355C54.3789 121.868 54.2354 121.474 53.9482 121.173C53.6611 120.872 53.2646 120.717 52.7588 120.708H50.8789V123.832ZM62.2676 126.949H58.6719L57.9883 129H55.8076L59.5127 119.047H61.4131L65.1387 129H62.958L62.2676 126.949ZM59.2256 125.288H61.7139L60.4629 121.562L59.2256 125.288ZM73.7314 125.685C73.654 126.756 73.2575 127.599 72.542 128.214C71.8311 128.829 70.8923 129.137 69.7256 129.137C68.4495 129.137 67.4447 128.708 66.7109 127.852C65.9818 126.99 65.6172 125.81 65.6172 124.311V123.702C65.6172 122.745 65.7858 121.902 66.123 121.173C66.4603 120.444 66.9411 119.885 67.5654 119.498C68.1943 119.106 68.9235 118.91 69.7529 118.91C70.9014 118.91 71.8265 119.218 72.5283 119.833C73.2301 120.448 73.6357 121.312 73.7451 122.424H71.6943C71.6442 121.781 71.4642 121.316 71.1543 121.029C70.849 120.738 70.3818 120.592 69.7529 120.592C69.0693 120.592 68.5566 120.838 68.2148 121.33C67.8776 121.818 67.7044 122.576 67.6953 123.606V124.358C67.6953 125.434 67.8571 126.22 68.1807 126.717C68.5088 127.214 69.0238 127.462 69.7256 127.462C70.359 127.462 70.8307 127.318 71.1406 127.031C71.4551 126.74 71.6351 126.291 71.6807 125.685H73.7314ZM83.1855 129H81.1279V120.708H77.1426V129H75.0918V119.047H83.1855V129ZM90.958 119.047H93.0156V129H90.958V122.39L86.9727 129H84.9219V119.047H86.9727V125.671L90.958 119.047ZM102.606 125.685C102.529 126.756 102.132 127.599 101.417 128.214C100.706 128.829 99.7673 129.137 98.6006 129.137C97.3245 129.137 96.3197 128.708 95.5859 127.852C94.8568 126.99 94.4922 125.81 94.4922 124.311V123.702C94.4922 122.745 94.6608 121.902 94.998 121.173C95.3353 120.444 95.8161 119.885 96.4404 119.498C97.0693 119.106 97.7985 118.91 98.6279 118.91C99.7764 118.91 100.701 119.218 101.403 119.833C102.105 120.448 102.511 121.312 102.62 122.424H100.569C100.519 121.781 100.339 121.316 100.029 121.029C99.724 120.738 99.2568 120.592 98.6279 120.592C97.9443 120.592 97.4316 120.838 97.0898 121.33C96.7526 121.818 96.5794 122.576 96.5703 123.606V124.358C96.5703 125.434 96.7321 126.22 97.0557 126.717C97.3838 127.214 97.8988 127.462 98.6006 127.462C99.234 127.462 99.7057 127.318 100.016 127.031C100.33 126.74 100.51 126.291 100.556 125.685H102.606ZM109.572 126.949H105.977L105.293 129H103.112L106.817 119.047H108.718L112.443 129H110.263L109.572 126.949ZM106.53 125.288H109.019L107.768 121.562L106.53 125.288ZM121.474 129H119.423V124.734H115.424V129H113.373V119.047H115.424V123.08H119.423V119.047H121.474V129ZM129.239 119.047H131.297V129H129.239V122.39L125.254 129H123.203V119.047H125.254V125.671L129.239 119.047ZM139.062 124.687H135.125V127.353H139.746V129H133.074V119.047H139.732V120.708H135.125V123.08H139.062V124.687ZM40.3994 142.249C40.3994 143.229 40.2262 144.088 39.8799 144.826C39.5335 145.564 39.0368 146.134 38.3896 146.535C37.7471 146.936 37.0088 147.137 36.1748 147.137C35.3499 147.137 34.6139 146.938 33.9668 146.542C33.3197 146.146 32.8184 145.58 32.4629 144.847C32.1074 144.108 31.9274 143.261 31.9229 142.304V141.812C31.9229 140.832 32.0983 139.97 32.4492 139.228C32.8047 138.48 33.3037 137.908 33.9463 137.512C34.5934 137.111 35.3317 136.91 36.1611 136.91C36.9906 136.91 37.7266 137.111 38.3691 137.512C39.0163 137.908 39.5153 138.48 39.8662 139.228C40.2217 139.97 40.3994 140.829 40.3994 141.805V142.249ZM38.3213 141.798C38.3213 140.754 38.1344 139.961 37.7607 139.419C37.387 138.877 36.8538 138.605 36.1611 138.605C35.473 138.605 34.9421 138.874 34.5684 139.412C34.1947 139.945 34.0055 140.729 34.001 141.764V142.249C34.001 143.265 34.1878 144.054 34.5615 144.614C34.9352 145.175 35.473 145.455 36.1748 145.455C36.863 145.455 37.3916 145.186 37.7607 144.648C38.1299 144.106 38.3167 143.318 38.3213 142.283V141.798ZM50.0654 142.249C50.0654 143.229 49.8923 144.088 49.5459 144.826C49.1995 145.564 48.7028 146.134 48.0557 146.535C47.4131 146.936 46.6748 147.137 45.8408 147.137C45.016 147.137 44.2799 146.938 43.6328 146.542C42.9857 146.146 42.4844 145.58 42.1289 144.847C41.7734 144.108 41.5934 143.261 41.5889 142.304V141.812C41.5889 140.832 41.7643 139.97 42.1152 139.228C42.4707 138.48 42.9697 137.908 43.6123 137.512C44.2594 137.111 44.9977 136.91 45.8271 136.91C46.6566 136.91 47.3926 137.111 48.0352 137.512C48.6823 137.908 49.1813 138.48 49.5322 139.228C49.8877 139.97 50.0654 140.829 50.0654 141.805V142.249ZM47.9873 141.798C47.9873 140.754 47.8005 139.961 47.4268 139.419C47.0531 138.877 46.5199 138.605 45.8271 138.605C45.139 138.605 44.6081 138.874 44.2344 139.412C43.8607 139.945 43.6715 140.729 43.667 141.764V142.249C43.667 143.265 43.8538 144.054 44.2275 144.614C44.6012 145.175 45.139 145.455 45.8408 145.455C46.529 145.455 47.0576 145.186 47.4268 144.648C47.7959 144.106 47.9827 143.318 47.9873 142.283V141.798ZM59.7314 142.249C59.7314 143.229 59.5583 144.088 59.2119 144.826C58.8656 145.564 58.3688 146.134 57.7217 146.535C57.0791 146.936 56.3408 147.137 55.5068 147.137C54.682 147.137 53.946 146.938 53.2988 146.542C52.6517 146.146 52.1504 145.58 51.7949 144.847C51.4395 144.108 51.2594 143.261 51.2549 142.304V141.812C51.2549 140.832 51.4303 139.97 51.7812 139.228C52.1367 138.48 52.6357 137.908 53.2783 137.512C53.9255 137.111 54.6637 136.91 55.4932 136.91C56.3226 136.91 57.0586 137.111 57.7012 137.512C58.3483 137.908 58.8473 138.48 59.1982 139.228C59.5537 139.97 59.7314 140.829 59.7314 141.805V142.249ZM57.6533 141.798C57.6533 140.754 57.4665 139.961 57.0928 139.419C56.7191 138.877 56.1859 138.605 55.4932 138.605C54.805 138.605 54.2741 138.874 53.9004 139.412C53.5267 139.945 53.3376 140.729 53.333 141.764V142.249C53.333 143.265 53.5199 144.054 53.8936 144.614C54.2673 145.175 54.805 145.455 55.5068 145.455C56.195 145.455 56.7236 145.186 57.0928 144.648C57.4619 144.106 57.6488 143.318 57.6533 142.283V141.798ZM65.8291 136.268L66.7588 136.808C66.3669 137.427 66.1641 138.056 66.1504 138.694V139.836H64.585V138.811C64.585 138.382 64.7035 137.926 64.9404 137.443C65.182 136.956 65.4782 136.564 65.8291 136.268ZM68.1738 136.268L69.1035 136.808C68.7116 137.427 68.5088 138.056 68.4951 138.694V139.836H66.9297V138.811C66.9297 138.382 67.0482 137.926 67.2852 137.443C67.5267 136.956 67.8229 136.564 68.1738 136.268ZM70.3955 147V137.047H73.8818C75.0895 137.047 76.0055 137.279 76.6299 137.744C77.2542 138.204 77.5664 138.881 77.5664 139.774C77.5664 140.262 77.4411 140.693 77.1904 141.066C76.9398 141.436 76.5911 141.707 76.1445 141.88C76.6549 142.007 77.056 142.265 77.3477 142.652C77.6439 143.04 77.792 143.514 77.792 144.074C77.792 145.031 77.4867 145.756 76.876 146.248C76.2653 146.74 75.3949 146.991 74.2646 147H70.3955ZM72.4463 142.666V145.353H74.2031C74.6862 145.353 75.0622 145.239 75.3311 145.011C75.6045 144.778 75.7412 144.459 75.7412 144.054C75.7412 143.142 75.2695 142.68 74.3262 142.666H72.4463ZM72.4463 141.217H73.9639C74.9984 141.199 75.5156 140.786 75.5156 139.979C75.5156 139.528 75.3835 139.205 75.1191 139.009C74.8594 138.808 74.4469 138.708 73.8818 138.708H72.4463V141.217ZM87.1504 143.685C87.0729 144.756 86.6764 145.599 85.9609 146.214C85.25 146.829 84.3112 147.137 83.1445 147.137C81.8685 147.137 80.8636 146.708 80.1299 145.852C79.4007 144.99 79.0361 143.81 79.0361 142.311V141.702C79.0361 140.745 79.2048 139.902 79.542 139.173C79.8792 138.444 80.36 137.885 80.9844 137.498C81.6133 137.106 82.3424 136.91 83.1719 136.91C84.3203 136.91 85.2454 137.218 85.9473 137.833C86.6491 138.448 87.0547 139.312 87.1641 140.424H85.1133C85.0632 139.781 84.8831 139.316 84.5732 139.029C84.2679 138.738 83.8008 138.592 83.1719 138.592C82.4883 138.592 81.9756 138.838 81.6338 139.33C81.2965 139.818 81.1234 140.576 81.1143 141.606V142.358C81.1143 143.434 81.276 144.22 81.5996 144.717C81.9277 145.214 82.4427 145.462 83.1445 145.462C83.778 145.462 84.2497 145.318 84.5596 145.031C84.874 144.74 85.054 144.291 85.0996 143.685H87.1504ZM94.4854 142.687H90.5479V145.353H95.1689V147H88.4971V137.047H95.1553V138.708H90.5479V141.08H94.4854V142.687ZM104.466 137.047V147H102.408V138.708H99.7559L99.5918 142.222C99.5234 143.407 99.373 144.341 99.1406 145.024C98.9082 145.703 98.5687 146.202 98.1221 146.521C97.6755 146.836 97.0648 146.995 96.29 147H95.7568V145.353L96.0986 145.318C96.6136 145.25 96.9805 144.954 97.1992 144.43C97.4225 143.901 97.5638 142.962 97.623 141.613L97.7939 137.047H104.466ZM112.245 142.687H108.308V145.353H112.929V147H106.257V137.047H112.915V138.708H108.308V141.08H112.245V142.687ZM122.232 147H120.182V142.734H116.183V147H114.132V137.047H116.183V141.08H120.182V137.047H122.232V147ZM132.131 147H130.08V142.734H126.081V147H124.03V137.047H126.081V141.08H130.08V137.047H132.131V147ZM139.671 144.949H136.075L135.392 147H133.211L136.916 137.047H138.816L142.542 147H140.361L139.671 144.949ZM136.629 143.288H139.117L137.866 139.562L136.629 143.288ZM148.072 147V143.411H146.404L144.606 147H142.392L144.518 142.755C143.492 142.19 142.979 141.312 142.979 140.123C142.979 139.148 143.299 138.394 143.937 137.86C144.575 137.327 145.465 137.056 146.609 137.047H150.13V147H148.072ZM145.03 140.273C145.03 140.829 145.165 141.233 145.434 141.483C145.707 141.734 146.115 141.859 146.657 141.859H148.072V138.708H146.657C145.573 138.708 145.03 139.23 145.03 140.273ZM152.358 140.103L151.429 139.562C151.821 138.947 152.023 138.312 152.037 137.655V136.5H153.609V137.56C153.609 137.97 153.495 138.414 153.268 138.893C153.04 139.371 152.737 139.774 152.358 140.103ZM154.73 140.103L153.801 139.562C154.193 138.947 154.396 138.312 154.409 137.655V136.5H155.981V137.56C155.981 137.97 155.868 138.414 155.64 138.893C155.412 139.371 155.109 139.774 154.73 140.103Z" fill="black"/>
<path d="M60.0439 273.463C59.6956 273.886 59.2139 274.098 58.5986 274.098C58.0322 274.098 57.5993 273.935 57.2998 273.609C57.0036 273.284 56.8522 272.807 56.8457 272.179V268.717H58.2568V272.13C58.2568 272.68 58.5075 272.955 59.0088 272.955C59.4873 272.955 59.8161 272.789 59.9951 272.457V268.717H61.4111V274H60.083L60.0439 273.463ZM63.7744 268.717L63.8184 269.327C64.196 268.855 64.7021 268.619 65.3369 268.619C65.8968 268.619 66.3135 268.784 66.5869 269.112C66.8604 269.441 67.0003 269.933 67.0068 270.587V274H65.5957V270.621C65.5957 270.322 65.5306 270.105 65.4004 269.972C65.2702 269.835 65.0537 269.767 64.751 269.767C64.3538 269.767 64.056 269.936 63.8574 270.274V274H62.4463V268.717H63.7744ZM69.5703 274H68.1543V268.717H69.5703V274ZM68.0713 267.35C68.0713 267.138 68.1413 266.964 68.2812 266.827C68.4245 266.69 68.6182 266.622 68.8623 266.622C69.1032 266.622 69.2952 266.69 69.4385 266.827C69.5817 266.964 69.6533 267.138 69.6533 267.35C69.6533 267.564 69.5801 267.74 69.4336 267.877C69.2904 268.014 69.0999 268.082 68.8623 268.082C68.6247 268.082 68.4326 268.014 68.2861 267.877C68.1429 267.74 68.0713 267.564 68.0713 267.35ZM72.7148 272.276L73.6963 268.717H75.1709L73.3887 274H72.041L70.2588 268.717H71.7334L72.7148 272.276ZM78.1592 274.098C77.3844 274.098 76.7529 273.86 76.2646 273.385C75.7796 272.91 75.5371 272.276 75.5371 271.485V271.349C75.5371 270.818 75.6396 270.344 75.8447 269.928C76.0498 269.508 76.3395 269.186 76.7139 268.961C77.0915 268.733 77.5212 268.619 78.0029 268.619C78.7256 268.619 79.2936 268.847 79.707 269.303C80.1237 269.758 80.332 270.405 80.332 271.241V271.817H76.9678C77.0133 272.162 77.1501 272.439 77.3779 272.647C77.609 272.856 77.9004 272.96 78.252 272.96C78.7956 272.96 79.2204 272.763 79.5264 272.369L80.2197 273.146C80.0081 273.445 79.7217 273.679 79.3604 273.849C78.999 274.015 78.5986 274.098 78.1592 274.098ZM77.998 269.762C77.7181 269.762 77.4902 269.856 77.3145 270.045C77.1419 270.234 77.0312 270.504 76.9824 270.855H78.9453V270.743C78.9388 270.431 78.8542 270.19 78.6914 270.021C78.5286 269.848 78.2975 269.762 77.998 269.762ZM84.1064 270.04C83.9144 270.014 83.7451 270.001 83.5986 270.001C83.0648 270.001 82.7148 270.182 82.5488 270.543V274H81.1377V268.717H82.4707L82.5098 269.347C82.793 268.862 83.1852 268.619 83.6865 268.619C83.8428 268.619 83.9893 268.64 84.126 268.683L84.1064 270.04ZM87.6514 272.54C87.6514 272.368 87.5651 272.232 87.3926 272.135C87.2233 272.034 86.9499 271.944 86.5723 271.866C85.3158 271.603 84.6875 271.069 84.6875 270.265C84.6875 269.796 84.8812 269.405 85.2686 269.093C85.6592 268.777 86.1686 268.619 86.7969 268.619C87.4674 268.619 88.0029 268.777 88.4033 269.093C88.807 269.409 89.0088 269.819 89.0088 270.323H87.5977C87.5977 270.121 87.5326 269.955 87.4023 269.825C87.2721 269.692 87.0687 269.625 86.792 269.625C86.5544 269.625 86.3704 269.679 86.2402 269.786C86.11 269.894 86.0449 270.03 86.0449 270.196C86.0449 270.353 86.1182 270.479 86.2646 270.577C86.4144 270.672 86.665 270.755 87.0166 270.826C87.3682 270.895 87.6644 270.973 87.9053 271.061C88.6507 271.334 89.0234 271.808 89.0234 272.481C89.0234 272.963 88.8167 273.354 88.4033 273.653C87.9899 273.95 87.4561 274.098 86.8018 274.098C86.359 274.098 85.9652 274.02 85.6201 273.863C85.2783 273.704 85.0098 273.487 84.8145 273.214C84.6191 272.937 84.5215 272.639 84.5215 272.32H85.8594C85.8724 272.571 85.9652 272.763 86.1377 272.896C86.3102 273.03 86.5413 273.097 86.8311 273.097C87.1012 273.097 87.3047 273.046 87.4414 272.945C87.5814 272.841 87.6514 272.706 87.6514 272.54ZM92.3682 274.098C91.5934 274.098 90.9619 273.86 90.4736 273.385C89.9886 272.91 89.7461 272.276 89.7461 271.485V271.349C89.7461 270.818 89.8486 270.344 90.0537 269.928C90.2588 269.508 90.5485 269.186 90.9229 268.961C91.3005 268.733 91.7301 268.619 92.2119 268.619C92.9346 268.619 93.5026 268.847 93.916 269.303C94.3327 269.758 94.541 270.405 94.541 271.241V271.817H91.1768C91.2223 272.162 91.359 272.439 91.5869 272.647C91.818 272.856 92.1094 272.96 92.4609 272.96C93.0046 272.96 93.4294 272.763 93.7354 272.369L94.4287 273.146C94.2171 273.445 93.9307 273.679 93.5693 273.849C93.208 274.015 92.8076 274.098 92.3682 274.098ZM92.207 269.762C91.9271 269.762 91.6992 269.856 91.5234 270.045C91.3509 270.234 91.2402 270.504 91.1914 270.855H93.1543V270.743C93.1478 270.431 93.0632 270.19 92.9004 270.021C92.7376 269.848 92.5065 269.762 92.207 269.762ZM98.0908 271.524H95.3418V270.387H98.0908V271.524ZM101.421 272.96C101.681 272.96 101.893 272.888 102.056 272.745C102.218 272.602 102.303 272.411 102.31 272.174H103.633C103.63 272.532 103.532 272.861 103.34 273.16C103.148 273.456 102.884 273.688 102.549 273.854C102.217 274.016 101.849 274.098 101.445 274.098C100.69 274.098 100.094 273.858 99.6582 273.38C99.222 272.898 99.0039 272.234 99.0039 271.388V271.295C99.0039 270.481 99.2204 269.832 99.6533 269.347C100.086 268.862 100.68 268.619 101.436 268.619C102.096 268.619 102.625 268.808 103.022 269.186C103.423 269.56 103.626 270.06 103.633 270.685H102.31C102.303 270.411 102.218 270.19 102.056 270.021C101.893 269.848 101.678 269.762 101.411 269.762C101.082 269.762 100.833 269.882 100.664 270.123C100.498 270.361 100.415 270.748 100.415 271.285V271.432C100.415 271.975 100.498 272.366 100.664 272.604C100.83 272.841 101.082 272.96 101.421 272.96ZM106.87 274.098C106.095 274.098 105.464 273.86 104.976 273.385C104.491 272.91 104.248 272.276 104.248 271.485V271.349C104.248 270.818 104.351 270.344 104.556 269.928C104.761 269.508 105.05 269.186 105.425 268.961C105.802 268.733 106.232 268.619 106.714 268.619C107.437 268.619 108.005 268.847 108.418 269.303C108.835 269.758 109.043 270.405 109.043 271.241V271.817H105.679C105.724 272.162 105.861 272.439 106.089 272.647C106.32 272.856 106.611 272.96 106.963 272.96C107.507 272.96 107.931 272.763 108.237 272.369L108.931 273.146C108.719 273.445 108.433 273.679 108.071 273.849C107.71 274.015 107.31 274.098 106.87 274.098ZM106.709 269.762C106.429 269.762 106.201 269.856 106.025 270.045C105.853 270.234 105.742 270.504 105.693 270.855H107.656V270.743C107.65 270.431 107.565 270.19 107.402 270.021C107.24 269.848 107.008 269.762 106.709 269.762ZM111.147 268.717L111.191 269.327C111.569 268.855 112.075 268.619 112.71 268.619C113.27 268.619 113.687 268.784 113.96 269.112C114.233 269.441 114.373 269.933 114.38 270.587V274H112.969V270.621C112.969 270.322 112.904 270.105 112.773 269.972C112.643 269.835 112.427 269.767 112.124 269.767C111.727 269.767 111.429 269.936 111.23 270.274V274H109.819V268.717H111.147ZM117.144 267.418V268.717H118.047V269.752H117.144V272.389C117.144 272.584 117.181 272.724 117.256 272.809C117.331 272.893 117.474 272.936 117.686 272.936C117.842 272.936 117.98 272.924 118.101 272.901V273.971C117.824 274.055 117.539 274.098 117.246 274.098C116.257 274.098 115.752 273.598 115.732 272.599V269.752H114.961V268.717H115.732V267.418H117.144ZM121.265 274.098C120.49 274.098 119.858 273.86 119.37 273.385C118.885 272.91 118.643 272.276 118.643 271.485V271.349C118.643 270.818 118.745 270.344 118.95 269.928C119.155 269.508 119.445 269.186 119.819 268.961C120.197 268.733 120.627 268.619 121.108 268.619C121.831 268.619 122.399 268.847 122.812 269.303C123.229 269.758 123.438 270.405 123.438 271.241V271.817H120.073C120.119 272.162 120.256 272.439 120.483 272.647C120.715 272.856 121.006 272.96 121.357 272.96C121.901 272.96 122.326 272.763 122.632 272.369L123.325 273.146C123.114 273.445 122.827 273.679 122.466 273.849C122.104 274.015 121.704 274.098 121.265 274.098ZM121.104 269.762C120.824 269.762 120.596 269.856 120.42 270.045C120.247 270.234 120.137 270.504 120.088 270.855H122.051V270.743C122.044 270.431 121.96 270.19 121.797 270.021C121.634 269.848 121.403 269.762 121.104 269.762ZM127.212 270.04C127.02 270.014 126.851 270.001 126.704 270.001C126.17 270.001 125.82 270.182 125.654 270.543V274H124.243V268.717H125.576L125.615 269.347C125.898 268.862 126.291 268.619 126.792 268.619C126.948 268.619 127.095 268.64 127.231 268.683L127.212 270.04ZM127.119 273.307C127.119 273.082 127.194 272.9 127.344 272.76C127.497 272.62 127.687 272.55 127.915 272.55C128.146 272.55 128.337 272.62 128.486 272.76C128.639 272.9 128.716 273.082 128.716 273.307C128.716 273.528 128.641 273.709 128.491 273.849C128.341 273.985 128.149 274.054 127.915 274.054C127.684 274.054 127.493 273.985 127.344 273.849C127.194 273.709 127.119 273.528 127.119 273.307ZM132.925 270.04C132.733 270.014 132.563 270.001 132.417 270.001C131.883 270.001 131.533 270.182 131.367 270.543V274H129.956V268.717H131.289L131.328 269.347C131.611 268.862 132.004 268.619 132.505 268.619C132.661 268.619 132.808 268.64 132.944 268.683L132.925 270.04ZM136.772 273.463C136.424 273.886 135.942 274.098 135.327 274.098C134.761 274.098 134.328 273.935 134.028 273.609C133.732 273.284 133.581 272.807 133.574 272.179V268.717H134.985V272.13C134.985 272.68 135.236 272.955 135.737 272.955C136.216 272.955 136.545 272.789 136.724 272.457V268.717H138.14V274H136.812L136.772 273.463Z" fill="black"/>
<path d="M190.406 41.4397H168.094C167.214 41.4397 166.5 40.7257 166.5 39.8459C166.5 38.9662 166.5 8.8507 166.5 7.97095C166.5 7.0912 167.214 6.3772 168.094 6.3772H190.406C191.286 6.3772 192 7.0912 192 7.97095V39.8459C192 40.7257 191.286 41.4397 190.406 41.4397Z" fill="#ECEFF1"/>
<path d="M174.469 15.9397H168.094C167.214 15.9397 166.5 15.2257 166.5 14.3459C166.5 13.4662 167.214 12.7522 168.094 12.7522H174.469C175.348 12.7522 176.062 13.4662 176.062 14.3459C176.062 15.2257 175.348 15.9397 174.469 15.9397Z" fill="#388E3C"/>
<path d="M174.469 22.3147H168.094C167.214 22.3147 166.5 21.6007 166.5 20.7209C166.5 19.8412 167.214 19.1272 168.094 19.1272H174.469C175.348 19.1272 176.062 19.8412 176.062 20.7209C176.062 21.6007 175.348 22.3147 174.469 22.3147Z" fill="#388E3C"/>
<path d="M174.469 28.6897H168.094C167.214 28.6897 166.5 27.9757 166.5 27.0959C166.5 26.2162 167.214 25.5022 168.094 25.5022H174.469C175.348 25.5022 176.062 26.2162 176.062 27.0959C176.062 27.9757 175.348 28.6897 174.469 28.6897Z" fill="#388E3C"/>
<path d="M174.469 35.0647H168.094C167.214 35.0647 166.5 34.3507 166.5 33.4709C166.5 32.5912 167.214 31.8772 168.094 31.8772H174.469C175.348 31.8772 176.062 32.5912 176.062 33.4709C176.062 34.3507 175.348 35.0647 174.469 35.0647Z" fill="#388E3C"/>
<path d="M184.031 15.9397H180.844C179.964 15.9397 179.25 15.2257 179.25 14.3459C179.25 13.4662 179.964 12.7522 180.844 12.7522H184.031C184.911 12.7522 185.625 13.4662 185.625 14.3459C185.625 15.2257 184.911 15.9397 184.031 15.9397Z" fill="#388E3C"/>
<path d="M184.031 22.3147H180.844C179.964 22.3147 179.25 21.6007 179.25 20.7209C179.25 19.8412 179.964 19.1272 180.844 19.1272H184.031C184.911 19.1272 185.625 19.8412 185.625 20.7209C185.625 21.6007 184.911 22.3147 184.031 22.3147Z" fill="#388E3C"/>
<path d="M184.031 28.6897H180.844C179.964 28.6897 179.25 27.9757 179.25 27.0959C179.25 26.2162 179.964 25.5022 180.844 25.5022H184.031C184.911 25.5022 185.625 26.2162 185.625 27.0959C185.625 27.9757 184.911 28.6897 184.031 28.6897Z" fill="#388E3C"/>
<path d="M184.031 35.0647H180.844C179.964 35.0647 179.25 34.3507 179.25 33.4709C179.25 32.5912 179.964 31.8772 180.844 31.8772H184.031C184.911 31.8772 185.625 32.5912 185.625 33.4709C185.625 34.3507 184.911 35.0647 184.031 35.0647Z" fill="#388E3C"/>
<path d="M169.111 0.36871C168.747 0.0658976 168.259 -0.0647899 167.8 0.0308351L142.3 4.81208C141.545 4.95233 141 5.60896 141 6.37715V41.4396C141 42.2046 141.545 42.8645 142.3 43.0047L167.8 47.786C167.896 47.8051 167.995 47.8146 168.094 47.8146C168.463 47.8146 168.824 47.6871 169.111 47.4481C169.477 47.1453 169.688 46.6926 169.688 46.2209V1.5959C169.688 1.12096 169.477 0.671523 169.111 0.36871Z" fill="#2E7D32"/>
<path d="M162.917 29.2347L157.878 23.4749L162.975 16.9214C163.517 16.2265 163.389 15.2256 162.697 14.6837C162.006 14.1419 161.005 14.2694 160.46 14.9611L155.739 21.0301L151.761 16.4847C151.178 15.8153 150.171 15.7547 149.514 16.3349C148.851 16.915 148.784 17.9222 149.364 18.5821L153.747 23.5928L149.304 29.3048C148.762 29.9997 148.889 31.0006 149.581 31.5424C149.874 31.7687 150.222 31.8771 150.563 31.8771C151.038 31.8771 151.506 31.6667 151.822 31.2619L155.886 26.0344L160.52 31.3289C160.836 31.6922 161.276 31.8771 161.719 31.8771C162.092 31.8771 162.465 31.7464 162.768 31.4819C163.431 30.9017 163.498 29.8945 162.917 29.2347Z" fill="#FAFAFA"/>
</svg>
