<svg width="192" height="297" viewBox="0 0 192 297" fill="none" xmlns="http://www.w3.org/2000/svg">
<rect x="0.5" y="14.5" width="166" height="274" fill="white" stroke="#EFEFEF"/>
<rect x="5.5" y="18.5" width="166" height="274" fill="white" stroke="#EFEFEF"/>
<rect x="11.5" y="22.5" width="166" height="274" fill="white" stroke="#EFEFEF"/>
<circle cx="169.5" cy="22.5" r="22.5" fill="#DB2121"/>
<path d="M182.679 28.2553C181.721 26.5261 177.528 25.4248 173.825 25.216C173.49 24.8577 173.15 24.4808 172.802 24.0846C169.62 20.446 168.331 15.1583 167.85 12.3571C167.793 11.7635 167.73 11.2701 167.677 10.9025C167.634 10.61 167.544 10 166.909 10C166.706 10 166.51 10.0872 166.371 10.2424C166.145 10.5006 166.179 10.7781 166.219 11.0985C166.264 11.466 166.332 11.958 166.428 12.5194C166.699 15.3635 166.827 20.7785 164.638 25.0801C164.41 25.5285 164.183 25.959 163.957 26.3695C159.86 27.5609 156.555 29.6856 156.071 31.4477C155.896 32.0856 156.048 32.697 156.501 33.1704C157.028 33.7211 157.65 34 158.35 34C160.288 34 162.497 31.8417 164.916 27.5874C165.993 27.3042 167.062 27.1068 168.095 27.0024C168.498 26.9616 169.149 26.8765 169.55 26.815C170.653 26.6448 171.902 26.5762 173.185 26.6184C176.154 29.7049 178.582 31.2696 180.401 31.2696C181.378 31.2689 182.187 30.7926 182.677 29.9287C182.979 29.3938 182.981 28.7988 182.679 28.2553ZM158.349 32.5697C158.046 32.5697 157.787 32.4467 157.533 32.1814C157.43 32.0734 157.407 31.9805 157.45 31.8274C157.699 30.9199 159.796 29.3645 162.86 28.2353C161.129 30.9671 159.472 32.5697 158.349 32.5697ZM169.33 25.4033C168.95 25.462 168.332 25.5421 167.95 25.5821C167.256 25.6508 166.542 25.7602 165.822 25.9075C165.852 25.8489 165.882 25.7895 165.912 25.7302C166.985 23.6212 167.65 21.0925 167.896 18.194C168.881 20.9502 170.165 23.2429 171.725 25.0265C171.771 25.0794 171.819 25.133 171.865 25.1874C170.964 25.2088 170.115 25.2825 169.33 25.4033ZM181.43 29.2265C181.193 29.647 180.855 29.8422 180.371 29.8422H180.37C179.233 29.8422 177.485 28.7659 175.392 26.7921C178.631 27.199 181.003 28.1795 181.429 28.9483C181.49 29.0598 181.49 29.1192 181.43 29.2265Z" fill="white"/>
<path d="M55.1172 125.685C55.0397 126.756 54.6432 127.599 53.9277 128.214C53.2168 128.829 52.278 129.137 51.1113 129.137C49.8353 129.137 48.8304 128.708 48.0967 127.852C47.3675 126.99 47.0029 125.81 47.0029 124.311V123.702C47.0029 122.745 47.1715 121.902 47.5088 121.173C47.846 120.444 48.3268 119.885 48.9512 119.498C49.5801 119.106 50.3092 118.91 51.1387 118.91C52.2871 118.91 53.2122 119.218 53.9141 119.833C54.6159 120.448 55.0215 121.312 55.1309 122.424H53.0801C53.0299 121.781 52.8499 121.316 52.54 121.029C52.2347 120.738 51.7676 120.592 51.1387 120.592C50.4551 120.592 49.9424 120.838 49.6006 121.33C49.2633 121.818 49.0902 122.576 49.0811 123.606V124.358C49.0811 125.434 49.2428 126.22 49.5664 126.717C49.8945 127.214 50.4095 127.462 51.1113 127.462C51.7448 127.462 52.2165 127.318 52.5264 127.031C52.8408 126.74 53.0208 126.291 53.0664 125.685H55.1172ZM64.5713 129H62.5137V120.708H58.5283V129H56.4775V119.047H64.5713V129ZM74.5518 124.249C74.5518 125.229 74.3786 126.088 74.0322 126.826C73.6859 127.564 73.1891 128.134 72.542 128.535C71.8994 128.936 71.1611 129.137 70.3271 129.137C69.5023 129.137 68.7663 128.938 68.1191 128.542C67.472 128.146 66.9707 127.58 66.6152 126.847C66.2598 126.108 66.0798 125.261 66.0752 124.304V123.812C66.0752 122.832 66.2507 121.97 66.6016 121.228C66.957 120.48 67.4561 119.908 68.0986 119.512C68.7458 119.111 69.484 118.91 70.3135 118.91C71.1429 118.91 71.8789 119.111 72.5215 119.512C73.1686 119.908 73.6676 120.48 74.0186 121.228C74.374 121.97 74.5518 122.829 74.5518 123.805V124.249ZM72.4736 123.798C72.4736 122.754 72.2868 121.961 71.9131 121.419C71.5394 120.877 71.0062 120.605 70.3135 120.605C69.6253 120.605 69.0944 120.874 68.7207 121.412C68.347 121.945 68.1579 122.729 68.1533 123.764V124.249C68.1533 125.265 68.3402 126.054 68.7139 126.614C69.0876 127.175 69.6253 127.455 70.3271 127.455C71.0153 127.455 71.5439 127.186 71.9131 126.648C72.2822 126.106 72.4691 125.318 72.4736 124.283V123.798ZM78.0928 125.493V129H76.042V119.047H79.9248C80.6722 119.047 81.3285 119.184 81.8936 119.457C82.4632 119.73 82.9007 120.12 83.2061 120.626C83.5114 121.127 83.6641 121.699 83.6641 122.342C83.6641 123.317 83.3291 124.087 82.6592 124.652C81.9938 125.213 81.071 125.493 79.8906 125.493H78.0928ZM78.0928 123.832H79.9248C80.4671 123.832 80.8796 123.704 81.1621 123.449C81.4492 123.194 81.5928 122.829 81.5928 122.355C81.5928 121.868 81.4492 121.474 81.1621 121.173C80.875 120.872 80.4785 120.717 79.9727 120.708H78.0928V123.832ZM92.5713 120.708H89.5225V129H87.4717V120.708H84.4639V119.047H92.5713V120.708ZM99.7148 119.047H101.772V129H99.7148V122.39L95.7295 129H93.6787V119.047H95.7295V125.671L99.7148 119.047ZM103.55 129V119.047H107.036C108.244 119.047 109.16 119.279 109.784 119.744C110.409 120.204 110.721 120.881 110.721 121.774C110.721 122.262 110.595 122.693 110.345 123.066C110.094 123.436 109.745 123.707 109.299 123.88C109.809 124.007 110.21 124.265 110.502 124.652C110.798 125.04 110.946 125.514 110.946 126.074C110.946 127.031 110.641 127.756 110.03 128.248C109.42 128.74 108.549 128.991 107.419 129H103.55ZM105.601 124.666V127.353H107.357C107.84 127.353 108.216 127.239 108.485 127.011C108.759 126.778 108.896 126.459 108.896 126.054C108.896 125.142 108.424 124.68 107.48 124.666H105.601ZM105.601 123.217H107.118C108.153 123.199 108.67 122.786 108.67 121.979C108.67 121.528 108.538 121.205 108.273 121.009C108.014 120.808 107.601 120.708 107.036 120.708H105.601V123.217ZM120.592 129H118.541V124.734H114.542V129H112.491V119.047H114.542V123.08H118.541V119.047H120.592V129ZM124.475 122.636H126.074C127.245 122.636 128.173 122.921 128.856 123.49C129.545 124.055 129.889 124.819 129.889 125.78C129.889 126.746 129.547 127.523 128.863 128.111C128.184 128.695 127.28 128.991 126.149 129H122.41V119.047H124.475V122.636ZM132.794 129H130.743V119.047H132.794V129ZM124.475 124.29V127.353H126.108C126.632 127.353 127.049 127.209 127.359 126.922C127.674 126.635 127.831 126.25 127.831 125.767C127.831 125.315 127.681 124.96 127.38 124.7C127.084 124.436 126.676 124.299 126.156 124.29H124.475ZM140.587 124.687H136.649V127.353H141.271V129H134.599V119.047H141.257V120.708H136.649V123.08H140.587V124.687ZM74.5449 143.685C74.4674 144.756 74.071 145.599 73.3555 146.214C72.6445 146.829 71.7057 147.137 70.5391 147.137C69.263 147.137 68.2581 146.708 67.5244 145.852C66.7952 144.99 66.4307 143.81 66.4307 142.311V141.702C66.4307 140.745 66.5993 139.902 66.9365 139.173C67.2738 138.444 67.7546 137.885 68.3789 137.498C69.0078 137.106 69.737 136.91 70.5664 136.91C71.7148 136.91 72.64 137.218 73.3418 137.833C74.0436 138.448 74.4492 139.312 74.5586 140.424H72.5078C72.4577 139.781 72.2777 139.316 71.9678 139.029C71.6624 138.738 71.1953 138.592 70.5664 138.592C69.8828 138.592 69.3701 138.838 69.0283 139.33C68.6911 139.818 68.5179 140.576 68.5088 141.606V142.358C68.5088 143.434 68.6706 144.22 68.9941 144.717C69.3223 145.214 69.8372 145.462 70.5391 145.462C71.1725 145.462 71.6442 145.318 71.9541 145.031C72.2686 144.74 72.4486 144.291 72.4941 143.685H74.5449ZM81.8799 142.687H77.9424V145.353H82.5635V147H75.8916V137.047H82.5498V138.708H77.9424V141.08H81.8799V142.687ZM87.0137 142.933H85.8311V147H83.7803V137.047H85.8311V141.032H86.7676L89.2012 137.047H91.7031L88.6338 141.757L92.0244 147H89.5771L87.0137 142.933ZM92.7285 137.047H94.7793V145.353H98.7646V137.047H100.822V145.353H102.183L102.046 149.399H100.132V147H92.7285V137.047ZM109.408 137.047H111.466V147H109.408V140.39L105.423 147H103.372V137.047H105.423V143.671L109.408 137.047ZM119.211 137.047H121.269V147H119.211V140.39L115.226 147H113.175V137.047H115.226V143.671L119.211 137.047ZM40.3994 160.249C40.3994 161.229 40.2262 162.088 39.8799 162.826C39.5335 163.564 39.0368 164.134 38.3896 164.535C37.7471 164.936 37.0088 165.137 36.1748 165.137C35.3499 165.137 34.6139 164.938 33.9668 164.542C33.3197 164.146 32.8184 163.58 32.4629 162.847C32.1074 162.108 31.9274 161.261 31.9229 160.304V159.812C31.9229 158.832 32.0983 157.97 32.4492 157.228C32.8047 156.48 33.3037 155.908 33.9463 155.512C34.5934 155.111 35.3317 154.91 36.1611 154.91C36.9906 154.91 37.7266 155.111 38.3691 155.512C39.0163 155.908 39.5153 156.48 39.8662 157.228C40.2217 157.97 40.3994 158.829 40.3994 159.805V160.249ZM38.3213 159.798C38.3213 158.754 38.1344 157.961 37.7607 157.419C37.387 156.877 36.8538 156.605 36.1611 156.605C35.473 156.605 34.9421 156.874 34.5684 157.412C34.1947 157.945 34.0055 158.729 34.001 159.764V160.249C34.001 161.265 34.1878 162.054 34.5615 162.614C34.9352 163.175 35.473 163.455 36.1748 163.455C36.863 163.455 37.3916 163.186 37.7607 162.648C38.1299 162.106 38.3167 161.318 38.3213 160.283V159.798ZM50.0654 160.249C50.0654 161.229 49.8923 162.088 49.5459 162.826C49.1995 163.564 48.7028 164.134 48.0557 164.535C47.4131 164.936 46.6748 165.137 45.8408 165.137C45.016 165.137 44.2799 164.938 43.6328 164.542C42.9857 164.146 42.4844 163.58 42.1289 162.847C41.7734 162.108 41.5934 161.261 41.5889 160.304V159.812C41.5889 158.832 41.7643 157.97 42.1152 157.228C42.4707 156.48 42.9697 155.908 43.6123 155.512C44.2594 155.111 44.9977 154.91 45.8271 154.91C46.6566 154.91 47.3926 155.111 48.0352 155.512C48.6823 155.908 49.1813 156.48 49.5322 157.228C49.8877 157.97 50.0654 158.829 50.0654 159.805V160.249ZM47.9873 159.798C47.9873 158.754 47.8005 157.961 47.4268 157.419C47.0531 156.877 46.5199 156.605 45.8271 156.605C45.139 156.605 44.6081 156.874 44.2344 157.412C43.8607 157.945 43.6715 158.729 43.667 159.764V160.249C43.667 161.265 43.8538 162.054 44.2275 162.614C44.6012 163.175 45.139 163.455 45.8408 163.455C46.529 163.455 47.0576 163.186 47.4268 162.648C47.7959 162.106 47.9827 161.318 47.9873 160.283V159.798ZM59.7314 160.249C59.7314 161.229 59.5583 162.088 59.2119 162.826C58.8656 163.564 58.3688 164.134 57.7217 164.535C57.0791 164.936 56.3408 165.137 55.5068 165.137C54.682 165.137 53.946 164.938 53.2988 164.542C52.6517 164.146 52.1504 163.58 51.7949 162.847C51.4395 162.108 51.2594 161.261 51.2549 160.304V159.812C51.2549 158.832 51.4303 157.97 51.7812 157.228C52.1367 156.48 52.6357 155.908 53.2783 155.512C53.9255 155.111 54.6637 154.91 55.4932 154.91C56.3226 154.91 57.0586 155.111 57.7012 155.512C58.3483 155.908 58.8473 156.48 59.1982 157.228C59.5537 157.97 59.7314 158.829 59.7314 159.805V160.249ZM57.6533 159.798C57.6533 158.754 57.4665 157.961 57.0928 157.419C56.7191 156.877 56.1859 156.605 55.4932 156.605C54.805 156.605 54.2741 156.874 53.9004 157.412C53.5267 157.945 53.3376 158.729 53.333 159.764V160.249C53.333 161.265 53.5199 162.054 53.8936 162.614C54.2673 163.175 54.805 163.455 55.5068 163.455C56.195 163.455 56.7236 163.186 57.0928 162.648C57.4619 162.106 57.6488 161.318 57.6533 160.283V159.798ZM65.8291 154.268L66.7588 154.808C66.3669 155.427 66.1641 156.056 66.1504 156.694V157.836H64.585V156.811C64.585 156.382 64.7035 155.926 64.9404 155.443C65.182 154.956 65.4782 154.564 65.8291 154.268ZM68.1738 154.268L69.1035 154.808C68.7116 155.427 68.5088 156.056 68.4951 156.694V157.836H66.9297V156.811C66.9297 156.382 67.0482 155.926 67.2852 155.443C67.5267 154.956 67.8229 154.564 68.1738 154.268ZM70.3955 165V155.047H73.8818C75.0895 155.047 76.0055 155.279 76.6299 155.744C77.2542 156.204 77.5664 156.881 77.5664 157.774C77.5664 158.262 77.4411 158.693 77.1904 159.066C76.9398 159.436 76.5911 159.707 76.1445 159.88C76.6549 160.007 77.056 160.265 77.3477 160.652C77.6439 161.04 77.792 161.514 77.792 162.074C77.792 163.031 77.4867 163.756 76.876 164.248C76.2653 164.74 75.3949 164.991 74.2646 165H70.3955ZM72.4463 160.666V163.353H74.2031C74.6862 163.353 75.0622 163.239 75.3311 163.011C75.6045 162.778 75.7412 162.459 75.7412 162.054C75.7412 161.142 75.2695 160.68 74.3262 160.666H72.4463ZM72.4463 159.217H73.9639C74.9984 159.199 75.5156 158.786 75.5156 157.979C75.5156 157.528 75.3835 157.205 75.1191 157.009C74.8594 156.808 74.4469 156.708 73.8818 156.708H72.4463V159.217ZM87.1504 161.685C87.0729 162.756 86.6764 163.599 85.9609 164.214C85.25 164.829 84.3112 165.137 83.1445 165.137C81.8685 165.137 80.8636 164.708 80.1299 163.852C79.4007 162.99 79.0361 161.81 79.0361 160.311V159.702C79.0361 158.745 79.2048 157.902 79.542 157.173C79.8792 156.444 80.36 155.885 80.9844 155.498C81.6133 155.106 82.3424 154.91 83.1719 154.91C84.3203 154.91 85.2454 155.218 85.9473 155.833C86.6491 156.448 87.0547 157.312 87.1641 158.424H85.1133C85.0632 157.781 84.8831 157.316 84.5732 157.029C84.2679 156.738 83.8008 156.592 83.1719 156.592C82.4883 156.592 81.9756 156.838 81.6338 157.33C81.2965 157.818 81.1234 158.576 81.1143 159.606V160.358C81.1143 161.434 81.276 162.22 81.5996 162.717C81.9277 163.214 82.4427 163.462 83.1445 163.462C83.778 163.462 84.2497 163.318 84.5596 163.031C84.874 162.74 85.054 162.291 85.0996 161.685H87.1504ZM94.4854 160.687H90.5479V163.353H95.1689V165H88.4971V155.047H95.1553V156.708H90.5479V159.08H94.4854V160.687ZM104.466 155.047V165H102.408V156.708H99.7559L99.5918 160.222C99.5234 161.407 99.373 162.341 99.1406 163.024C98.9082 163.703 98.5687 164.202 98.1221 164.521C97.6755 164.836 97.0648 164.995 96.29 165H95.7568V163.353L96.0986 163.318C96.6136 163.25 96.9805 162.954 97.1992 162.43C97.4225 161.901 97.5638 160.962 97.623 159.613L97.7939 155.047H104.466ZM112.245 160.687H108.308V163.353H112.929V165H106.257V155.047H112.915V156.708H108.308V159.08H112.245V160.687ZM122.232 165H120.182V160.734H116.183V165H114.132V155.047H116.183V159.08H120.182V155.047H122.232V165ZM132.131 165H130.08V160.734H126.081V165H124.03V155.047H126.081V159.08H130.08V155.047H132.131V165ZM139.671 162.949H136.075L135.392 165H133.211L136.916 155.047H138.816L142.542 165H140.361L139.671 162.949ZM136.629 161.288H139.117L137.866 157.562L136.629 161.288ZM148.072 165V161.411H146.404L144.606 165H142.392L144.518 160.755C143.492 160.19 142.979 159.312 142.979 158.123C142.979 157.148 143.299 156.394 143.937 155.86C144.575 155.327 145.465 155.056 146.609 155.047H150.13V165H148.072ZM145.03 158.273C145.03 158.829 145.165 159.233 145.434 159.483C145.707 159.734 146.115 159.859 146.657 159.859H148.072V156.708H146.657C145.573 156.708 145.03 157.23 145.03 158.273ZM152.358 158.103L151.429 157.562C151.821 156.947 152.023 156.312 152.037 155.655V154.5H153.609V155.56C153.609 155.97 153.495 156.414 153.268 156.893C153.04 157.371 152.737 157.774 152.358 158.103ZM154.73 158.103L153.801 157.562C154.193 156.947 154.396 156.312 154.409 155.655V154.5H155.981V155.56C155.981 155.97 155.868 156.414 155.64 156.893C155.412 157.371 155.109 157.774 154.73 158.103Z" fill="black"/>
<path d="M60.0439 273.463C59.6956 273.886 59.2139 274.098 58.5986 274.098C58.0322 274.098 57.5993 273.935 57.2998 273.609C57.0036 273.284 56.8522 272.807 56.8457 272.179V268.717H58.2568V272.13C58.2568 272.68 58.5075 272.955 59.0088 272.955C59.4873 272.955 59.8161 272.789 59.9951 272.457V268.717H61.4111V274H60.083L60.0439 273.463ZM63.7744 268.717L63.8184 269.327C64.196 268.855 64.7021 268.619 65.3369 268.619C65.8968 268.619 66.3135 268.784 66.5869 269.112C66.8604 269.441 67.0003 269.933 67.0068 270.587V274H65.5957V270.621C65.5957 270.322 65.5306 270.105 65.4004 269.972C65.2702 269.835 65.0537 269.767 64.751 269.767C64.3538 269.767 64.056 269.936 63.8574 270.274V274H62.4463V268.717H63.7744ZM69.5703 274H68.1543V268.717H69.5703V274ZM68.0713 267.35C68.0713 267.138 68.1413 266.964 68.2812 266.827C68.4245 266.69 68.6182 266.622 68.8623 266.622C69.1032 266.622 69.2952 266.69 69.4385 266.827C69.5817 266.964 69.6533 267.138 69.6533 267.35C69.6533 267.564 69.5801 267.74 69.4336 267.877C69.2904 268.014 69.0999 268.082 68.8623 268.082C68.6247 268.082 68.4326 268.014 68.2861 267.877C68.1429 267.74 68.0713 267.564 68.0713 267.35ZM72.7148 272.276L73.6963 268.717H75.1709L73.3887 274H72.041L70.2588 268.717H71.7334L72.7148 272.276ZM78.1592 274.098C77.3844 274.098 76.7529 273.86 76.2646 273.385C75.7796 272.91 75.5371 272.276 75.5371 271.485V271.349C75.5371 270.818 75.6396 270.344 75.8447 269.928C76.0498 269.508 76.3395 269.186 76.7139 268.961C77.0915 268.733 77.5212 268.619 78.0029 268.619C78.7256 268.619 79.2936 268.847 79.707 269.303C80.1237 269.758 80.332 270.405 80.332 271.241V271.817H76.9678C77.0133 272.162 77.1501 272.439 77.3779 272.647C77.609 272.856 77.9004 272.96 78.252 272.96C78.7956 272.96 79.2204 272.763 79.5264 272.369L80.2197 273.146C80.0081 273.445 79.7217 273.679 79.3604 273.849C78.999 274.015 78.5986 274.098 78.1592 274.098ZM77.998 269.762C77.7181 269.762 77.4902 269.856 77.3145 270.045C77.1419 270.234 77.0312 270.504 76.9824 270.855H78.9453V270.743C78.9388 270.431 78.8542 270.19 78.6914 270.021C78.5286 269.848 78.2975 269.762 77.998 269.762ZM84.1064 270.04C83.9144 270.014 83.7451 270.001 83.5986 270.001C83.0648 270.001 82.7148 270.182 82.5488 270.543V274H81.1377V268.717H82.4707L82.5098 269.347C82.793 268.862 83.1852 268.619 83.6865 268.619C83.8428 268.619 83.9893 268.64 84.126 268.683L84.1064 270.04ZM87.6514 272.54C87.6514 272.368 87.5651 272.232 87.3926 272.135C87.2233 272.034 86.9499 271.944 86.5723 271.866C85.3158 271.603 84.6875 271.069 84.6875 270.265C84.6875 269.796 84.8812 269.405 85.2686 269.093C85.6592 268.777 86.1686 268.619 86.7969 268.619C87.4674 268.619 88.0029 268.777 88.4033 269.093C88.807 269.409 89.0088 269.819 89.0088 270.323H87.5977C87.5977 270.121 87.5326 269.955 87.4023 269.825C87.2721 269.692 87.0687 269.625 86.792 269.625C86.5544 269.625 86.3704 269.679 86.2402 269.786C86.11 269.894 86.0449 270.03 86.0449 270.196C86.0449 270.353 86.1182 270.479 86.2646 270.577C86.4144 270.672 86.665 270.755 87.0166 270.826C87.3682 270.895 87.6644 270.973 87.9053 271.061C88.6507 271.334 89.0234 271.808 89.0234 272.481C89.0234 272.963 88.8167 273.354 88.4033 273.653C87.9899 273.95 87.4561 274.098 86.8018 274.098C86.359 274.098 85.9652 274.02 85.6201 273.863C85.2783 273.704 85.0098 273.487 84.8145 273.214C84.6191 272.937 84.5215 272.639 84.5215 272.32H85.8594C85.8724 272.571 85.9652 272.763 86.1377 272.896C86.3102 273.03 86.5413 273.097 86.8311 273.097C87.1012 273.097 87.3047 273.046 87.4414 272.945C87.5814 272.841 87.6514 272.706 87.6514 272.54ZM92.3682 274.098C91.5934 274.098 90.9619 273.86 90.4736 273.385C89.9886 272.91 89.7461 272.276 89.7461 271.485V271.349C89.7461 270.818 89.8486 270.344 90.0537 269.928C90.2588 269.508 90.5485 269.186 90.9229 268.961C91.3005 268.733 91.7301 268.619 92.2119 268.619C92.9346 268.619 93.5026 268.847 93.916 269.303C94.3327 269.758 94.541 270.405 94.541 271.241V271.817H91.1768C91.2223 272.162 91.359 272.439 91.5869 272.647C91.818 272.856 92.1094 272.96 92.4609 272.96C93.0046 272.96 93.4294 272.763 93.7354 272.369L94.4287 273.146C94.2171 273.445 93.9307 273.679 93.5693 273.849C93.208 274.015 92.8076 274.098 92.3682 274.098ZM92.207 269.762C91.9271 269.762 91.6992 269.856 91.5234 270.045C91.3509 270.234 91.2402 270.504 91.1914 270.855H93.1543V270.743C93.1478 270.431 93.0632 270.19 92.9004 270.021C92.7376 269.848 92.5065 269.762 92.207 269.762ZM98.0908 271.524H95.3418V270.387H98.0908V271.524ZM101.421 272.96C101.681 272.96 101.893 272.888 102.056 272.745C102.218 272.602 102.303 272.411 102.31 272.174H103.633C103.63 272.532 103.532 272.861 103.34 273.16C103.148 273.456 102.884 273.688 102.549 273.854C102.217 274.016 101.849 274.098 101.445 274.098C100.69 274.098 100.094 273.858 99.6582 273.38C99.222 272.898 99.0039 272.234 99.0039 271.388V271.295C99.0039 270.481 99.2204 269.832 99.6533 269.347C100.086 268.862 100.68 268.619 101.436 268.619C102.096 268.619 102.625 268.808 103.022 269.186C103.423 269.56 103.626 270.06 103.633 270.685H102.31C102.303 270.411 102.218 270.19 102.056 270.021C101.893 269.848 101.678 269.762 101.411 269.762C101.082 269.762 100.833 269.882 100.664 270.123C100.498 270.361 100.415 270.748 100.415 271.285V271.432C100.415 271.975 100.498 272.366 100.664 272.604C100.83 272.841 101.082 272.96 101.421 272.96ZM106.87 274.098C106.095 274.098 105.464 273.86 104.976 273.385C104.491 272.91 104.248 272.276 104.248 271.485V271.349C104.248 270.818 104.351 270.344 104.556 269.928C104.761 269.508 105.05 269.186 105.425 268.961C105.802 268.733 106.232 268.619 106.714 268.619C107.437 268.619 108.005 268.847 108.418 269.303C108.835 269.758 109.043 270.405 109.043 271.241V271.817H105.679C105.724 272.162 105.861 272.439 106.089 272.647C106.32 272.856 106.611 272.96 106.963 272.96C107.507 272.96 107.931 272.763 108.237 272.369L108.931 273.146C108.719 273.445 108.433 273.679 108.071 273.849C107.71 274.015 107.31 274.098 106.87 274.098ZM106.709 269.762C106.429 269.762 106.201 269.856 106.025 270.045C105.853 270.234 105.742 270.504 105.693 270.855H107.656V270.743C107.65 270.431 107.565 270.19 107.402 270.021C107.24 269.848 107.008 269.762 106.709 269.762ZM111.147 268.717L111.191 269.327C111.569 268.855 112.075 268.619 112.71 268.619C113.27 268.619 113.687 268.784 113.96 269.112C114.233 269.441 114.373 269.933 114.38 270.587V274H112.969V270.621C112.969 270.322 112.904 270.105 112.773 269.972C112.643 269.835 112.427 269.767 112.124 269.767C111.727 269.767 111.429 269.936 111.23 270.274V274H109.819V268.717H111.147ZM117.144 267.418V268.717H118.047V269.752H117.144V272.389C117.144 272.584 117.181 272.724 117.256 272.809C117.331 272.893 117.474 272.936 117.686 272.936C117.842 272.936 117.98 272.924 118.101 272.901V273.971C117.824 274.055 117.539 274.098 117.246 274.098C116.257 274.098 115.752 273.598 115.732 272.599V269.752H114.961V268.717H115.732V267.418H117.144ZM121.265 274.098C120.49 274.098 119.858 273.86 119.37 273.385C118.885 272.91 118.643 272.276 118.643 271.485V271.349C118.643 270.818 118.745 270.344 118.95 269.928C119.155 269.508 119.445 269.186 119.819 268.961C120.197 268.733 120.627 268.619 121.108 268.619C121.831 268.619 122.399 268.847 122.812 269.303C123.229 269.758 123.438 270.405 123.438 271.241V271.817H120.073C120.119 272.162 120.256 272.439 120.483 272.647C120.715 272.856 121.006 272.96 121.357 272.96C121.901 272.96 122.326 272.763 122.632 272.369L123.325 273.146C123.114 273.445 122.827 273.679 122.466 273.849C122.104 274.015 121.704 274.098 121.265 274.098ZM121.104 269.762C120.824 269.762 120.596 269.856 120.42 270.045C120.247 270.234 120.137 270.504 120.088 270.855H122.051V270.743C122.044 270.431 121.96 270.19 121.797 270.021C121.634 269.848 121.403 269.762 121.104 269.762ZM127.212 270.04C127.02 270.014 126.851 270.001 126.704 270.001C126.17 270.001 125.82 270.182 125.654 270.543V274H124.243V268.717H125.576L125.615 269.347C125.898 268.862 126.291 268.619 126.792 268.619C126.948 268.619 127.095 268.64 127.231 268.683L127.212 270.04ZM127.119 273.307C127.119 273.082 127.194 272.9 127.344 272.76C127.497 272.62 127.687 272.55 127.915 272.55C128.146 272.55 128.337 272.62 128.486 272.76C128.639 272.9 128.716 273.082 128.716 273.307C128.716 273.528 128.641 273.709 128.491 273.849C128.341 273.985 128.149 274.054 127.915 274.054C127.684 274.054 127.493 273.985 127.344 273.849C127.194 273.709 127.119 273.528 127.119 273.307ZM132.925 270.04C132.733 270.014 132.563 270.001 132.417 270.001C131.883 270.001 131.533 270.182 131.367 270.543V274H129.956V268.717H131.289L131.328 269.347C131.611 268.862 132.004 268.619 132.505 268.619C132.661 268.619 132.808 268.64 132.944 268.683L132.925 270.04ZM136.772 273.463C136.424 273.886 135.942 274.098 135.327 274.098C134.761 274.098 134.328 273.935 134.028 273.609C133.732 273.284 133.581 272.807 133.574 272.179V268.717H134.985V272.13C134.985 272.68 135.236 272.955 135.737 272.955C136.216 272.955 136.545 272.789 136.724 272.457V268.717H138.14V274H136.812L136.772 273.463Z" fill="black"/>
</svg>
