<svg width="384" height="224" viewBox="0 0 384 224" fill="none" xmlns="http://www.w3.org/2000/svg">
<path d="M339.08 26.32H340.268V27.508H339.08V28.93H340.268V31H341.942V28.93H347.99V27.508H341.942V26.302H343.616C345.416 26.302 346.532 25.87 347.396 25.006C348.116 24.304 348.512 23.332 348.512 22.198C348.512 20.758 347.954 19.84 347 19.192C346.19 18.634 345.2 18.4 343.67 18.4H340.268V24.88H339.08V26.32ZM346.766 22.252C346.766 22.99 346.568 23.584 346.046 24.106C345.488 24.628 344.714 24.88 343.346 24.88H341.942V19.84H343.598C344.66 19.84 345.29 19.984 345.848 20.344C346.478 20.758 346.766 21.37 346.766 22.252Z" fill="#130E20"/>
<path d="M17.386 17.412C17.5353 16.4227 17.8153 15.5547 18.226 14.808C18.6367 14.0613 19.15 13.4407 19.766 12.946C20.382 12.4513 21.082 12.0827 21.866 11.84C22.6593 11.588 23.5133 11.462 24.428 11.462C25.3987 11.462 26.2667 11.602 27.032 11.882C27.8067 12.1527 28.46 12.526 28.992 13.002C29.524 13.478 29.93 14.0333 30.21 14.668C30.4993 15.3027 30.644 15.984 30.644 16.712C30.644 17.356 30.574 17.9253 30.434 18.42C30.3033 18.9053 30.1027 19.33 29.832 19.694C29.5707 20.058 29.244 20.366 28.852 20.618C28.4693 20.87 28.026 21.08 27.522 21.248C29.8553 22.0133 31.022 23.5673 31.022 25.91C31.022 26.946 30.8307 27.8607 30.448 28.654C30.0653 29.438 29.552 30.096 28.908 30.628C28.264 31.16 27.5127 31.5613 26.654 31.832C25.8047 32.0933 24.9133 32.224 23.98 32.224C22.9907 32.224 22.118 32.112 21.362 31.888C20.606 31.664 19.9387 31.328 19.36 30.88C18.7907 30.432 18.3007 29.872 17.89 29.2C17.4793 28.5187 17.12 27.7253 16.812 26.82L18.52 26.12C18.968 25.9333 19.3833 25.882 19.766 25.966C20.158 26.05 20.438 26.2553 20.606 26.582C20.7927 26.9367 20.9887 27.2633 21.194 27.562C21.4087 27.8607 21.6467 28.122 21.908 28.346C22.1693 28.5607 22.4633 28.7287 22.79 28.85C23.126 28.9713 23.5087 29.032 23.938 29.032C24.4793 29.032 24.9507 28.9433 25.352 28.766C25.7533 28.5887 26.0893 28.36 26.36 28.08C26.6307 27.7907 26.8313 27.4687 26.962 27.114C27.102 26.75 27.172 26.3907 27.172 26.036C27.172 25.5693 27.13 25.1493 27.046 24.776C26.962 24.3933 26.766 24.0713 26.458 23.81C26.1593 23.5393 25.7113 23.334 25.114 23.194C24.526 23.0447 23.7233 22.97 22.706 22.97V20.254C23.5553 20.254 24.2507 20.184 24.792 20.044C25.3333 19.904 25.758 19.708 26.066 19.456C26.374 19.204 26.584 18.9007 26.696 18.546C26.8173 18.1913 26.878 17.804 26.878 17.384C26.878 16.4973 26.6447 15.8207 26.178 15.354C25.7207 14.8873 25.0673 14.654 24.218 14.654C23.8447 14.654 23.4993 14.71 23.182 14.822C22.874 14.9247 22.594 15.0693 22.342 15.256C22.0993 15.4427 21.8893 15.662 21.712 15.914C21.5347 16.166 21.404 16.4413 21.32 16.74C21.1427 17.2067 20.914 17.5193 20.634 17.678C20.354 17.8273 19.948 17.86 19.416 17.776L17.386 17.412ZM47.8522 21.836C47.8522 23.6093 47.6609 25.1493 47.2782 26.456C46.8955 27.7627 46.3682 28.8453 45.6962 29.704C45.0242 30.5533 44.2262 31.188 43.3022 31.608C42.3875 32.0187 41.3982 32.224 40.3342 32.224C39.2702 32.224 38.2809 32.0187 37.3662 31.608C36.4515 31.188 35.6629 30.5533 35.0002 29.704C34.3375 28.8453 33.8149 27.7627 33.4322 26.456C33.0589 25.1493 32.8722 23.6093 32.8722 21.836C32.8722 20.0627 33.0589 18.5273 33.4322 17.23C33.8149 15.9233 34.3375 14.8453 35.0002 13.996C35.6629 13.1373 36.4515 12.5027 37.3662 12.092C38.2809 11.672 39.2702 11.462 40.3342 11.462C41.3982 11.462 42.3875 11.672 43.3022 12.092C44.2262 12.5027 45.0242 13.1373 45.6962 13.996C46.3682 14.8453 46.8955 15.9233 47.2782 17.23C47.6609 18.5273 47.8522 20.0627 47.8522 21.836ZM43.8622 21.836C43.8622 20.3987 43.7595 19.2133 43.5542 18.28C43.3582 17.3467 43.0969 16.6093 42.7702 16.068C42.4435 15.5267 42.0655 15.1487 41.6362 14.934C41.2162 14.7193 40.7822 14.612 40.3342 14.612C39.8862 14.612 39.4522 14.7193 39.0322 14.934C38.6215 15.1487 38.2529 15.5267 37.9262 16.068C37.6089 16.6093 37.3522 17.3467 37.1562 18.28C36.9602 19.2133 36.8622 20.3987 36.8622 21.836C36.8622 23.2827 36.9602 24.4727 37.1562 25.406C37.3522 26.3393 37.6089 27.0767 37.9262 27.618C38.2529 28.1593 38.6215 28.5373 39.0322 28.752C39.4522 28.9667 39.8862 29.074 40.3342 29.074C40.7822 29.074 41.2162 28.9667 41.6362 28.752C42.0655 28.5373 42.4435 28.1593 42.7702 27.618C43.0969 27.0767 43.3582 26.3393 43.5542 25.406C43.7595 24.4727 43.8622 23.2827 43.8622 21.836Z" fill="#130E20"/>
<path d="M21.116 53.076C21.448 53.076 21.734 53.038 21.974 52.962C22.214 52.886 22.41 52.78 22.562 52.644C22.718 52.504 22.832 52.34 22.904 52.152C22.976 51.96 23.012 51.75 23.012 51.522C23.012 51.078 22.854 50.728 22.538 50.472C22.222 50.212 21.748 50.082 21.116 50.082H19.256V53.076H21.116ZM19.256 46.32V49.254H20.792C21.12 49.254 21.404 49.218 21.644 49.146C21.888 49.074 22.088 48.974 22.244 48.846C22.404 48.718 22.522 48.564 22.598 48.384C22.674 48.2 22.712 48 22.712 47.784C22.712 47.276 22.56 46.906 22.256 46.674C21.952 46.438 21.48 46.32 20.84 46.32H19.256ZM20.84 45.402C21.368 45.402 21.822 45.454 22.202 45.558C22.586 45.662 22.9 45.81 23.144 46.002C23.392 46.194 23.574 46.43 23.69 46.71C23.806 46.986 23.864 47.298 23.864 47.646C23.864 47.858 23.83 48.062 23.762 48.258C23.698 48.45 23.6 48.63 23.468 48.798C23.336 48.966 23.168 49.118 22.964 49.254C22.764 49.386 22.528 49.494 22.256 49.578C22.888 49.698 23.362 49.924 23.678 50.256C23.998 50.584 24.158 51.016 24.158 51.552C24.158 51.916 24.09 52.248 23.954 52.548C23.822 52.848 23.626 53.106 23.366 53.322C23.11 53.538 22.794 53.706 22.418 53.826C22.042 53.942 21.614 54 21.134 54H18.098V45.402H20.84ZM29.7401 49.002C29.7081 49.046 29.6761 49.08 29.6441 49.104C29.6121 49.128 29.5681 49.14 29.5121 49.14C29.4521 49.14 29.3861 49.116 29.3141 49.068C29.2421 49.016 29.1521 48.96 29.0441 48.9C28.9401 48.84 28.8101 48.786 28.6541 48.738C28.5021 48.686 28.3141 48.66 28.0901 48.66C27.7901 48.66 27.5261 48.714 27.2981 48.822C27.0701 48.926 26.8781 49.078 26.7221 49.278C26.5701 49.478 26.4541 49.72 26.3741 50.004C26.2981 50.288 26.2601 50.606 26.2601 50.958C26.2601 51.326 26.3021 51.654 26.3861 51.942C26.4701 52.226 26.5881 52.466 26.7401 52.662C26.8961 52.854 27.0821 53.002 27.2981 53.106C27.5181 53.206 27.7641 53.256 28.0361 53.256C28.2961 53.256 28.5101 53.226 28.6781 53.166C28.8461 53.102 28.9841 53.032 29.0921 52.956C29.2041 52.88 29.2961 52.812 29.3681 52.752C29.4441 52.688 29.5181 52.656 29.5901 52.656C29.6781 52.656 29.7461 52.69 29.7941 52.758L30.0941 53.148C29.9621 53.312 29.8121 53.452 29.6441 53.568C29.4761 53.684 29.2941 53.782 29.0981 53.862C28.9061 53.938 28.7041 53.994 28.4921 54.03C28.2801 54.066 28.0641 54.084 27.8441 54.084C27.4641 54.084 27.1101 54.014 26.7821 53.874C26.4581 53.734 26.1761 53.532 25.9361 53.268C25.6961 53 25.5081 52.672 25.3721 52.284C25.2361 51.896 25.1681 51.454 25.1681 50.958C25.1681 50.506 25.2301 50.088 25.3541 49.704C25.4821 49.32 25.6661 48.99 25.9061 48.714C26.1501 48.434 26.4481 48.216 26.8001 48.06C27.1561 47.904 27.5641 47.826 28.0241 47.826C28.4521 47.826 28.8281 47.896 29.1521 48.036C29.4801 48.172 29.7701 48.366 30.0221 48.618L29.7401 49.002ZM35.2031 50.298C35.2031 50.05 35.1671 49.824 35.0951 49.62C35.0271 49.412 34.9251 49.234 34.7891 49.086C34.6571 48.934 34.4951 48.818 34.3031 48.738C34.1111 48.654 33.8931 48.612 33.6491 48.612C33.1371 48.612 32.7311 48.762 32.4311 49.062C32.1351 49.358 31.9511 49.77 31.8791 50.298H35.2031ZM36.0671 53.148C35.9351 53.308 35.7771 53.448 35.5931 53.568C35.4091 53.684 35.2111 53.78 34.9991 53.856C34.7911 53.932 34.5751 53.988 34.3511 54.024C34.1271 54.064 33.9051 54.084 33.6851 54.084C33.2651 54.084 32.8771 54.014 32.5211 53.874C32.1691 53.73 31.8631 53.522 31.6031 53.25C31.3471 52.974 31.1471 52.634 31.0031 52.23C30.8591 51.826 30.7871 51.362 30.7871 50.838C30.7871 50.414 30.8511 50.018 30.9791 49.65C31.1111 49.282 31.2991 48.964 31.5431 48.696C31.7871 48.424 32.0851 48.212 32.4371 48.06C32.7891 47.904 33.1851 47.826 33.6251 47.826C33.9891 47.826 34.3251 47.888 34.6331 48.012C34.9451 48.132 35.2131 48.308 35.4371 48.54C35.6651 48.768 35.8431 49.052 35.9711 49.392C36.0991 49.728 36.1631 50.112 36.1631 50.544C36.1631 50.712 36.1451 50.824 36.1091 50.88C36.0731 50.936 36.0051 50.964 35.9051 50.964H31.8431C31.8551 51.348 31.9071 51.682 31.9991 51.966C32.0951 52.25 32.2271 52.488 32.3951 52.68C32.5631 52.868 32.7631 53.01 32.9951 53.106C33.2271 53.198 33.4871 53.244 33.7751 53.244C34.0431 53.244 34.2731 53.214 34.4651 53.154C34.6611 53.09 34.8291 53.022 34.9691 52.95C35.1091 52.878 35.2251 52.812 35.3171 52.752C35.4131 52.688 35.4951 52.656 35.5631 52.656C35.6511 52.656 35.7191 52.69 35.7671 52.758L36.0671 53.148ZM41.4169 48.738H38.5489V54H37.4749V47.922H41.4169V48.738ZM44.701 47.826C45.145 47.826 45.545 47.9 45.901 48.048C46.257 48.196 46.561 48.406 46.813 48.678C47.065 48.95 47.257 49.28 47.389 49.668C47.525 50.052 47.593 50.482 47.593 50.958C47.593 51.438 47.525 51.87 47.389 52.254C47.257 52.638 47.065 52.966 46.813 53.238C46.561 53.51 46.257 53.72 45.901 53.868C45.545 54.012 45.145 54.084 44.701 54.084C44.253 54.084 43.849 54.012 43.489 53.868C43.133 53.72 42.829 53.51 42.577 53.238C42.325 52.966 42.131 52.638 41.995 52.254C41.863 51.87 41.797 51.438 41.797 50.958C41.797 50.482 41.863 50.052 41.995 49.668C42.131 49.28 42.325 48.95 42.577 48.678C42.829 48.406 43.133 48.196 43.489 48.048C43.849 47.9 44.253 47.826 44.701 47.826ZM44.701 53.25C45.301 53.25 45.749 53.05 46.045 52.65C46.341 52.246 46.489 51.684 46.489 50.964C46.489 50.24 46.341 49.676 46.045 49.272C45.749 48.868 45.301 48.666 44.701 48.666C44.397 48.666 44.131 48.718 43.903 48.822C43.679 48.926 43.491 49.076 43.339 49.272C43.191 49.468 43.079 49.71 43.003 49.998C42.931 50.282 42.895 50.604 42.895 50.964C42.895 51.684 43.043 52.246 43.339 52.65C43.639 53.05 44.093 53.25 44.701 53.25ZM53.0919 52.536C53.2879 52.8 53.5019 52.986 53.7339 53.094C53.9659 53.202 54.2259 53.256 54.5139 53.256C55.0819 53.256 55.5179 53.054 55.8219 52.65C56.1259 52.246 56.2779 51.67 56.2779 50.922C56.2779 50.526 56.2419 50.186 56.1699 49.902C56.1019 49.618 56.0019 49.386 55.8699 49.206C55.7379 49.022 55.5759 48.888 55.3839 48.804C55.1919 48.72 54.9739 48.678 54.7299 48.678C54.3819 48.678 54.0759 48.758 53.8119 48.918C53.5519 49.078 53.3119 49.304 53.0919 49.596V52.536ZM53.0379 48.864C53.2939 48.548 53.5899 48.294 53.9259 48.102C54.2619 47.91 54.6459 47.814 55.0779 47.814C55.4299 47.814 55.7479 47.882 56.0319 48.018C56.3159 48.15 56.5579 48.348 56.7579 48.612C56.9579 48.872 57.1119 49.196 57.2199 49.584C57.3279 49.972 57.3819 50.418 57.3819 50.922C57.3819 51.37 57.3219 51.788 57.2019 52.176C57.0819 52.56 56.9079 52.894 56.6799 53.178C56.4559 53.458 56.1799 53.68 55.8519 53.844C55.5279 54.004 55.1619 54.084 54.7539 54.084C54.3819 54.084 54.0619 54.022 53.7939 53.898C53.5299 53.77 53.2959 53.594 53.0919 53.37V56.058H52.0179V47.922H52.6599C52.8119 47.922 52.9059 47.996 52.9419 48.144L53.0379 48.864ZM63.9467 47.922V54H62.8787V49.872C62.8787 49.792 62.8827 49.706 62.8907 49.614C62.8987 49.522 62.9087 49.43 62.9207 49.338C62.8847 49.418 62.8487 49.492 62.8127 49.56C62.7767 49.628 62.7387 49.69 62.6987 49.746L59.7647 53.736C59.7207 53.8 59.6647 53.862 59.5967 53.922C59.5327 53.978 59.4607 54.006 59.3807 54.006H58.7327V47.928H59.8067V52.056C59.8067 52.132 59.8027 52.216 59.7947 52.308C59.7867 52.396 59.7767 52.486 59.7647 52.578C59.8007 52.502 59.8367 52.432 59.8727 52.368C59.9087 52.3 59.9447 52.238 59.9807 52.182L62.9147 48.192C62.9587 48.128 63.0147 48.068 63.0827 48.012C63.1507 47.952 63.2247 47.922 63.3047 47.922H63.9467ZM69.8651 49.002C69.8331 49.046 69.8011 49.08 69.7691 49.104C69.7371 49.128 69.6931 49.14 69.6371 49.14C69.5771 49.14 69.5111 49.116 69.4391 49.068C69.3671 49.016 69.2771 48.96 69.1691 48.9C69.0651 48.84 68.9351 48.786 68.7791 48.738C68.6271 48.686 68.4391 48.66 68.2151 48.66C67.9151 48.66 67.6511 48.714 67.4231 48.822C67.1951 48.926 67.0031 49.078 66.8471 49.278C66.6951 49.478 66.5791 49.72 66.4991 50.004C66.4231 50.288 66.3851 50.606 66.3851 50.958C66.3851 51.326 66.4271 51.654 66.5111 51.942C66.5951 52.226 66.7131 52.466 66.8651 52.662C67.0211 52.854 67.2071 53.002 67.4231 53.106C67.6431 53.206 67.8891 53.256 68.1611 53.256C68.4211 53.256 68.6351 53.226 68.8031 53.166C68.9711 53.102 69.1091 53.032 69.2171 52.956C69.3291 52.88 69.4211 52.812 69.4931 52.752C69.5691 52.688 69.6431 52.656 69.7151 52.656C69.8031 52.656 69.8711 52.69 69.9191 52.758L70.2191 53.148C70.0871 53.312 69.9371 53.452 69.7691 53.568C69.6011 53.684 69.4191 53.782 69.2231 53.862C69.0311 53.938 68.8291 53.994 68.6171 54.03C68.4051 54.066 68.1891 54.084 67.9691 54.084C67.5891 54.084 67.2351 54.014 66.9071 53.874C66.5831 53.734 66.3011 53.532 66.0611 53.268C65.8211 53 65.6331 52.672 65.4971 52.284C65.3611 51.896 65.2931 51.454 65.2931 50.958C65.2931 50.506 65.3551 50.088 65.4791 49.704C65.6071 49.32 65.7911 48.99 66.0311 48.714C66.2751 48.434 66.5731 48.216 66.9251 48.06C67.2811 47.904 67.6891 47.826 68.1491 47.826C68.5771 47.826 68.9531 47.896 69.2771 48.036C69.6051 48.172 69.8951 48.366 70.1471 48.618L69.8651 49.002ZM75.0555 48.222C75.1115 48.134 75.1855 48.062 75.2775 48.006C75.3695 47.95 75.4675 47.922 75.5715 47.922H76.4055L74.8275 50.238C74.7315 50.386 74.6315 50.508 74.5275 50.604C74.4235 50.696 74.2955 50.768 74.1435 50.82C74.3355 50.872 74.4975 50.954 74.6295 51.066C74.7615 51.174 74.8795 51.314 74.9835 51.486L76.5795 54H75.8355C75.6435 54 75.4955 53.968 75.3915 53.904C75.2875 53.84 75.1975 53.748 75.1215 53.628L73.9395 51.738C73.7515 51.426 73.4695 51.27 73.0935 51.27H72.4395V54.006H71.3655V47.922H72.4395V50.55H73.0155C73.3355 50.55 73.5855 50.414 73.7655 50.142L75.0555 48.222ZM79.9041 47.826C80.3481 47.826 80.7481 47.9 81.1041 48.048C81.4601 48.196 81.7641 48.406 82.0161 48.678C82.2681 48.95 82.4601 49.28 82.5921 49.668C82.7281 50.052 82.7961 50.482 82.7961 50.958C82.7961 51.438 82.7281 51.87 82.5921 52.254C82.4601 52.638 82.2681 52.966 82.0161 53.238C81.7641 53.51 81.4601 53.72 81.1041 53.868C80.7481 54.012 80.3481 54.084 79.9041 54.084C79.4561 54.084 79.0521 54.012 78.6921 53.868C78.3361 53.72 78.0321 53.51 77.7801 53.238C77.5281 52.966 77.3341 52.638 77.1981 52.254C77.0661 51.87 77.0001 51.438 77.0001 50.958C77.0001 50.482 77.0661 50.052 77.1981 49.668C77.3341 49.28 77.5281 48.95 77.7801 48.678C78.0321 48.406 78.3361 48.196 78.6921 48.048C79.0521 47.9 79.4561 47.826 79.9041 47.826ZM79.9041 53.25C80.5041 53.25 80.9521 53.05 81.2481 52.65C81.5441 52.246 81.6921 51.684 81.6921 50.964C81.6921 50.24 81.5441 49.676 81.2481 49.272C80.9521 48.868 80.5041 48.666 79.9041 48.666C79.6001 48.666 79.3341 48.718 79.1061 48.822C78.8821 48.926 78.6941 49.076 78.5421 49.272C78.3941 49.468 78.2821 49.71 78.2061 49.998C78.1341 50.282 78.0981 50.604 78.0981 50.964C78.0981 51.684 78.2461 52.246 78.5421 52.65C78.8421 53.05 79.2961 53.25 79.9041 53.25ZM86.4847 53.25C86.8847 53.25 87.2007 53.158 87.4327 52.974C87.6647 52.786 87.7807 52.53 87.7807 52.206C87.7807 52.062 87.7587 51.932 87.7147 51.816C87.6707 51.696 87.5987 51.592 87.4987 51.504C87.3987 51.416 87.2647 51.348 87.0967 51.3C86.9327 51.252 86.7307 51.228 86.4907 51.228H85.1767V53.25H86.4847ZM85.1767 48.642V50.55H86.3467C86.5227 50.55 86.6847 50.526 86.8327 50.478C86.9847 50.426 87.1147 50.356 87.2227 50.268C87.3307 50.176 87.4147 50.068 87.4747 49.944C87.5347 49.816 87.5647 49.676 87.5647 49.524C87.5647 49.412 87.5447 49.304 87.5047 49.2C87.4647 49.092 87.3967 48.998 87.3007 48.918C87.2047 48.834 87.0787 48.768 86.9227 48.72C86.7667 48.668 86.5747 48.642 86.3467 48.642H85.1767ZM86.3767 47.922C86.7527 47.922 87.0747 47.96 87.3427 48.036C87.6107 48.112 87.8307 48.216 88.0027 48.348C88.1747 48.476 88.3007 48.628 88.3807 48.804C88.4607 48.98 88.5007 49.168 88.5007 49.368C88.5007 49.5 88.4827 49.638 88.4467 49.782C88.4107 49.926 88.3467 50.064 88.2547 50.196C88.1667 50.328 88.0447 50.448 87.8887 50.556C87.7367 50.66 87.5447 50.742 87.3127 50.802C87.7767 50.882 88.1347 51.044 88.3867 51.288C88.6387 51.528 88.7647 51.846 88.7647 52.242C88.7647 52.538 88.7047 52.796 88.5847 53.016C88.4687 53.232 88.3067 53.414 88.0987 53.562C87.8947 53.71 87.6547 53.82 87.3787 53.892C87.1027 53.964 86.8067 54 86.4907 54H84.1507V47.922H86.3767Z" fill="#82818A"/>
<path d="M108.147 219.184V220H103.539V219.184H105.381V213.322C105.381 213.146 105.387 212.968 105.399 212.788L103.869 214.102C103.817 214.146 103.765 214.174 103.713 214.186C103.661 214.194 103.613 214.194 103.569 214.186C103.525 214.178 103.483 214.162 103.443 214.138C103.407 214.114 103.379 214.088 103.359 214.06L103.023 213.598L105.585 211.384H106.455V219.184H108.147ZM115.6 215.704C115.6 216.456 115.518 217.108 115.354 217.66C115.194 218.208 114.974 218.662 114.694 219.022C114.414 219.382 114.082 219.65 113.698 219.826C113.318 220.002 112.91 220.09 112.474 220.09C112.034 220.09 111.624 220.002 111.244 219.826C110.868 219.65 110.54 219.382 110.26 219.022C109.98 218.662 109.76 218.208 109.6 217.66C109.44 217.108 109.36 216.456 109.36 215.704C109.36 214.952 109.44 214.3 109.6 213.748C109.76 213.196 109.98 212.74 110.26 212.38C110.54 212.016 110.868 211.746 111.244 211.57C111.624 211.394 112.034 211.306 112.474 211.306C112.91 211.306 113.318 211.394 113.698 211.57C114.082 211.746 114.414 212.016 114.694 212.38C114.974 212.74 115.194 213.196 115.354 213.748C115.518 214.3 115.6 214.952 115.6 215.704ZM114.49 215.704C114.49 215.048 114.434 214.498 114.322 214.054C114.214 213.606 114.066 213.246 113.878 212.974C113.694 212.702 113.48 212.508 113.236 212.392C112.992 212.272 112.738 212.212 112.474 212.212C112.21 212.212 111.956 212.272 111.712 212.392C111.468 212.508 111.254 212.702 111.07 212.974C110.886 213.246 110.738 213.606 110.626 214.054C110.518 214.498 110.464 215.048 110.464 215.704C110.464 216.36 110.518 216.91 110.626 217.354C110.738 217.798 110.886 218.156 111.07 218.428C111.254 218.7 111.468 218.896 111.712 219.016C111.956 219.132 112.21 219.19 112.474 219.19C112.738 219.19 112.992 219.132 113.236 219.016C113.48 218.896 113.694 218.7 113.878 218.428C114.066 218.156 114.214 217.798 114.322 217.354C114.434 216.91 114.49 216.36 114.49 215.704Z" fill="#82818A"/>
<path d="M198.535 214.648C198.983 214.552 199.395 214.504 199.771 214.504C200.219 214.504 200.615 214.57 200.959 214.702C201.303 214.834 201.589 215.016 201.817 215.248C202.049 215.48 202.223 215.754 202.339 216.07C202.459 216.386 202.519 216.73 202.519 217.102C202.519 217.558 202.439 217.97 202.279 218.338C202.123 218.706 201.905 219.022 201.625 219.286C201.349 219.546 201.023 219.746 200.647 219.886C200.271 220.026 199.865 220.096 199.429 220.096C199.177 220.096 198.935 220.07 198.703 220.018C198.471 219.97 198.253 219.904 198.049 219.82C197.849 219.736 197.663 219.64 197.491 219.532C197.319 219.424 197.167 219.31 197.035 219.19L197.365 218.734C197.437 218.63 197.531 218.578 197.647 218.578C197.727 218.578 197.817 218.61 197.917 218.674C198.017 218.734 198.139 218.802 198.283 218.878C198.427 218.954 198.595 219.024 198.787 219.088C198.983 219.148 199.215 219.178 199.483 219.178C199.783 219.178 200.053 219.13 200.293 219.034C200.533 218.938 200.739 218.802 200.911 218.626C201.083 218.446 201.215 218.232 201.307 217.984C201.399 217.736 201.445 217.458 201.445 217.15C201.445 216.882 201.405 216.64 201.325 216.424C201.249 216.208 201.131 216.024 200.971 215.872C200.815 215.72 200.619 215.602 200.383 215.518C200.147 215.434 199.871 215.392 199.555 215.392C199.339 215.392 199.113 215.41 198.877 215.446C198.645 215.482 198.407 215.54 198.163 215.62L197.491 215.422L198.181 211.402H202.255V211.87C202.255 212.022 202.207 212.148 202.111 212.248C202.019 212.344 201.859 212.392 201.631 212.392H198.931L198.535 214.648ZM214.015 213.904V220H213.049V215.962C213.049 215.85 213.055 215.726 213.067 215.59C213.083 215.45 213.103 215.32 213.127 215.2L211.015 218.902C210.983 218.962 210.941 219.01 210.889 219.046C210.837 219.082 210.777 219.1 210.709 219.1H210.589C210.521 219.1 210.459 219.082 210.403 219.046C210.351 219.01 210.309 218.962 210.277 218.902L208.129 215.188C208.149 215.308 208.167 215.44 208.183 215.584C208.199 215.724 208.207 215.85 208.207 215.962V220H207.241V213.904H208.099C208.175 213.904 208.249 213.922 208.321 213.958C208.393 213.99 208.455 214.052 208.507 214.144L210.403 217.312C210.495 217.496 210.577 217.69 210.649 217.894C210.717 217.682 210.797 217.488 210.889 217.312L212.749 214.144C212.801 214.048 212.863 213.984 212.935 213.952C213.007 213.92 213.081 213.904 213.157 213.904H214.015ZM221.029 220H219.961V214.762H218.041C217.993 215.534 217.921 216.202 217.825 216.766C217.729 217.326 217.613 217.804 217.477 218.2C217.345 218.592 217.195 218.912 217.027 219.16C216.863 219.404 216.689 219.594 216.505 219.73C216.325 219.866 216.137 219.958 215.941 220.006C215.749 220.054 215.557 220.078 215.365 220.078C215.025 220.078 214.855 220.024 214.855 219.916V219.238H215.167C215.303 219.238 215.441 219.214 215.581 219.166C215.721 219.118 215.857 219.026 215.989 218.89C216.125 218.754 216.255 218.564 216.379 218.32C216.503 218.072 216.615 217.752 216.715 217.36C216.819 216.964 216.907 216.486 216.979 215.926C217.055 215.362 217.113 214.694 217.153 213.922H221.029V220ZM227.785 213.922V220H226.711V217.156H223.795V220H222.721V213.922H223.795V216.346H226.711V213.922H227.785Z" fill="#82818A"/>
<path d="M270.491 219.184V220H265.883V219.184H267.725V213.322C267.725 213.146 267.731 212.968 267.743 212.788L266.213 214.102C266.161 214.146 266.109 214.174 266.057 214.186C266.005 214.194 265.957 214.194 265.913 214.186C265.869 214.178 265.827 214.162 265.787 214.138C265.751 214.114 265.723 214.088 265.703 214.06L265.367 213.598L267.929 211.384H268.799V219.184H270.491ZM277.944 215.704C277.944 216.456 277.862 217.108 277.698 217.66C277.538 218.208 277.318 218.662 277.038 219.022C276.758 219.382 276.426 219.65 276.042 219.826C275.662 220.002 275.254 220.09 274.818 220.09C274.378 220.09 273.968 220.002 273.588 219.826C273.212 219.65 272.884 219.382 272.604 219.022C272.324 218.662 272.104 218.208 271.944 217.66C271.784 217.108 271.704 216.456 271.704 215.704C271.704 214.952 271.784 214.3 271.944 213.748C272.104 213.196 272.324 212.74 272.604 212.38C272.884 212.016 273.212 211.746 273.588 211.57C273.968 211.394 274.378 211.306 274.818 211.306C275.254 211.306 275.662 211.394 276.042 211.57C276.426 211.746 276.758 212.016 277.038 212.38C277.318 212.74 277.538 213.196 277.698 213.748C277.862 214.3 277.944 214.952 277.944 215.704ZM276.834 215.704C276.834 215.048 276.778 214.498 276.666 214.054C276.558 213.606 276.41 213.246 276.222 212.974C276.038 212.702 275.824 212.508 275.58 212.392C275.336 212.272 275.082 212.212 274.818 212.212C274.554 212.212 274.3 212.272 274.056 212.392C273.812 212.508 273.598 212.702 273.414 212.974C273.23 213.246 273.082 213.606 272.97 214.054C272.862 214.498 272.808 215.048 272.808 215.704C272.808 216.36 272.862 216.91 272.97 217.354C273.082 217.798 273.23 218.156 273.414 218.428C273.598 218.7 273.812 218.896 274.056 219.016C274.3 219.132 274.554 219.19 274.818 219.19C275.082 219.19 275.336 219.132 275.58 219.016C275.824 218.896 276.038 218.7 276.222 218.428C276.41 218.156 276.558 217.798 276.666 217.354C276.778 216.91 276.834 216.36 276.834 215.704ZM288.995 213.904V220H288.029V215.962C288.029 215.85 288.035 215.726 288.047 215.59C288.063 215.45 288.083 215.32 288.107 215.2L285.995 218.902C285.963 218.962 285.921 219.01 285.869 219.046C285.817 219.082 285.757 219.1 285.689 219.1H285.569C285.501 219.1 285.439 219.082 285.383 219.046C285.331 219.01 285.289 218.962 285.257 218.902L283.109 215.188C283.129 215.308 283.147 215.44 283.163 215.584C283.179 215.724 283.187 215.85 283.187 215.962V220H282.221V213.904H283.079C283.155 213.904 283.229 213.922 283.301 213.958C283.373 213.99 283.435 214.052 283.487 214.144L285.383 217.312C285.475 217.496 285.557 217.69 285.629 217.894C285.697 217.682 285.777 217.488 285.869 217.312L287.729 214.144C287.781 214.048 287.843 213.984 287.915 213.952C287.987 213.92 288.061 213.904 288.137 213.904H288.995ZM296.01 220H294.942V214.762H293.022C292.974 215.534 292.902 216.202 292.806 216.766C292.71 217.326 292.594 217.804 292.458 218.2C292.326 218.592 292.176 218.912 292.008 219.16C291.844 219.404 291.67 219.594 291.486 219.73C291.306 219.866 291.118 219.958 290.922 220.006C290.73 220.054 290.538 220.078 290.346 220.078C290.006 220.078 289.836 220.024 289.836 219.916V219.238H290.148C290.284 219.238 290.422 219.214 290.562 219.166C290.702 219.118 290.838 219.026 290.97 218.89C291.106 218.754 291.236 218.564 291.36 218.32C291.484 218.072 291.596 217.752 291.696 217.36C291.8 216.964 291.888 216.486 291.96 215.926C292.036 215.362 292.094 214.694 292.134 213.922H296.01V220ZM302.765 213.922V220H301.691V217.156H298.775V220H297.701V213.922H298.775V216.346H301.691V213.922H302.765Z" fill="#82818A"/>
<path d="M350.491 219.184V220H345.883V219.184H347.725V213.322C347.725 213.146 347.731 212.968 347.743 212.788L346.213 214.102C346.161 214.146 346.109 214.174 346.057 214.186C346.005 214.194 345.957 214.194 345.913 214.186C345.869 214.178 345.827 214.162 345.787 214.138C345.751 214.114 345.723 214.088 345.703 214.06L345.367 213.598L347.929 211.384H348.799V219.184H350.491ZM353.516 214.648C353.964 214.552 354.376 214.504 354.752 214.504C355.2 214.504 355.596 214.57 355.94 214.702C356.284 214.834 356.57 215.016 356.798 215.248C357.03 215.48 357.204 215.754 357.32 216.07C357.44 216.386 357.5 216.73 357.5 217.102C357.5 217.558 357.42 217.97 357.26 218.338C357.104 218.706 356.886 219.022 356.606 219.286C356.33 219.546 356.004 219.746 355.628 219.886C355.252 220.026 354.846 220.096 354.41 220.096C354.158 220.096 353.916 220.07 353.684 220.018C353.452 219.97 353.234 219.904 353.03 219.82C352.83 219.736 352.644 219.64 352.472 219.532C352.3 219.424 352.148 219.31 352.016 219.19L352.346 218.734C352.418 218.63 352.512 218.578 352.628 218.578C352.708 218.578 352.798 218.61 352.898 218.674C352.998 218.734 353.12 218.802 353.264 218.878C353.408 218.954 353.576 219.024 353.768 219.088C353.964 219.148 354.196 219.178 354.464 219.178C354.764 219.178 355.034 219.13 355.274 219.034C355.514 218.938 355.72 218.802 355.892 218.626C356.064 218.446 356.196 218.232 356.288 217.984C356.38 217.736 356.426 217.458 356.426 217.15C356.426 216.882 356.386 216.64 356.306 216.424C356.23 216.208 356.112 216.024 355.952 215.872C355.796 215.72 355.6 215.602 355.364 215.518C355.128 215.434 354.852 215.392 354.536 215.392C354.32 215.392 354.094 215.41 353.858 215.446C353.626 215.482 353.388 215.54 353.144 215.62L352.472 215.422L353.162 211.402H357.236V211.87C357.236 212.022 357.188 212.148 357.092 212.248C357 212.344 356.84 212.392 356.612 212.392H353.912L353.516 214.648ZM368.995 213.904V220H368.029V215.962C368.029 215.85 368.035 215.726 368.047 215.59C368.063 215.45 368.083 215.32 368.107 215.2L365.995 218.902C365.963 218.962 365.921 219.01 365.869 219.046C365.817 219.082 365.757 219.1 365.689 219.1H365.569C365.501 219.1 365.439 219.082 365.383 219.046C365.331 219.01 365.289 218.962 365.257 218.902L363.109 215.188C363.129 215.308 363.147 215.44 363.163 215.584C363.179 215.724 363.187 215.85 363.187 215.962V220H362.221V213.904H363.079C363.155 213.904 363.229 213.922 363.301 213.958C363.373 213.99 363.435 214.052 363.487 214.144L365.383 217.312C365.475 217.496 365.557 217.69 365.629 217.894C365.697 217.682 365.777 217.488 365.869 217.312L367.729 214.144C367.781 214.048 367.843 213.984 367.915 213.952C367.987 213.92 368.061 213.904 368.137 213.904H368.995ZM376.01 220H374.942V214.762H373.022C372.974 215.534 372.902 216.202 372.806 216.766C372.71 217.326 372.594 217.804 372.458 218.2C372.326 218.592 372.176 218.912 372.008 219.16C371.844 219.404 371.67 219.594 371.486 219.73C371.306 219.866 371.118 219.958 370.922 220.006C370.73 220.054 370.538 220.078 370.346 220.078C370.006 220.078 369.836 220.024 369.836 219.916V219.238H370.148C370.284 219.238 370.422 219.214 370.562 219.166C370.702 219.118 370.838 219.026 370.97 218.89C371.106 218.754 371.236 218.564 371.36 218.32C371.484 218.072 371.596 217.752 371.696 217.36C371.8 216.964 371.888 216.486 371.96 215.926C372.036 215.362 372.094 214.694 372.134 213.922H376.01V220ZM382.765 213.922V220H381.691V217.156H378.775V220H377.701V213.922H378.775V216.346H381.691V213.922H382.765Z" fill="#82818A"/>
<path d="M59.9611 218.986C60.0771 218.986 60.1691 219.02 60.2371 219.088C60.3051 219.156 60.3391 219.244 60.3391 219.352V220H54.6031V219.634C54.6031 219.558 54.6191 219.48 54.6511 219.4C54.6831 219.32 54.7331 219.246 54.8011 219.178L57.5551 216.412C57.7831 216.18 57.9911 215.958 58.1791 215.746C58.3671 215.53 58.5271 215.314 58.6591 215.098C58.7911 214.882 58.8931 214.664 58.9651 214.444C59.0371 214.22 59.0731 213.982 59.0731 213.73C59.0731 213.478 59.0331 213.258 58.9531 213.07C58.8731 212.878 58.7631 212.72 58.6231 212.596C58.4871 212.472 58.3251 212.38 58.1371 212.32C57.9491 212.256 57.7471 212.224 57.5311 212.224C57.3111 212.224 57.1091 212.256 56.9251 212.32C56.7411 212.384 56.5771 212.474 56.4331 212.59C56.2931 212.702 56.1751 212.836 56.0791 212.992C55.9831 213.148 55.9151 213.32 55.8751 213.508C55.8271 213.648 55.7611 213.742 55.6771 213.79C55.5971 213.834 55.4831 213.846 55.3351 213.826L54.7771 213.73C54.8331 213.338 54.9411 212.992 55.1011 212.692C55.2651 212.388 55.4691 212.134 55.7131 211.93C55.9611 211.726 56.2431 211.572 56.5591 211.468C56.8751 211.36 57.2171 211.306 57.5851 211.306C57.9491 211.306 58.2891 211.36 58.6051 211.468C58.9211 211.576 59.1951 211.734 59.4271 211.942C59.6591 212.146 59.8411 212.396 59.9731 212.692C60.1051 212.988 60.1711 213.324 60.1711 213.7C60.1711 214.02 60.1231 214.318 60.0271 214.594C59.9311 214.866 59.8011 215.126 59.6371 215.374C59.4731 215.622 59.2831 215.864 59.0671 216.1C58.8551 216.336 58.6291 216.574 58.3891 216.814L56.1211 219.13C56.2811 219.086 56.4431 219.052 56.6071 219.028C56.7711 219 56.9291 218.986 57.0811 218.986H59.9611ZM67.6 215.704C67.6 216.456 67.518 217.108 67.354 217.66C67.194 218.208 66.974 218.662 66.694 219.022C66.414 219.382 66.082 219.65 65.698 219.826C65.318 220.002 64.91 220.09 64.474 220.09C64.034 220.09 63.624 220.002 63.244 219.826C62.868 219.65 62.54 219.382 62.26 219.022C61.98 218.662 61.76 218.208 61.6 217.66C61.44 217.108 61.36 216.456 61.36 215.704C61.36 214.952 61.44 214.3 61.6 213.748C61.76 213.196 61.98 212.74 62.26 212.38C62.54 212.016 62.868 211.746 63.244 211.57C63.624 211.394 64.034 211.306 64.474 211.306C64.91 211.306 65.318 211.394 65.698 211.57C66.082 211.746 66.414 212.016 66.694 212.38C66.974 212.74 67.194 213.196 67.354 213.748C67.518 214.3 67.6 214.952 67.6 215.704ZM66.49 215.704C66.49 215.048 66.434 214.498 66.322 214.054C66.214 213.606 66.066 213.246 65.878 212.974C65.694 212.702 65.48 212.508 65.236 212.392C64.992 212.272 64.738 212.212 64.474 212.212C64.21 212.212 63.956 212.272 63.712 212.392C63.468 212.508 63.254 212.702 63.07 212.974C62.886 213.246 62.738 213.606 62.626 214.054C62.518 214.498 62.464 215.048 62.464 215.704C62.464 216.36 62.518 216.91 62.626 217.354C62.738 217.798 62.886 218.156 63.07 218.428C63.254 218.7 63.468 218.896 63.712 219.016C63.956 219.132 64.21 219.19 64.474 219.19C64.738 219.19 64.992 219.132 65.236 219.016C65.48 218.896 65.694 218.7 65.878 218.428C66.066 218.156 66.214 217.798 66.322 217.354C66.434 216.91 66.49 216.36 66.49 215.704Z" fill="#82818A"/>
<path d="M15.8191 213.73C15.8751 213.338 15.9831 212.992 16.1431 212.692C16.3031 212.388 16.5051 212.134 16.7491 211.93C16.9971 211.726 17.2791 211.572 17.5951 211.468C17.9151 211.36 18.2591 211.306 18.6271 211.306C18.9911 211.306 19.3271 211.358 19.6351 211.462C19.9431 211.566 20.2071 211.714 20.4271 211.906C20.6511 212.098 20.8251 212.33 20.9491 212.602C21.0731 212.874 21.1351 213.176 21.1351 213.508C21.1351 213.78 21.0991 214.024 21.0271 214.24C20.9591 214.452 20.8591 214.638 20.7271 214.798C20.5991 214.958 20.4431 215.094 20.2591 215.206C20.0751 215.318 19.8691 215.41 19.6411 215.482C20.2011 215.626 20.6211 215.874 20.9011 216.226C21.1851 216.574 21.3271 217.01 21.3271 217.534C21.3271 217.93 21.2511 218.286 21.0991 218.602C20.9511 218.918 20.7471 219.188 20.4871 219.412C20.2271 219.632 19.9231 219.802 19.5751 219.922C19.2311 220.038 18.8611 220.096 18.4651 220.096C18.0091 220.096 17.6191 220.04 17.2951 219.928C16.9711 219.812 16.6971 219.654 16.4731 219.454C16.2491 219.254 16.0651 219.018 15.9211 218.746C15.7771 218.47 15.6551 218.172 15.5551 217.852L16.0171 217.66C16.1371 217.608 16.2531 217.594 16.3651 217.618C16.4811 217.642 16.5651 217.708 16.6171 217.816C16.6691 217.928 16.7331 218.062 16.8091 218.218C16.8891 218.374 16.9971 218.524 17.1331 218.668C17.2691 218.812 17.4411 218.934 17.6491 219.034C17.8611 219.134 18.1291 219.184 18.4531 219.184C18.7531 219.184 19.0151 219.136 19.2391 219.04C19.4671 218.94 19.6551 218.812 19.8031 218.656C19.9551 218.5 20.0691 218.326 20.1451 218.134C20.2211 217.942 20.2591 217.752 20.2591 217.564C20.2591 217.332 20.2291 217.12 20.1691 216.928C20.1091 216.736 19.9971 216.57 19.8331 216.43C19.6691 216.29 19.4431 216.18 19.1551 216.1C18.8711 216.02 18.5051 215.98 18.0571 215.98V215.206C18.4251 215.202 18.7371 215.162 18.9931 215.086C19.2531 215.01 19.4631 214.906 19.6231 214.774C19.7871 214.642 19.9051 214.484 19.9771 214.3C20.0531 214.116 20.0911 213.912 20.0911 213.688C20.0911 213.44 20.0511 213.224 19.9711 213.04C19.8951 212.856 19.7891 212.704 19.6531 212.584C19.5171 212.464 19.3551 212.374 19.1671 212.314C18.9831 212.254 18.7831 212.224 18.5671 212.224C18.3511 212.224 18.1491 212.256 17.9611 212.32C17.7771 212.384 17.6131 212.474 17.4691 212.59C17.3291 212.702 17.2111 212.836 17.1151 212.992C17.0191 213.148 16.9511 213.32 16.9111 213.508C16.8591 213.648 16.7931 213.742 16.7131 213.79C16.6371 213.834 16.5251 213.846 16.3771 213.826L15.8191 213.73ZM28.6 215.704C28.6 216.456 28.518 217.108 28.354 217.66C28.194 218.208 27.974 218.662 27.694 219.022C27.414 219.382 27.082 219.65 26.698 219.826C26.318 220.002 25.91 220.09 25.474 220.09C25.034 220.09 24.624 220.002 24.244 219.826C23.868 219.65 23.54 219.382 23.26 219.022C22.98 218.662 22.76 218.208 22.6 217.66C22.44 217.108 22.36 216.456 22.36 215.704C22.36 214.952 22.44 214.3 22.6 213.748C22.76 213.196 22.98 212.74 23.26 212.38C23.54 212.016 23.868 211.746 24.244 211.57C24.624 211.394 25.034 211.306 25.474 211.306C25.91 211.306 26.318 211.394 26.698 211.57C27.082 211.746 27.414 212.016 27.694 212.38C27.974 212.74 28.194 213.196 28.354 213.748C28.518 214.3 28.6 214.952 28.6 215.704ZM27.49 215.704C27.49 215.048 27.434 214.498 27.322 214.054C27.214 213.606 27.066 213.246 26.878 212.974C26.694 212.702 26.48 212.508 26.236 212.392C25.992 212.272 25.738 212.212 25.474 212.212C25.21 212.212 24.956 212.272 24.712 212.392C24.468 212.508 24.254 212.702 24.07 212.974C23.886 213.246 23.738 213.606 23.626 214.054C23.518 214.498 23.464 215.048 23.464 215.704C23.464 216.36 23.518 216.91 23.626 217.354C23.738 217.798 23.886 218.156 24.07 218.428C24.254 218.7 24.468 218.896 24.712 219.016C24.956 219.132 25.21 219.19 25.474 219.19C25.738 219.19 25.992 219.132 26.236 219.016C26.48 218.896 26.694 218.7 26.878 218.428C27.066 218.156 27.214 217.798 27.322 217.354C27.434 216.91 27.49 216.36 27.49 215.704Z" fill="#82818A"/>
<path d="M226.706 27.458C227.126 27.458 227.453 27.5747 227.686 27.808C227.929 28.0413 228.05 28.3493 228.05 28.732V31H213.966V29.74C213.966 29.4973 214.017 29.236 214.12 28.956C214.223 28.6667 214.395 28.4053 214.638 28.172L220.658 22.138C221.171 21.6247 221.624 21.1347 222.016 20.668C222.408 20.192 222.735 19.73 222.996 19.282C223.257 18.8247 223.453 18.3627 223.584 17.896C223.715 17.4293 223.78 16.9393 223.78 16.426C223.78 15.5207 223.547 14.8347 223.08 14.368C222.613 13.892 221.955 13.654 221.106 13.654C220.733 13.654 220.387 13.71 220.07 13.822C219.762 13.9247 219.482 14.0693 219.23 14.256C218.987 14.4427 218.777 14.662 218.6 14.914C218.423 15.166 218.292 15.4413 218.208 15.74C218.04 16.2067 217.811 16.5193 217.522 16.678C217.242 16.8273 216.841 16.86 216.318 16.776L214.274 16.412C214.423 15.4227 214.703 14.5547 215.114 13.808C215.525 13.0613 216.038 12.4407 216.654 11.946C217.27 11.4513 217.975 11.0827 218.768 10.84C219.561 10.588 220.415 10.462 221.33 10.462C222.291 10.462 223.164 10.6067 223.948 10.896C224.741 11.176 225.418 11.5727 225.978 12.086C226.538 12.59 226.972 13.2013 227.28 13.92C227.588 14.6387 227.742 15.432 227.742 16.3C227.742 17.0467 227.635 17.7373 227.42 18.372C227.205 19.0067 226.911 19.6133 226.538 20.192C226.174 20.7613 225.749 21.3167 225.264 21.858C224.779 22.3993 224.265 22.9453 223.724 23.496L219.412 27.906C219.888 27.766 220.359 27.6587 220.826 27.584C221.293 27.5 221.731 27.458 222.142 27.458H226.706ZM239.098 23.244V17.196C239.098 16.8787 239.108 16.5427 239.126 16.188C239.154 15.824 239.192 15.446 239.238 15.054L233.358 23.244H239.098ZM244.81 23.244V25.428C244.81 25.6333 244.74 25.8107 244.6 25.96C244.47 26.1 244.283 26.17 244.04 26.17H242.458V31H239.098V26.17H230.712C230.47 26.17 230.246 26.0953 230.04 25.946C229.844 25.7967 229.723 25.6007 229.676 25.358L229.27 23.426L238.79 10.672H242.458V23.244H244.81ZM260.248 24.556C260.248 25.684 260.125 26.662 259.879 27.49C259.639 28.312 259.309 28.993 258.889 29.533C258.469 30.073 257.971 30.475 257.395 30.739C256.825 31.003 256.213 31.135 255.559 31.135C254.899 31.135 254.284 31.003 253.714 30.739C253.15 30.475 252.658 30.073 252.238 29.533C251.818 28.993 251.488 28.312 251.248 27.49C251.008 26.662 250.888 25.684 250.888 24.556C250.888 23.428 251.008 22.45 251.248 21.622C251.488 20.794 251.818 20.11 252.238 19.57C252.658 19.024 253.15 18.619 253.714 18.355C254.284 18.091 254.899 17.959 255.559 17.959C256.213 17.959 256.825 18.091 257.395 18.355C257.971 18.619 258.469 19.024 258.889 19.57C259.309 20.11 259.639 20.794 259.879 21.622C260.125 22.45 260.248 23.428 260.248 24.556ZM258.583 24.556C258.583 23.572 258.499 22.747 258.331 22.081C258.169 21.409 257.947 20.869 257.665 20.461C257.389 20.053 257.068 19.762 256.702 19.588C256.336 19.408 255.955 19.318 255.559 19.318C255.163 19.318 254.782 19.408 254.416 19.588C254.05 19.762 253.729 20.053 253.453 20.461C253.177 20.869 252.955 21.409 252.787 22.081C252.625 22.747 252.544 23.572 252.544 24.556C252.544 25.54 252.625 26.365 252.787 27.031C252.955 27.697 253.177 28.234 253.453 28.642C253.729 29.05 254.05 29.344 254.416 29.524C254.782 29.698 255.163 29.785 255.559 29.785C255.955 29.785 256.336 29.698 256.702 29.524C257.068 29.344 257.389 29.05 257.665 28.642C257.947 28.234 258.169 27.697 258.331 27.031C258.499 26.365 258.583 25.54 258.583 24.556ZM270.689 24.556C270.689 25.684 270.566 26.662 270.32 27.49C270.08 28.312 269.75 28.993 269.33 29.533C268.91 30.073 268.412 30.475 267.836 30.739C267.266 31.003 266.654 31.135 266 31.135C265.34 31.135 264.725 31.003 264.155 30.739C263.591 30.475 263.099 30.073 262.679 29.533C262.259 28.993 261.929 28.312 261.689 27.49C261.449 26.662 261.329 25.684 261.329 24.556C261.329 23.428 261.449 22.45 261.689 21.622C261.929 20.794 262.259 20.11 262.679 19.57C263.099 19.024 263.591 18.619 264.155 18.355C264.725 18.091 265.34 17.959 266 17.959C266.654 17.959 267.266 18.091 267.836 18.355C268.412 18.619 268.91 19.024 269.33 19.57C269.75 20.11 270.08 20.794 270.32 21.622C270.566 22.45 270.689 23.428 270.689 24.556ZM269.024 24.556C269.024 23.572 268.94 22.747 268.772 22.081C268.61 21.409 268.388 20.869 268.106 20.461C267.83 20.053 267.509 19.762 267.143 19.588C266.777 19.408 266.396 19.318 266 19.318C265.604 19.318 265.223 19.408 264.857 19.588C264.491 19.762 264.17 20.053 263.894 20.461C263.618 20.869 263.396 21.409 263.228 22.081C263.066 22.747 262.985 23.572 262.985 24.556C262.985 25.54 263.066 26.365 263.228 27.031C263.396 27.697 263.618 28.234 263.894 28.642C264.17 29.05 264.491 29.344 264.857 29.524C265.223 29.698 265.604 29.785 266 29.785C266.396 29.785 266.777 29.698 267.143 29.524C267.509 29.344 267.83 29.05 268.106 28.642C268.388 28.234 268.61 27.697 268.772 27.031C268.94 26.365 269.024 25.54 269.024 24.556ZM281.13 24.556C281.13 25.684 281.007 26.662 280.761 27.49C280.521 28.312 280.191 28.993 279.771 29.533C279.351 30.073 278.853 30.475 278.277 30.739C277.707 31.003 277.095 31.135 276.441 31.135C275.781 31.135 275.166 31.003 274.596 30.739C274.032 30.475 273.54 30.073 273.12 29.533C272.7 28.993 272.37 28.312 272.13 27.49C271.89 26.662 271.77 25.684 271.77 24.556C271.77 23.428 271.89 22.45 272.13 21.622C272.37 20.794 272.7 20.11 273.12 19.57C273.54 19.024 274.032 18.619 274.596 18.355C275.166 18.091 275.781 17.959 276.441 17.959C277.095 17.959 277.707 18.091 278.277 18.355C278.853 18.619 279.351 19.024 279.771 19.57C280.191 20.11 280.521 20.794 280.761 21.622C281.007 22.45 281.13 23.428 281.13 24.556ZM279.465 24.556C279.465 23.572 279.381 22.747 279.213 22.081C279.051 21.409 278.829 20.869 278.547 20.461C278.271 20.053 277.95 19.762 277.584 19.588C277.218 19.408 276.837 19.318 276.441 19.318C276.045 19.318 275.664 19.408 275.298 19.588C274.932 19.762 274.611 20.053 274.335 20.461C274.059 20.869 273.837 21.409 273.669 22.081C273.507 22.747 273.426 23.572 273.426 24.556C273.426 25.54 273.507 26.365 273.669 27.031C273.837 27.697 274.059 28.234 274.335 28.642C274.611 29.05 274.932 29.344 275.298 29.524C275.664 29.698 276.045 29.785 276.441 29.785C276.837 29.785 277.218 29.698 277.584 29.524C277.95 29.344 278.271 29.05 278.547 28.642C278.829 28.234 279.051 27.697 279.213 27.031C279.381 26.365 279.465 25.54 279.465 24.556ZM296.177 24.556C296.177 25.684 296.054 26.662 295.808 27.49C295.568 28.312 295.238 28.993 294.818 29.533C294.398 30.073 293.9 30.475 293.324 30.739C292.754 31.003 292.142 31.135 291.488 31.135C290.828 31.135 290.213 31.003 289.643 30.739C289.079 30.475 288.587 30.073 288.167 29.533C287.747 28.993 287.417 28.312 287.177 27.49C286.937 26.662 286.817 25.684 286.817 24.556C286.817 23.428 286.937 22.45 287.177 21.622C287.417 20.794 287.747 20.11 288.167 19.57C288.587 19.024 289.079 18.619 289.643 18.355C290.213 18.091 290.828 17.959 291.488 17.959C292.142 17.959 292.754 18.091 293.324 18.355C293.9 18.619 294.398 19.024 294.818 19.57C295.238 20.11 295.568 20.794 295.808 21.622C296.054 22.45 296.177 23.428 296.177 24.556ZM294.512 24.556C294.512 23.572 294.428 22.747 294.26 22.081C294.098 21.409 293.876 20.869 293.594 20.461C293.318 20.053 292.997 19.762 292.631 19.588C292.265 19.408 291.884 19.318 291.488 19.318C291.092 19.318 290.711 19.408 290.345 19.588C289.979 19.762 289.658 20.053 289.382 20.461C289.106 20.869 288.884 21.409 288.716 22.081C288.554 22.747 288.473 23.572 288.473 24.556C288.473 25.54 288.554 26.365 288.716 27.031C288.884 27.697 289.106 28.234 289.382 28.642C289.658 29.05 289.979 29.344 290.345 29.524C290.711 29.698 291.092 29.785 291.488 29.785C291.884 29.785 292.265 29.698 292.631 29.524C292.997 29.344 293.318 29.05 293.594 28.642C293.876 28.234 294.098 27.697 294.26 27.031C294.428 26.365 294.512 25.54 294.512 24.556ZM306.619 24.556C306.619 25.684 306.496 26.662 306.25 27.49C306.01 28.312 305.68 28.993 305.26 29.533C304.84 30.073 304.342 30.475 303.766 30.739C303.196 31.003 302.584 31.135 301.93 31.135C301.27 31.135 300.655 31.003 300.085 30.739C299.521 30.475 299.029 30.073 298.609 29.533C298.189 28.993 297.859 28.312 297.619 27.49C297.379 26.662 297.259 25.684 297.259 24.556C297.259 23.428 297.379 22.45 297.619 21.622C297.859 20.794 298.189 20.11 298.609 19.57C299.029 19.024 299.521 18.619 300.085 18.355C300.655 18.091 301.27 17.959 301.93 17.959C302.584 17.959 303.196 18.091 303.766 18.355C304.342 18.619 304.84 19.024 305.26 19.57C305.68 20.11 306.01 20.794 306.25 21.622C306.496 22.45 306.619 23.428 306.619 24.556ZM304.954 24.556C304.954 23.572 304.87 22.747 304.702 22.081C304.54 21.409 304.318 20.869 304.036 20.461C303.76 20.053 303.439 19.762 303.073 19.588C302.707 19.408 302.326 19.318 301.93 19.318C301.534 19.318 301.153 19.408 300.787 19.588C300.421 19.762 300.1 20.053 299.824 20.461C299.548 20.869 299.326 21.409 299.158 22.081C298.996 22.747 298.915 23.572 298.915 24.556C298.915 25.54 298.996 26.365 299.158 27.031C299.326 27.697 299.548 28.234 299.824 28.642C300.1 29.05 300.421 29.344 300.787 29.524C301.153 29.698 301.534 29.785 301.93 29.785C302.326 29.785 302.707 29.698 303.073 29.524C303.439 29.344 303.76 29.05 304.036 28.642C304.318 28.234 304.54 27.697 304.702 27.031C304.87 26.365 304.954 25.54 304.954 24.556ZM317.06 24.556C317.06 25.684 316.937 26.662 316.691 27.49C316.451 28.312 316.121 28.993 315.701 29.533C315.281 30.073 314.783 30.475 314.207 30.739C313.637 31.003 313.025 31.135 312.371 31.135C311.711 31.135 311.096 31.003 310.526 30.739C309.962 30.475 309.47 30.073 309.05 29.533C308.63 28.993 308.3 28.312 308.06 27.49C307.82 26.662 307.7 25.684 307.7 24.556C307.7 23.428 307.82 22.45 308.06 21.622C308.3 20.794 308.63 20.11 309.05 19.57C309.47 19.024 309.962 18.619 310.526 18.355C311.096 18.091 311.711 17.959 312.371 17.959C313.025 17.959 313.637 18.091 314.207 18.355C314.783 18.619 315.281 19.024 315.701 19.57C316.121 20.11 316.451 20.794 316.691 21.622C316.937 22.45 317.06 23.428 317.06 24.556ZM315.395 24.556C315.395 23.572 315.311 22.747 315.143 22.081C314.981 21.409 314.759 20.869 314.477 20.461C314.201 20.053 313.88 19.762 313.514 19.588C313.148 19.408 312.767 19.318 312.371 19.318C311.975 19.318 311.594 19.408 311.228 19.588C310.862 19.762 310.541 20.053 310.265 20.461C309.989 20.869 309.767 21.409 309.599 22.081C309.437 22.747 309.356 23.572 309.356 24.556C309.356 25.54 309.437 26.365 309.599 27.031C309.767 27.697 309.989 28.234 310.265 28.642C310.541 29.05 310.862 29.344 311.228 29.524C311.594 29.698 311.975 29.785 312.371 29.785C312.767 29.785 313.148 29.698 313.514 29.524C313.88 29.344 314.201 29.05 314.477 28.642C314.759 28.234 314.981 27.697 315.143 27.031C315.311 26.365 315.395 25.54 315.395 24.556Z" fill="#130E20"/>
<path d="M218.116 53.076C218.448 53.076 218.734 53.038 218.974 52.962C219.214 52.886 219.41 52.78 219.562 52.644C219.718 52.504 219.832 52.34 219.904 52.152C219.976 51.96 220.012 51.75 220.012 51.522C220.012 51.078 219.854 50.728 219.538 50.472C219.222 50.212 218.748 50.082 218.116 50.082H216.256V53.076H218.116ZM216.256 46.32V49.254H217.792C218.12 49.254 218.404 49.218 218.644 49.146C218.888 49.074 219.088 48.974 219.244 48.846C219.404 48.718 219.522 48.564 219.598 48.384C219.674 48.2 219.712 48 219.712 47.784C219.712 47.276 219.56 46.906 219.256 46.674C218.952 46.438 218.48 46.32 217.84 46.32H216.256ZM217.84 45.402C218.368 45.402 218.822 45.454 219.202 45.558C219.586 45.662 219.9 45.81 220.144 46.002C220.392 46.194 220.574 46.43 220.69 46.71C220.806 46.986 220.864 47.298 220.864 47.646C220.864 47.858 220.83 48.062 220.762 48.258C220.698 48.45 220.6 48.63 220.468 48.798C220.336 48.966 220.168 49.118 219.964 49.254C219.764 49.386 219.528 49.494 219.256 49.578C219.888 49.698 220.362 49.924 220.678 50.256C220.998 50.584 221.158 51.016 221.158 51.552C221.158 51.916 221.09 52.248 220.954 52.548C220.822 52.848 220.626 53.106 220.366 53.322C220.11 53.538 219.794 53.706 219.418 53.826C219.042 53.942 218.614 54 218.134 54H215.098V45.402H217.84ZM225.072 47.826C225.516 47.826 225.916 47.9 226.272 48.048C226.628 48.196 226.932 48.406 227.184 48.678C227.436 48.95 227.628 49.28 227.76 49.668C227.896 50.052 227.964 50.482 227.964 50.958C227.964 51.438 227.896 51.87 227.76 52.254C227.628 52.638 227.436 52.966 227.184 53.238C226.932 53.51 226.628 53.72 226.272 53.868C225.916 54.012 225.516 54.084 225.072 54.084C224.624 54.084 224.22 54.012 223.86 53.868C223.504 53.72 223.2 53.51 222.948 53.238C222.696 52.966 222.502 52.638 222.366 52.254C222.234 51.87 222.168 51.438 222.168 50.958C222.168 50.482 222.234 50.052 222.366 49.668C222.502 49.28 222.696 48.95 222.948 48.678C223.2 48.406 223.504 48.196 223.86 48.048C224.22 47.9 224.624 47.826 225.072 47.826ZM225.072 53.25C225.672 53.25 226.12 53.05 226.416 52.65C226.712 52.246 226.86 51.684 226.86 50.964C226.86 50.24 226.712 49.676 226.416 49.272C226.12 48.868 225.672 48.666 225.072 48.666C224.768 48.666 224.502 48.718 224.274 48.822C224.05 48.926 223.862 49.076 223.71 49.272C223.562 49.468 223.45 49.71 223.374 49.998C223.302 50.282 223.266 50.604 223.266 50.964C223.266 51.684 223.414 52.246 223.71 52.65C224.01 53.05 224.464 53.25 225.072 53.25ZM228.817 48.546C229.045 48.33 229.321 48.156 229.645 48.024C229.973 47.892 230.367 47.826 230.827 47.826C231.195 47.826 231.519 47.872 231.799 47.964C232.079 48.052 232.313 48.17 232.501 48.318C232.693 48.466 232.837 48.636 232.933 48.828C233.033 49.016 233.083 49.212 233.083 49.416C233.083 49.536 233.063 49.662 233.023 49.794C232.987 49.926 232.925 50.052 232.837 50.172C232.749 50.292 232.635 50.404 232.495 50.508C232.355 50.612 232.181 50.696 231.973 50.76C232.361 50.876 232.665 51.062 232.885 51.318C233.109 51.574 233.221 51.888 233.221 52.26C233.221 52.54 233.157 52.794 233.029 53.022C232.901 53.246 232.729 53.438 232.513 53.598C232.297 53.754 232.045 53.874 231.757 53.958C231.473 54.042 231.175 54.084 230.863 54.084C230.667 54.084 230.467 54.066 230.263 54.03C230.063 53.994 229.867 53.938 229.675 53.862C229.483 53.782 229.301 53.684 229.129 53.568C228.961 53.452 228.811 53.312 228.679 53.148L228.979 52.758C229.027 52.69 229.095 52.656 229.183 52.656C229.255 52.656 229.331 52.688 229.411 52.752C229.495 52.812 229.597 52.88 229.717 52.956C229.837 53.032 229.983 53.102 230.155 53.166C230.331 53.226 230.545 53.256 230.797 53.256C231.017 53.256 231.213 53.23 231.385 53.178C231.561 53.122 231.709 53.046 231.829 52.95C231.949 52.854 232.041 52.74 232.105 52.608C232.169 52.476 232.201 52.332 232.201 52.176C232.201 51.876 232.075 51.634 231.823 51.45C231.575 51.266 231.197 51.174 230.689 51.174H229.999V50.466H230.689C230.909 50.466 231.107 50.444 231.283 50.4C231.459 50.352 231.609 50.288 231.733 50.208C231.857 50.128 231.951 50.032 232.015 49.92C232.079 49.804 232.111 49.68 232.111 49.548C232.111 49.428 232.083 49.314 232.027 49.206C231.975 49.098 231.893 49.004 231.781 48.924C231.673 48.844 231.537 48.78 231.373 48.732C231.209 48.684 231.017 48.66 230.797 48.66C230.557 48.66 230.353 48.684 230.185 48.732C230.021 48.78 229.881 48.832 229.765 48.888C229.653 48.944 229.561 48.996 229.489 49.044C229.417 49.092 229.355 49.116 229.303 49.116C229.251 49.116 229.207 49.106 229.171 49.086C229.139 49.066 229.103 49.024 229.063 48.96L228.817 48.546ZM241.366 47.904V54H240.4V49.962C240.4 49.85 240.406 49.726 240.418 49.59C240.434 49.45 240.454 49.32 240.478 49.2L238.366 52.902C238.334 52.962 238.292 53.01 238.24 53.046C238.188 53.082 238.128 53.1 238.06 53.1H237.94C237.872 53.1 237.81 53.082 237.754 53.046C237.702 53.01 237.66 52.962 237.628 52.902L235.48 49.188C235.5 49.308 235.518 49.44 235.534 49.584C235.55 49.724 235.558 49.85 235.558 49.962V54H234.592V47.904H235.45C235.526 47.904 235.6 47.922 235.672 47.958C235.744 47.99 235.806 48.052 235.858 48.144L237.754 51.312C237.846 51.496 237.928 51.69 238 51.894C238.068 51.682 238.148 51.488 238.24 51.312L240.1 48.144C240.152 48.048 240.214 47.984 240.286 47.952C240.358 47.92 240.432 47.904 240.508 47.904H241.366ZM245.615 47.826C246.059 47.826 246.459 47.9 246.815 48.048C247.171 48.196 247.475 48.406 247.727 48.678C247.979 48.95 248.171 49.28 248.303 49.668C248.439 50.052 248.507 50.482 248.507 50.958C248.507 51.438 248.439 51.87 248.303 52.254C248.171 52.638 247.979 52.966 247.727 53.238C247.475 53.51 247.171 53.72 246.815 53.868C246.459 54.012 246.059 54.084 245.615 54.084C245.167 54.084 244.763 54.012 244.403 53.868C244.047 53.72 243.743 53.51 243.491 53.238C243.239 52.966 243.045 52.638 242.909 52.254C242.777 51.87 242.711 51.438 242.711 50.958C242.711 50.482 242.777 50.052 242.909 49.668C243.045 49.28 243.239 48.95 243.491 48.678C243.743 48.406 244.047 48.196 244.403 48.048C244.763 47.9 245.167 47.826 245.615 47.826ZM245.615 53.25C246.215 53.25 246.663 53.05 246.959 52.65C247.255 52.246 247.403 51.684 247.403 50.964C247.403 50.24 247.255 49.676 246.959 49.272C246.663 48.868 246.215 48.666 245.615 48.666C245.311 48.666 245.045 48.718 244.817 48.822C244.593 48.926 244.405 49.076 244.253 49.272C244.105 49.468 243.993 49.71 243.917 49.998C243.845 50.282 243.809 50.604 243.809 50.964C243.809 51.684 243.957 52.246 244.253 52.65C244.553 53.05 245.007 53.25 245.615 53.25ZM258.076 54H257.332C257.14 54 256.992 53.97 256.888 53.91C256.788 53.85 256.71 53.756 256.654 53.628L255.472 51.738C255.276 51.426 254.994 51.27 254.626 51.27H254.014V54.006H252.976V51.27H252.37C252.19 51.27 252.026 51.31 251.878 51.39C251.734 51.47 251.616 51.586 251.524 51.738L250.342 53.628C250.282 53.756 250.2 53.85 250.096 53.91C249.996 53.97 249.85 54 249.658 54H248.92L250.516 51.486C250.62 51.31 250.738 51.168 250.87 51.06C251.002 50.952 251.164 50.87 251.356 50.814C251.204 50.766 251.074 50.696 250.966 50.604C250.862 50.508 250.764 50.386 250.672 50.238L249.088 47.922H249.928C250.032 47.922 250.126 47.95 250.21 48.006C250.294 48.058 250.36 48.13 250.408 48.222L251.698 50.142C251.786 50.274 251.892 50.376 252.016 50.448C252.14 50.516 252.286 50.55 252.454 50.55H252.976V47.922H254.014V50.55H254.524C254.864 50.55 255.12 50.414 255.292 50.142L256.582 48.222C256.63 48.13 256.696 48.058 256.78 48.006C256.868 47.95 256.964 47.922 257.068 47.922H257.908L256.324 50.238C256.232 50.386 256.132 50.508 256.024 50.604C255.92 50.696 255.792 50.766 255.64 50.814C255.832 50.87 255.994 50.952 256.126 51.06C256.258 51.168 256.376 51.31 256.48 51.486L258.076 54ZM264.137 47.922V54H263.063V51.156H260.147V54H259.073V47.922H260.147V50.346H263.063V47.922H264.137ZM268.168 53.22C268.384 53.22 268.57 53.194 268.726 53.142C268.886 53.086 269.018 53.01 269.122 52.914C269.226 52.814 269.304 52.698 269.356 52.566C269.408 52.434 269.434 52.29 269.434 52.134C269.434 51.99 269.412 51.856 269.368 51.732C269.324 51.604 269.25 51.492 269.146 51.396C269.046 51.3 268.914 51.224 268.75 51.168C268.586 51.112 268.386 51.084 268.15 51.084H266.854V53.22H268.168ZM268.15 50.304C268.57 50.304 268.922 50.354 269.206 50.454C269.494 50.554 269.724 50.688 269.896 50.856C270.072 51.024 270.198 51.218 270.274 51.438C270.35 51.658 270.388 51.886 270.388 52.122C270.388 52.394 270.34 52.646 270.244 52.878C270.148 53.106 270.006 53.304 269.818 53.472C269.63 53.636 269.398 53.766 269.122 53.862C268.846 53.954 268.528 54 268.168 54H265.834V47.922H266.854V50.304H268.15ZM272.794 47.922V54H271.726V47.922H272.794ZM278.562 50.298C278.562 50.05 278.526 49.824 278.454 49.62C278.386 49.412 278.284 49.234 278.148 49.086C278.016 48.934 277.854 48.818 277.662 48.738C277.47 48.654 277.252 48.612 277.008 48.612C276.496 48.612 276.09 48.762 275.79 49.062C275.494 49.358 275.31 49.77 275.238 50.298H278.562ZM279.426 53.148C279.294 53.308 279.136 53.448 278.952 53.568C278.768 53.684 278.57 53.78 278.358 53.856C278.15 53.932 277.934 53.988 277.71 54.024C277.486 54.064 277.264 54.084 277.044 54.084C276.624 54.084 276.236 54.014 275.88 53.874C275.528 53.73 275.222 53.522 274.962 53.25C274.706 52.974 274.506 52.634 274.362 52.23C274.218 51.826 274.146 51.362 274.146 50.838C274.146 50.414 274.21 50.018 274.338 49.65C274.47 49.282 274.658 48.964 274.902 48.696C275.146 48.424 275.444 48.212 275.796 48.06C276.148 47.904 276.544 47.826 276.984 47.826C277.348 47.826 277.684 47.888 277.992 48.012C278.304 48.132 278.572 48.308 278.796 48.54C279.024 48.768 279.202 49.052 279.33 49.392C279.458 49.728 279.522 50.112 279.522 50.544C279.522 50.712 279.504 50.824 279.468 50.88C279.432 50.936 279.364 50.964 279.264 50.964H275.202C275.214 51.348 275.266 51.682 275.358 51.966C275.454 52.25 275.586 52.488 275.754 52.68C275.922 52.868 276.122 53.01 276.354 53.106C276.586 53.198 276.846 53.244 277.134 53.244C277.402 53.244 277.632 53.214 277.824 53.154C278.02 53.09 278.188 53.022 278.328 52.95C278.468 52.878 278.584 52.812 278.676 52.752C278.772 52.688 278.854 52.656 278.922 52.656C279.01 52.656 279.078 52.69 279.126 52.758L279.426 53.148ZM292.083 47.922V54H283.905V47.922H284.979V53.19H287.457V47.922H288.531V53.19H291.009V47.922H292.083ZM298.824 48.738H296.49V54H295.422V48.738H293.088V47.922H298.824V48.738ZM300.916 52.536C301.112 52.8 301.326 52.986 301.558 53.094C301.79 53.202 302.05 53.256 302.338 53.256C302.906 53.256 303.342 53.054 303.646 52.65C303.95 52.246 304.102 51.67 304.102 50.922C304.102 50.526 304.066 50.186 303.994 49.902C303.926 49.618 303.826 49.386 303.694 49.206C303.562 49.022 303.4 48.888 303.208 48.804C303.016 48.72 302.798 48.678 302.554 48.678C302.206 48.678 301.9 48.758 301.636 48.918C301.376 49.078 301.136 49.304 300.916 49.596V52.536ZM300.862 48.864C301.118 48.548 301.414 48.294 301.75 48.102C302.086 47.91 302.47 47.814 302.902 47.814C303.254 47.814 303.572 47.882 303.856 48.018C304.14 48.15 304.382 48.348 304.582 48.612C304.782 48.872 304.936 49.196 305.044 49.584C305.152 49.972 305.206 50.418 305.206 50.922C305.206 51.37 305.146 51.788 305.026 52.176C304.906 52.56 304.732 52.894 304.504 53.178C304.28 53.458 304.004 53.68 303.676 53.844C303.352 54.004 302.986 54.084 302.578 54.084C302.206 54.084 301.886 54.022 301.618 53.898C301.354 53.77 301.12 53.594 300.916 53.37V56.058H299.842V47.922H300.484C300.636 47.922 300.73 47.996 300.766 48.144L300.862 48.864ZM309.851 51.264C309.359 51.28 308.939 51.32 308.591 51.384C308.247 51.444 307.965 51.524 307.745 51.624C307.529 51.724 307.371 51.842 307.271 51.978C307.175 52.114 307.127 52.266 307.127 52.434C307.127 52.594 307.153 52.732 307.205 52.848C307.257 52.964 307.327 53.06 307.415 53.136C307.507 53.208 307.613 53.262 307.733 53.298C307.857 53.33 307.989 53.346 308.129 53.346C308.317 53.346 308.489 53.328 308.645 53.292C308.801 53.252 308.947 53.196 309.083 53.124C309.223 53.052 309.355 52.966 309.479 52.866C309.607 52.766 309.731 52.652 309.851 52.524V51.264ZM306.401 48.78C306.737 48.456 307.099 48.214 307.487 48.054C307.875 47.894 308.305 47.814 308.777 47.814C309.117 47.814 309.419 47.87 309.683 47.982C309.947 48.094 310.169 48.25 310.349 48.45C310.529 48.65 310.665 48.892 310.757 49.176C310.849 49.46 310.895 49.772 310.895 50.112V54H310.421C310.317 54 310.237 53.984 310.181 53.952C310.125 53.916 310.081 53.848 310.049 53.748L309.929 53.172C309.769 53.32 309.613 53.452 309.461 53.568C309.309 53.68 309.149 53.776 308.981 53.856C308.813 53.932 308.633 53.99 308.441 54.03C308.253 54.074 308.043 54.096 307.811 54.096C307.575 54.096 307.353 54.064 307.145 54C306.937 53.932 306.755 53.832 306.599 53.7C306.447 53.568 306.325 53.402 306.233 53.202C306.145 52.998 306.101 52.758 306.101 52.482C306.101 52.242 306.167 52.012 306.299 51.792C306.431 51.568 306.645 51.37 306.941 51.198C307.237 51.026 307.623 50.886 308.099 50.778C308.575 50.666 309.159 50.602 309.851 50.586V50.112C309.851 49.64 309.749 49.284 309.545 49.044C309.341 48.8 309.043 48.678 308.651 48.678C308.387 48.678 308.165 48.712 307.985 48.78C307.809 48.844 307.655 48.918 307.523 49.002C307.395 49.082 307.283 49.156 307.187 49.224C307.095 49.288 307.003 49.32 306.911 49.32C306.839 49.32 306.777 49.302 306.725 49.266C306.673 49.226 306.629 49.178 306.593 49.122L306.401 48.78ZM316.38 53.274C316.736 53.258 317.05 53.192 317.322 53.076C317.598 52.96 317.828 52.804 318.012 52.608C318.2 52.408 318.34 52.17 318.432 51.894C318.528 51.618 318.576 51.308 318.576 50.964C318.576 50.616 318.528 50.304 318.432 50.028C318.34 49.748 318.2 49.508 318.012 49.308C317.828 49.108 317.598 48.952 317.322 48.84C317.05 48.724 316.734 48.656 316.374 48.636V53.22L316.38 53.274ZM315.432 48.636C315.072 48.656 314.756 48.724 314.484 48.84C314.212 48.952 313.982 49.108 313.794 49.308C313.61 49.508 313.47 49.748 313.374 50.028C313.282 50.308 313.236 50.62 313.236 50.964C313.236 51.308 313.282 51.618 313.374 51.894C313.47 52.17 313.61 52.408 313.794 52.608C313.978 52.804 314.206 52.96 314.478 53.076C314.754 53.192 315.07 53.258 315.426 53.274L315.432 53.238V48.636ZM316.41 47.832C316.91 47.852 317.36 47.94 317.76 48.096C318.16 48.252 318.5 48.466 318.78 48.738C319.06 49.01 319.274 49.334 319.422 49.71C319.574 50.082 319.65 50.498 319.65 50.958C319.65 51.418 319.574 51.836 319.422 52.212C319.274 52.584 319.06 52.906 318.78 53.178C318.5 53.446 318.16 53.658 317.76 53.814C317.36 53.97 316.91 54.058 316.41 54.078V56.094H315.402V54.078C314.902 54.058 314.452 53.97 314.052 53.814C313.652 53.658 313.312 53.446 313.032 53.178C312.752 52.906 312.536 52.584 312.384 52.212C312.236 51.836 312.162 51.418 312.162 50.958C312.162 50.498 312.236 50.082 312.384 49.71C312.536 49.334 312.752 49.01 313.032 48.738C313.312 48.466 313.652 48.252 314.052 48.096C314.452 47.94 314.902 47.852 315.402 47.832V45.402H316.41V47.832ZM323.317 53.22C323.533 53.22 323.719 53.194 323.875 53.142C324.035 53.086 324.167 53.01 324.271 52.914C324.375 52.814 324.453 52.698 324.505 52.566C324.557 52.434 324.583 52.29 324.583 52.134C324.583 51.99 324.561 51.856 324.517 51.732C324.473 51.604 324.399 51.492 324.295 51.396C324.195 51.3 324.063 51.224 323.899 51.168C323.735 51.112 323.535 51.084 323.299 51.084H322.003V53.22H323.317ZM323.299 50.304C323.719 50.304 324.071 50.354 324.355 50.454C324.643 50.554 324.873 50.688 325.045 50.856C325.221 51.024 325.347 51.218 325.423 51.438C325.499 51.658 325.537 51.886 325.537 52.122C325.537 52.394 325.489 52.646 325.393 52.878C325.297 53.106 325.155 53.304 324.967 53.472C324.779 53.636 324.547 53.766 324.271 53.862C323.995 53.954 323.677 54 323.317 54H320.983V47.922H322.003V50.304H323.299ZM327.943 47.922V54H326.875V47.922H327.943Z" fill="#82818A"/>
<rect x="156" y="9" width="1" height="193" fill="#E3E3E4"/>
<rect x="140" y="98" width="16" height="16" fill="#F15087"/>
<rect x="118" y="130" width="38" height="16" fill="#F15087"/>
<rect x="85" y="162" width="71" height="16" fill="#F15087"/>
<rect x="157" y="98" width="198" height="16" fill="#07D1FE"/>
<rect x="157" y="130" width="39" height="16" fill="#07D1FE"/>
<rect x="157" y="162" width="24" height="16" fill="#07D1FE"/>
<rect x="5" y="199" width="348" height="1" fill="#E3E3E4"/>
<rect x="109" y="199" width="1" height="3" fill="#E3E3E4"/>
<rect x="212" y="199" width="1" height="3" fill="#E3E3E4"/>
<rect x="284" y="199" width="1" height="3" fill="#E3E3E4"/>
<rect x="364" y="199" width="1" height="3" fill="#E3E3E4"/>
<rect x="69" y="199" width="1" height="3" fill="#E3E3E4"/>
<rect x="21" y="199" width="1" height="3" fill="#E3E3E4"/>
<circle cx="4" cy="21" r="4" fill="#F15087"/>
<circle cx="201" cy="21" r="4" fill="#07D1FE"/>
</svg>
