<svg width="24" height="24" viewBox="0 0 24 24" fill="none" xmlns="http://www.w3.org/2000/svg">
<path opacity="0.7" d="M4 13.3333L7.55556 15.111L12 15.5555L16.8889 15.111L20 13.3333V17.3333L16.8889 19.5555L12 19.9999L7.55556 19.5555L4 17.3333V13.3333Z" fill="#F15087"/>
<path fill-rule="evenodd" clip-rule="evenodd" d="M12.0004 10.4003C16.4188 10.4003 20.0007 8.96753 20.0007 7.20014C20.0007 5.43275 16.4188 4 12.0004 4C7.58188 4 4 5.43275 4 7.20014C4 8.96753 7.58188 10.4003 12.0004 10.4003Z" stroke="black" stroke-width="1.3" stroke-linecap="round" stroke-linejoin="round"/>
<path d="M4 7.19995V11.9995C4 13.7666 7.58203 15.1996 12.0004 15.1996C16.4187 15.1996 20.0007 13.7674 20.0007 11.9995V7.19995" stroke="black" stroke-width="1.3" stroke-linecap="round" stroke-linejoin="round"/>
<path d="M4 11.9995V16.7997C4 18.5669 7.58203 19.9999 12.0004 19.9999C16.4187 19.9999 20.0007 18.5669 20.0007 16.7997V11.9995" stroke="black" stroke-width="1.3" stroke-linecap="round" stroke-linejoin="round"/>
</svg>
