<svg width="19" height="16" viewBox="0 0 19 16" fill="none" xmlns="http://www.w3.org/2000/svg">
<path d="M9.44504 5.22758L8.84953 5.15558L8.18955 5.07579L8.18641 5.07541L8.18641 5.0754C5.67151 4.7552 3.47352 3.66653 1.61714 1.85172L1.61448 1.84912L1.61448 1.84911L1.30795 1.54494C0.941692 2.76967 1.22678 4.01747 2.04669 4.85448L2.05291 4.86083L2.05286 4.86089C2.18699 5.00278 2.31106 5.14559 2.3898 5.2758C2.42554 5.3349 2.48539 5.44414 2.50009 5.58072C2.50826 5.65658 2.50439 5.75868 2.45802 5.86618C2.40955 5.9785 2.32966 6.06168 2.24222 6.11604C2.09131 6.20986 1.93416 6.20922 1.86546 6.20638C1.77882 6.20281 1.6909 6.18674 1.61121 6.16816C1.48767 6.13935 1.34074 6.09397 1.17428 6.03618C1.269 6.38348 1.39166 6.73451 1.48563 6.91384L1.48705 6.91655L1.48704 6.91655C1.77287 7.47032 2.38399 8.05154 3.07061 8.39883L3.71157 8.70194L3.50648 9.65387L2.7409 9.66713L2.73224 9.66728V9.6672C2.71665 9.6672 2.70147 9.66721 2.68671 9.66723C2.82063 9.88948 3.01835 10.124 3.27428 10.3499C3.66573 10.6953 4.15979 10.9902 4.67597 11.1676C4.67617 11.1677 4.67637 11.1678 4.67657 11.1678L5.49402 11.4468L6.51638 11.7956L5.58883 12.3493L4.87601 12.7748L4.87038 12.7782L4.87036 12.7781C3.93328 13.321 2.8632 13.667 1.77017 13.7855C2.10098 13.9219 2.42989 14.0456 2.69539 14.1286C5.37529 14.9522 8.56842 14.5944 10.9523 13.1914L9.44504 5.22758ZM9.44504 5.22758L9.40863 4.62885L9.369 3.9772L9.36902 3.9772L9.36869 3.97247C9.26656 2.52062 10.1604 1.17627 11.6116 0.64872M9.44504 5.22758L11.6116 0.64872M1.08236 13.3296L1.08585 13.486L4.51414 11.6407L4.71185 11.7082L5.07627 11.4906L5.33255 11.92L5.17108 12.3932L4.76942 12.2561L4.61973 12.3455C3.56379 12.9572 2.32307 13.303 1.08236 13.3296ZM1.08236 13.3296L1.08571 13.4859C0.976067 13.4349 0.873897 13.3858 0.781856 13.3399C0.877406 13.3355 0.97826 13.3319 1.08236 13.3296ZM11.6116 0.64872C11.8494 0.565852 12.2013 0.510541 12.5859 0.50135C12.9672 0.492238 13.3386 0.529469 13.6142 0.604721C13.8107 0.665818 14.2583 0.897439 14.5958 1.12399C14.5961 1.12421 14.5964 1.12443 14.5968 1.12466L15.2416 1.56222L15.4423 1.6984L15.6735 1.62508L16.3831 1.40002C16.4624 1.37602 16.5478 1.34864 16.6361 1.31893C16.6107 1.34758 16.5856 1.37479 16.5611 1.40028L16.561 1.40022L16.5547 1.40705C16.4169 1.55581 16.2836 1.71135 16.2051 1.85403C16.1716 1.91499 16.0997 2.0564 16.1132 2.23306C16.1211 2.33678 16.1587 2.45059 16.2419 2.54925C16.3215 2.64377 16.4171 2.69369 16.4924 2.71975C16.6272 2.76634 16.7582 2.75776 16.8321 2.74982C16.8465 2.74826 16.8612 2.74642 16.876 2.74432C16.5511 3.06637 16.3105 3.31336 16.1722 3.56733C16.0026 3.87876 15.9991 4.17052 15.9991 4.473C15.9991 4.88833 15.897 5.57284 15.7309 6.30763C15.5662 7.03657 15.3493 7.76766 15.14 8.27014L15.1391 8.27221C14.3468 10.1982 12.6356 12.1988 10.9526 13.1912L11.6116 0.64872ZM16.7138 1.75631C16.7139 1.7562 16.7163 1.75599 16.7207 1.75599C16.7159 1.75641 16.7137 1.75641 16.7138 1.75631ZM1.53718 5.79886C1.53706 5.79882 1.53591 5.79692 1.53411 5.79328C1.5364 5.79708 1.53731 5.7989 1.53718 5.79886ZM2.51276 9.26963C2.51271 9.2694 2.51267 9.26918 2.51263 9.26898L2.51276 9.26963ZM0 13.436C0 13.4106 0.197279 13.3798 0.493575 13.3574C0.497561 13.3815 0.5 13.4078 0.5 13.436C0.5 13.5578 0.456204 13.6525 0.414511 13.7139C0.162593 13.5822 0 13.4782 0 13.436Z" stroke="#6B6B72"/>
</svg>
