<svg width="24" height="24" viewBox="0 0 24 24" fill="none" xmlns="http://www.w3.org/2000/svg">
<path opacity="0.7" d="M20.9484 19.0004C21.0071 19.5496 20.5534 20 20.0012 20C18.7902 20 16.5873 20 14.0008 20C13.4485 20 13 19.5507 13 18.9985C13 16.5507 13 14.9309 13 13.9983C13 13.446 13.449 12.9954 13.9998 13.0362C17.6474 13.3062 20.5325 15.1054 20.9484 19.0004Z" fill="#F15087"/>
<path opacity="0.7" d="M14 12.5C14 12.5 12.7415 11.139 12.7415 8.63636C12.7415 6.1337 14 6 14 6C17.0125 6 19 6.1337 19 8.63636C19 11.139 17.0125 12.5 14 12.5Z" fill="#F15087"/>
<path d="M13.501 6.51803C14.7725 5.69193 16.4487 5.86877 17.5198 6.94201C18.5909 8.01524 18.7644 9.69182 17.9358 10.9617C17.1072 12.2315 15.5027 12.7479 14.089 12.1997" stroke="#130E20" stroke-width="1.3" stroke-linecap="round" stroke-linejoin="round"/>
<path d="M14.083 13.7132C15.6405 13.3603 17.2739 13.7348 18.5221 14.7308C19.7703 15.7268 20.498 17.2364 20.4996 18.8333" stroke="#130E20" stroke-width="1.3" stroke-linecap="round" stroke-linejoin="round"/>
<path d="M13.498 8.39819C14.3433 8.92853 15.3212 9.2092 16.319 9.20786C17.0444 9.20843 17.7622 9.06074 18.4284 8.77386" stroke="#130E20" stroke-width="1.3" stroke-linecap="round" stroke-linejoin="round"/>
<path d="M3 18.8332C3 15.9337 5.35049 13.5833 8.24997 13.5833C11.1494 13.5833 13.4999 15.9337 13.4999 18.8332" stroke="#130E20" stroke-width="1.3" stroke-linecap="round" stroke-linejoin="round"/>
<path d="M5.05146 9.46143L5.04213 10.0665C5.07261 10.9619 4.84036 11.8465 4.37402 12.6114" stroke="#130E20" stroke-width="1.3" stroke-linecap="round" stroke-linejoin="round"/>
<path d="M11.4567 9.29419V10.072C11.4265 10.9674 11.659 11.852 12.1256 12.6168" stroke="#130E20" stroke-width="1.3" stroke-linecap="round" stroke-linejoin="round"/>
<path d="M5.05176 9.46045C6.28037 9.45281 7.44598 8.91564 8.24996 7.98657C9.05322 8.91708 10.2189 9.45572 11.4482 9.46434" stroke="#130E20" stroke-width="1.3" stroke-linecap="round" stroke-linejoin="round"/>
<path fill-rule="evenodd" clip-rule="evenodd" d="M8.25031 12.4166C10.0222 12.4166 11.4586 10.9802 11.4586 9.20831C11.4586 7.43641 10.0222 6 8.25031 6C6.4784 6 5.04199 7.43641 5.04199 9.20831C5.04199 10.9802 6.4784 12.4166 8.25031 12.4166Z" stroke="#130E20" stroke-width="1.3" stroke-linecap="round" stroke-linejoin="round"/>
</svg>
