<svg width="24" height="24" viewBox="0 0 24 24" fill="none" xmlns="http://www.w3.org/2000/svg">
<path opacity="0.7" d="M12 9.80278C12 8.81337 13.2832 8.42484 13.8321 9.24808L16.9271 13.8906C17.8131 15.2197 16.8604 17 15.263 17H13C12.4477 17 12 16.5523 12 16V9.80278Z" fill="#F15087"/>
<path fill-rule="evenodd" clip-rule="evenodd" d="M11.9996 8.8C13.3251 8.8 14.3996 7.72548 14.3996 6.4C14.3996 5.07452 13.3251 4 11.9996 4C10.6741 4 9.59961 5.07452 9.59961 6.4C9.59961 7.72548 10.6741 8.8 11.9996 8.8Z" stroke="#130E20" stroke-width="1.3" stroke-linecap="round" stroke-linejoin="round"/>
<path fill-rule="evenodd" clip-rule="evenodd" d="M5.4 19.6C6.72548 19.6 7.8 18.5255 7.8 17.2C7.8 15.8746 6.72548 14.8 5.4 14.8C4.07452 14.8 3 15.8746 3 17.2C3 18.5255 4.07452 19.6 5.4 19.6Z" stroke="#130E20" stroke-width="1.3" stroke-linecap="round" stroke-linejoin="round"/>
<path fill-rule="evenodd" clip-rule="evenodd" d="M18.6002 19.6C19.9257 19.6 21.0002 18.5255 21.0002 17.2C21.0002 15.8746 19.9257 14.8 18.6002 14.8C17.2747 14.8 16.2002 15.8746 16.2002 17.2C16.2002 18.5255 17.2747 19.6 18.6002 19.6Z" stroke="#130E20" stroke-width="1.3" stroke-linecap="round" stroke-linejoin="round"/>
<path d="M7.7998 17.2H16.1998" stroke="#130E20" stroke-width="1.3" stroke-linecap="round" stroke-linejoin="round"/>
<path d="M13.3271 8.3999L17.5527 15.0399" stroke="#130E20" stroke-width="1.3" stroke-linecap="round" stroke-linejoin="round"/>
<path d="M10.6729 8.3999L6.44727 15.0399" stroke="#130E20" stroke-width="1.3" stroke-linecap="round" stroke-linejoin="round"/>
</svg>
