<svg width="24" height="24" viewBox="0 0 24 24" fill="none" xmlns="http://www.w3.org/2000/svg">
<path opacity="0.7" d="M20.9484 19.0004C21.0071 19.5495 20.5534 20 20.0012 20C18.7902 20 16.5873 20 14.0008 20C13.4485 20 13 19.5507 13 18.9984C13 16.5506 13 14.9308 13 13.9983C13 13.446 13.449 12.9953 13.9998 13.0361C17.6474 13.3062 20.5325 15.1053 20.9484 19.0004Z" fill="#009FE3"/>
<path opacity="0.7" d="M14 12.5C14 12.5 12.7415 11.139 12.7415 8.63632C12.7415 6.13366 14 5.99995 14 5.99995C17.0125 5.99995 19 6.13366 19 8.63632C19 11.139 17.0125 12.5 14 12.5Z" fill="#009FE3"/>
<path d="M13.5005 6.51798C14.772 5.69188 16.4483 5.86872 17.5194 6.94196C18.5905 8.0152 18.764 9.69177 17.9354 10.9616C17.1067 12.2315 15.5023 12.7478 14.0885 12.1996" stroke="#130E20" stroke-width="1.3" stroke-linecap="round" stroke-linejoin="round"/>
<path d="M14.0834 13.7131C15.6409 13.3603 17.2743 13.7347 18.5225 14.7308C19.7708 15.7268 20.4984 17.2363 20.5001 18.8332" stroke="#130E20" stroke-width="1.3" stroke-linecap="round" stroke-linejoin="round"/>
<path d="M13.4984 8.39807C14.3436 8.92841 15.3215 9.20908 16.3193 9.20773C17.0447 9.20831 17.7625 9.06062 18.4287 8.77374" stroke="#130E20" stroke-width="1.3" stroke-linecap="round" stroke-linejoin="round"/>
<path d="M3 18.8332C3 15.9337 5.35049 13.5832 8.24997 13.5832C11.1494 13.5832 13.4999 15.9337 13.4999 18.8332" stroke="#130E20" stroke-width="1.3" stroke-linecap="round" stroke-linejoin="round"/>
<path d="M5.05189 9.46133L5.04256 10.0664C5.07304 10.9618 4.84078 11.8464 4.37445 12.6113" stroke="#130E20" stroke-width="1.3" stroke-linecap="round" stroke-linejoin="round"/>
<path d="M11.4567 9.29413V10.0719C11.4264 10.9673 11.6589 11.852 12.1255 12.6168" stroke="#130E20" stroke-width="1.3" stroke-linecap="round" stroke-linejoin="round"/>
<path d="M5.05182 9.46041C6.28043 9.45276 7.44605 8.91559 8.25002 7.98653C9.05328 8.91704 10.219 9.45567 11.4482 9.4643" stroke="#130E20" stroke-width="1.3" stroke-linecap="round" stroke-linejoin="round"/>
<path fill-rule="evenodd" clip-rule="evenodd" d="M8.24988 12.4166C10.0218 12.4166 11.4582 10.9802 11.4582 9.20827C11.4582 7.43637 10.0218 5.99995 8.24988 5.99995C6.47798 5.99995 5.04156 7.43637 5.04156 9.20827C5.04156 10.9802 6.47798 12.4166 8.24988 12.4166Z" stroke="#130E20" stroke-width="1.3" stroke-linecap="round" stroke-linejoin="round"/>
</svg>
