<svg width="24" height="24" viewBox="0 0 24 24" fill="none" xmlns="http://www.w3.org/2000/svg">
<path opacity="0.7" d="M19 5.5V14H5L19 5.5Z" fill="#009FE3"/>
<path fill-rule="evenodd" clip-rule="evenodd" d="M19.2 13.9998V6.19998C19.2 5.53725 18.6627 5 18 5H6.00021C5.33748 5 4.80023 5.53725 4.80023 6.19998V13.9998H19.2Z" stroke="#130E20" stroke-width="1.3" stroke-linecap="round" stroke-linejoin="round"/>
<path fill-rule="evenodd" clip-rule="evenodd" d="M20.8967 17.7126C21.0616 18.0838 21.0276 18.5132 20.8062 18.8538C20.5848 19.1944 20.2061 19.3998 19.7999 19.3998H4.2002C3.794 19.3998 3.41535 19.1944 3.19396 18.8538C2.97257 18.5132 2.9385 18.0838 3.10342 17.7126L4.80019 13.9998H19.1999L20.8967 17.7126Z" stroke="#130E20" stroke-width="1.3" stroke-linecap="round" stroke-linejoin="round"/>
<path d="M10.8001 16.9998H13.2001" stroke="#130E20" stroke-width="1.3" stroke-linecap="round" stroke-linejoin="round"/>
</svg>
