<svg width="384" height="224" fill="none" xmlns="http://www.w3.org/2000/svg"><path d="M339.08 26.32h1.188v1.188h-1.188v1.422h1.188V31h1.674v-2.07h6.048v-1.422h-6.048v-1.206h1.674c1.8 0 2.916-.432 3.78-1.296.72-.702 1.116-1.674 1.116-2.808 0-1.44-.558-2.358-1.512-3.006-.81-.558-1.8-.792-3.33-.792h-3.402v6.48h-1.188v1.44zm7.686-4.068c0 .738-.198 1.332-.72 1.854-.558.522-1.332.774-2.7.774h-1.404v-5.04h1.656c1.062 0 1.692.144 2.25.504.63.414.918 1.026.918 1.908zm-329.38-4.84c.15-.99.43-1.857.84-2.604a6.162 6.162 0 011.54-1.862 6.289 6.289 0 012.1-1.106 8.418 8.418 0 012.562-.378c.97 0 1.839.14 2.604.42.775.27 1.428.644 1.96 1.12a4.834 4.834 0 011.218 1.666 4.87 4.87 0 01.434 2.044c0 .644-.07 1.213-.21 1.708a3.74 3.74 0 01-.602 1.274 3.565 3.565 0 01-.98.924 5.663 5.663 0 01-1.33.63c2.333.765 3.5 2.32 3.5 4.662 0 1.036-.191 1.95-.574 2.744a5.854 5.854 0 01-1.54 1.974 6.623 6.623 0 01-2.254 1.204c-.85.261-1.74.392-2.674.392-.99 0-1.862-.112-2.618-.336a6.035 6.035 0 01-2.002-1.008 6.272 6.272 0 01-1.47-1.68c-.41-.681-.77-1.475-1.078-2.38l1.708-.7c.448-.187.863-.238 1.246-.154.392.084.672.29.84.616.187.355.383.681.588.98.215.299.453.56.714.784.261.215.555.383.882.504.336.121.719.182 1.148.182.541 0 1.013-.089 1.414-.266a3.156 3.156 0 001.008-.686c.27-.29.471-.611.602-.966.14-.364.21-.723.21-1.078 0-.467-.042-.887-.126-1.26a1.723 1.723 0 00-.588-.966c-.299-.27-.747-.476-1.344-.616-.588-.15-1.39-.224-2.408-.224v-2.716c.85 0 1.545-.07 2.086-.21.541-.14.966-.336 1.274-.588a1.9 1.9 0 00.63-.91 3.57 3.57 0 00.182-1.162c0-.887-.233-1.563-.7-2.03-.457-.467-1.11-.7-1.96-.7-.373 0-.719.056-1.036.168a2.989 2.989 0 00-.84.434 3.011 3.011 0 00-.63.658 2.69 2.69 0 00-.392.826c-.177.467-.406.78-.686.938-.28.15-.686.182-1.218.098l-2.03-.364zm30.466 4.424c0 1.773-.191 3.313-.574 4.62-.383 1.307-.91 2.39-1.582 3.248-.672.85-1.47 1.484-2.394 1.904a7.162 7.162 0 01-2.968.616 7.162 7.162 0 01-2.968-.616c-.914-.42-1.703-1.055-2.366-1.904-.663-.859-1.185-1.941-1.568-3.248-.373-1.307-.56-2.847-.56-4.62 0-1.773.187-3.309.56-4.606.383-1.307.905-2.385 1.568-3.234.663-.859 1.452-1.493 2.366-1.904a7.026 7.026 0 012.968-.63c1.064 0 2.053.21 2.968.63.924.41 1.722 1.045 2.394 1.904.672.85 1.2 1.927 1.582 3.234.383 1.297.574 2.833.574 4.606zm-3.99 0c0-1.437-.102-2.623-.308-3.556-.196-.933-.457-1.67-.784-2.212-.327-.541-.705-.92-1.134-1.134a2.827 2.827 0 00-1.302-.322c-.448 0-.882.107-1.302.322-.41.215-.78.593-1.106 1.134-.317.541-.574 1.279-.77 2.212-.196.933-.294 2.119-.294 3.556 0 1.447.098 2.637.294 3.57.196.933.453 1.67.77 2.212.327.541.695.92 1.106 1.134.42.215.854.322 1.302.322.448 0 .882-.107 1.302-.322.43-.215.807-.593 1.134-1.134.327-.541.588-1.279.784-2.212.206-.933.308-2.123.308-3.57z" fill="#130E20"/><path d="M21.116 53.076c.332 0 .618-.038.858-.114.24-.076.436-.182.588-.318.156-.14.27-.304.342-.492a1.78 1.78 0 00.108-.63c0-.444-.158-.794-.474-1.05-.316-.26-.79-.39-1.422-.39h-1.86v2.994h1.86zm-1.86-6.756v2.934h1.536c.328 0 .612-.036.852-.108.244-.072.444-.172.6-.3.16-.128.278-.282.354-.462.076-.184.114-.384.114-.6 0-.508-.152-.878-.456-1.11-.304-.236-.776-.354-1.416-.354h-1.584zm1.584-.918c.528 0 .982.052 1.362.156.384.104.698.252.942.444.248.192.43.428.546.708.116.276.174.588.174.936a1.854 1.854 0 01-.396 1.152c-.132.168-.3.32-.504.456-.2.132-.436.24-.708.324.632.12 1.106.346 1.422.678.32.328.48.76.48 1.296 0 .364-.068.696-.204.996a2.09 2.09 0 01-.588.774 2.745 2.745 0 01-.948.504 4.354 4.354 0 01-1.284.174h-3.036v-8.598h2.742zm8.9 3.6a.477.477 0 01-.096.102.216.216 0 01-.132.036.365.365 0 01-.198-.072 2.74 2.74 0 00-.27-.168 1.91 1.91 0 00-.39-.162 1.76 1.76 0 00-.564-.078c-.3 0-.564.054-.792.162-.228.104-.42.256-.576.456a2.15 2.15 0 00-.348.726 3.692 3.692 0 00-.114.954c0 .368.042.696.126.984.084.284.202.524.354.72.156.192.342.34.558.444.22.1.466.15.738.15.26 0 .474-.03.642-.09.168-.064.306-.134.414-.21.112-.076.204-.144.276-.204a.35.35 0 01.222-.096c.088 0 .156.034.204.102l.3.39a2.128 2.128 0 01-.45.42c-.168.116-.35.214-.546.294a3.011 3.011 0 01-.606.168 3.864 3.864 0 01-.648.054c-.38 0-.734-.07-1.062-.21a2.44 2.44 0 01-.846-.606 2.885 2.885 0 01-.564-.984 3.997 3.997 0 01-.204-1.326c0-.452.062-.87.186-1.254.128-.384.312-.714.552-.99.244-.28.542-.498.894-.654a3.023 3.023 0 011.224-.234c.428 0 .804.07 1.128.21.328.136.618.33.87.582l-.282.384zm5.463 1.296c0-.248-.036-.474-.108-.678a1.437 1.437 0 00-.306-.534 1.292 1.292 0 00-.486-.348 1.616 1.616 0 00-.654-.126c-.512 0-.918.15-1.218.45-.296.296-.48.708-.552 1.236h3.324zm.864 2.85c-.132.16-.29.3-.474.42a3.022 3.022 0 01-.594.288 3.503 3.503 0 01-.648.168c-.224.04-.446.06-.666.06-.42 0-.808-.07-1.164-.21a2.636 2.636 0 01-.918-.624 2.919 2.919 0 01-.6-1.02 4.135 4.135 0 01-.216-1.392c0-.424.064-.82.192-1.188.132-.368.32-.686.564-.954.244-.272.542-.484.894-.636a2.902 2.902 0 011.188-.234c.364 0 .7.062 1.008.186.312.12.58.296.804.528.228.228.406.512.534.852.128.336.192.72.192 1.152 0 .168-.018.28-.054.336-.036.056-.104.084-.204.084h-4.062c.012.384.064.718.156 1.002.096.284.228.522.396.714.168.188.368.33.6.426a2.1 2.1 0 00.78.138c.268 0 .498-.03.69-.09a3.456 3.456 0 00.852-.402.47.47 0 01.246-.096c.088 0 .156.034.204.102l.3.39zm5.35-4.41h-2.868V54h-1.074v-6.078h3.942v.816zm3.284-.912a3.1 3.1 0 011.2.222c.356.148.66.358.912.63s.444.602.576.99c.136.384.204.814.204 1.29 0 .48-.068.912-.204 1.296a2.735 2.735 0 01-.576.984 2.572 2.572 0 01-.912.63 3.175 3.175 0 01-1.2.216c-.448 0-.852-.072-1.212-.216a2.572 2.572 0 01-.912-.63 2.805 2.805 0 01-.582-.984 3.972 3.972 0 01-.198-1.296c0-.476.066-.906.198-1.29.136-.388.33-.718.582-.99.252-.272.556-.482.912-.63.36-.148.764-.222 1.212-.222zm0 5.424c.6 0 1.048-.2 1.344-.6.296-.404.444-.966.444-1.686 0-.724-.148-1.288-.444-1.692-.296-.404-.744-.606-1.344-.606-.304 0-.57.052-.798.156a1.507 1.507 0 00-.564.45c-.148.196-.26.438-.336.726a3.941 3.941 0 00-.108.966c0 .72.148 1.282.444 1.686.3.4.754.6 1.362.6zm8.39-.714c.197.264.41.45.643.558.232.108.492.162.78.162.568 0 1.004-.202 1.308-.606.304-.404.456-.98.456-1.728 0-.396-.036-.736-.108-1.02a1.926 1.926 0 00-.3-.696 1.171 1.171 0 00-.486-.402 1.616 1.616 0 00-.654-.126c-.348 0-.654.08-.918.24-.26.16-.5.386-.72.678v2.94zm-.053-3.672c.256-.316.552-.57.888-.762a2.28 2.28 0 011.152-.288c.352 0 .67.068.954.204.284.132.526.33.726.594.2.26.354.584.462.972.108.388.162.834.162 1.338 0 .448-.06.866-.18 1.254-.12.384-.294.718-.522 1.002-.224.28-.5.502-.828.666-.324.16-.69.24-1.098.24-.372 0-.692-.062-.96-.186a2.301 2.301 0 01-.702-.528v2.688h-1.074v-8.136h.642c.152 0 .246.074.282.222l.096.72zm10.909-.942V54h-1.068v-4.128c0-.08.004-.166.012-.258s.018-.184.03-.276c-.036.08-.072.154-.108.222a1.64 1.64 0 01-.114.186l-2.934 3.99c-.044.064-.1.126-.168.186a.32.32 0 01-.216.084h-.648v-6.078h1.074v4.128c0 .076-.004.16-.012.252a6.961 6.961 0 01-.03.27c.036-.076.072-.146.108-.21.036-.068.072-.13.108-.186l2.934-3.99a.882.882 0 01.168-.18.33.33 0 01.222-.09h.642zm5.918 1.08a.477.477 0 01-.096.102.216.216 0 01-.132.036.365.365 0 01-.198-.072 2.74 2.74 0 00-.27-.168 1.91 1.91 0 00-.39-.162 1.76 1.76 0 00-.564-.078c-.3 0-.564.054-.792.162-.228.104-.42.256-.576.456a2.15 2.15 0 00-.348.726 3.692 3.692 0 00-.114.954c0 .368.042.696.126.984.084.284.202.524.354.72.156.192.342.34.558.444.22.1.466.15.738.15.26 0 .474-.03.642-.09.168-.064.306-.134.414-.21.112-.076.204-.144.276-.204a.35.35 0 01.222-.096c.088 0 .156.034.204.102l.3.39a2.128 2.128 0 01-.45.42c-.168.116-.35.214-.546.294a3.011 3.011 0 01-.606.168 3.864 3.864 0 01-.648.054c-.38 0-.734-.07-1.062-.21a2.44 2.44 0 01-.846-.606 2.885 2.885 0 01-.564-.984 3.997 3.997 0 01-.204-1.326c0-.452.062-.87.186-1.254.128-.384.312-.714.552-.99.244-.28.542-.498.894-.654a3.023 3.023 0 011.224-.234c.428 0 .804.07 1.128.21.328.136.618.33.87.582l-.282.384zm5.19-.78a.675.675 0 01.222-.216.556.556 0 01.294-.084h.835l-1.579 2.316c-.096.148-.195.27-.3.366a1.117 1.117 0 01-.383.216c.191.052.353.134.485.246.132.108.25.248.355.42L76.58 54h-.745c-.191 0-.34-.032-.444-.096a.85.85 0 01-.27-.276l-1.181-1.89c-.189-.312-.47-.468-.846-.468h-.654v2.736h-1.075v-6.084h1.075v2.628h.576c.32 0 .57-.136.75-.408l1.29-1.92zm4.85-.396a3.1 3.1 0 011.2.222c.355.148.66.358.911.63.252.272.444.602.576.99.136.384.204.814.204 1.29 0 .48-.068.912-.204 1.296a2.735 2.735 0 01-.576.984 2.572 2.572 0 01-.912.63 3.175 3.175 0 01-1.2.216c-.448 0-.852-.072-1.212-.216a2.572 2.572 0 01-.912-.63 2.805 2.805 0 01-.582-.984A3.972 3.972 0 0177 50.958c0-.476.066-.906.198-1.29.136-.388.33-.718.582-.99.252-.272.556-.482.912-.63.36-.148.764-.222 1.212-.222zm0 5.424c.6 0 1.047-.2 1.343-.6.296-.404.444-.966.444-1.686 0-.724-.148-1.288-.444-1.692-.296-.404-.744-.606-1.344-.606-.304 0-.57.052-.798.156a1.507 1.507 0 00-.564.45c-.148.196-.26.438-.336.726a3.941 3.941 0 00-.108.966c0 .72.148 1.282.444 1.686.3.4.754.6 1.362.6zm6.58 0c.4 0 .716-.092.948-.276.232-.188.348-.444.348-.768 0-.144-.022-.274-.066-.39a.759.759 0 00-.216-.312 1.027 1.027 0 00-.402-.204 2.187 2.187 0 00-.606-.072h-1.314v2.022h1.308zm-1.308-4.608v1.908h1.17c.176 0 .338-.024.486-.072.152-.052.282-.122.39-.21a.987.987 0 00.252-.324.977.977 0 00.03-.744.665.665 0 00-.204-.282 1.023 1.023 0 00-.378-.198 1.84 1.84 0 00-.576-.078h-1.17zm1.2-.72c.376 0 .698.038.966.114.268.076.488.18.66.312.172.128.298.28.378.456.08.176.12.364.12.564 0 .132-.018.27-.054.414a1.365 1.365 0 01-.558.774 1.824 1.824 0 01-.576.246c.464.08.822.242 1.074.486.252.24.378.558.378.954 0 .296-.06.554-.18.774a1.584 1.584 0 01-.486.546 2.127 2.127 0 01-.72.33 3.508 3.508 0 01-.888.108h-2.34v-6.078h2.226zm21.77 171.262V220h-4.608v-.816h1.842v-5.862c0-.176.006-.354.018-.534l-1.53 1.314a.375.375 0 01-.156.084.373.373 0 01-.27-.048.318.318 0 01-.084-.078l-.336-.462 2.562-2.214h.87v7.8h1.692zm7.453-3.48c0 .752-.082 1.404-.246 1.956-.16.548-.38 1.002-.66 1.362-.28.36-.612.628-.996.804-.38.176-.788.264-1.224.264-.44 0-.85-.088-1.23-.264a2.685 2.685 0 01-.984-.804c-.28-.36-.5-.814-.66-1.362-.16-.552-.24-1.204-.24-1.956s.08-1.404.24-1.956c.16-.552.38-1.008.66-1.368.28-.364.608-.634.984-.81a2.89 2.89 0 011.23-.264c.436 0 .844.088 1.224.264.384.176.716.446.996.81.28.36.5.816.66 1.368.164.552.246 1.204.246 1.956zm-1.11 0c0-.656-.056-1.206-.168-1.65-.108-.448-.256-.808-.444-1.08a1.63 1.63 0 00-.642-.582 1.706 1.706 0 00-1.524 0 1.63 1.63 0 00-.642.582c-.184.272-.332.632-.444 1.08-.108.444-.162.994-.162 1.65 0 .656.054 1.206.162 1.65.112.444.26.802.444 1.074s.398.468.642.588a1.754 1.754 0 001.524 0 1.68 1.68 0 00.642-.588c.188-.272.336-.63.444-1.074.112-.444.168-.994.168-1.65zm84.045-1.056c.448-.096.86-.144 1.236-.144.448 0 .844.066 1.188.198s.63.314.858.546c.232.232.406.506.522.822.12.316.18.66.18 1.032 0 .456-.08.868-.24 1.236a2.774 2.774 0 01-1.632 1.548c-.376.14-.782.21-1.218.21a3.31 3.31 0 01-.726-.078 3.663 3.663 0 01-1.212-.486 3.226 3.226 0 01-.456-.342l.33-.456a.33.33 0 01.282-.156c.08 0 .17.032.27.096.1.06.222.128.366.204.144.076.312.146.504.21.196.06.428.09.696.09.3 0 .57-.048.81-.144.24-.096.446-.232.618-.408.172-.18.304-.394.396-.642.092-.248.138-.526.138-.834 0-.268-.04-.51-.12-.726a1.381 1.381 0 00-.354-.552 1.594 1.594 0 00-.588-.354 2.468 2.468 0 00-.828-.126 4.5 4.5 0 00-1.392.228l-.672-.198.69-4.02h4.074v.468a.524.524 0 01-.144.378c-.092.096-.252.144-.48.144h-2.7l-.396 2.256zm15.48-.744V220h-.966v-4.038c0-.112.006-.236.018-.372.016-.14.036-.27.06-.39l-2.112 3.702a.401.401 0 01-.126.144.308.308 0 01-.18.054h-.12a.337.337 0 01-.186-.054.401.401 0 01-.126-.144l-2.148-3.714c.02.12.038.252.054.396.016.14.024.266.024.378V220h-.966v-6.096h.858c.076 0 .15.018.222.054a.416.416 0 01.186.186l1.896 3.168c.092.184.174.378.246.582.068-.212.148-.406.24-.582l1.86-3.168a.412.412 0 01.186-.192.541.541 0 01.222-.048h.858zm7.014 6.096h-1.068v-5.238h-1.92c-.048.772-.12 1.44-.216 2.004a9.32 9.32 0 01-.348 1.434 3.99 3.99 0 01-.45.96 2.278 2.278 0 01-.522.57c-.18.136-.368.228-.564.276a2.367 2.367 0 01-.576.072c-.34 0-.51-.054-.51-.162v-.678h.312c.136 0 .274-.024.414-.072.14-.048.276-.14.408-.276.136-.136.266-.326.39-.57a4.88 4.88 0 00.336-.96c.104-.396.192-.874.264-1.434.076-.564.134-1.232.174-2.004h3.876V220zm6.756-6.078V220h-1.074v-2.844h-2.916V220h-1.074v-6.078h1.074v2.424h2.916v-2.424h1.074zm42.706 5.262V220h-4.608v-.816h1.842v-5.862c0-.176.006-.354.018-.534l-1.53 1.314a.375.375 0 01-.156.084.373.373 0 01-.27-.048.318.318 0 01-.084-.078l-.336-.462 2.562-2.214h.87v7.8h1.692zm7.453-3.48c0 .752-.082 1.404-.246 1.956-.16.548-.38 1.002-.66 1.362-.28.36-.612.628-.996.804-.38.176-.788.264-1.224.264-.44 0-.85-.088-1.23-.264a2.685 2.685 0 01-.984-.804c-.28-.36-.5-.814-.66-1.362-.16-.552-.24-1.204-.24-1.956s.08-1.404.24-1.956c.16-.552.38-1.008.66-1.368.28-.364.608-.634.984-.81a2.89 2.89 0 011.23-.264c.436 0 .844.088 1.224.264.384.176.716.446.996.81.28.36.5.816.66 1.368.164.552.246 1.204.246 1.956zm-1.11 0c0-.656-.056-1.206-.168-1.65-.108-.448-.256-.808-.444-1.08a1.63 1.63 0 00-.642-.582 1.706 1.706 0 00-1.524 0 1.63 1.63 0 00-.642.582c-.184.272-.332.632-.444 1.08-.108.444-.162.994-.162 1.65 0 .656.054 1.206.162 1.65.112.444.26.802.444 1.074s.398.468.642.588a1.754 1.754 0 001.524 0 1.68 1.68 0 00.642-.588c.188-.272.336-.63.444-1.074.112-.444.168-.994.168-1.65zm12.161-1.8V220h-.966v-4.038c0-.112.006-.236.018-.372.016-.14.036-.27.06-.39l-2.112 3.702a.401.401 0 01-.126.144.308.308 0 01-.18.054h-.12a.337.337 0 01-.186-.054.401.401 0 01-.126-.144l-2.148-3.714c.02.12.038.252.054.396.016.14.024.266.024.378V220h-.966v-6.096h.858c.076 0 .15.018.222.054a.416.416 0 01.186.186l1.896 3.168c.092.184.174.378.246.582.068-.212.148-.406.24-.582l1.86-3.168a.412.412 0 01.186-.192.541.541 0 01.222-.048h.858zM296.01 220h-1.068v-5.238h-1.92c-.048.772-.12 1.44-.216 2.004a9.32 9.32 0 01-.348 1.434 3.99 3.99 0 01-.45.96 2.278 2.278 0 01-.522.57c-.18.136-.368.228-.564.276a2.367 2.367 0 01-.576.072c-.34 0-.51-.054-.51-.162v-.678h.312c.136 0 .274-.024.414-.072.14-.048.276-.14.408-.276.136-.136.266-.326.39-.57a4.88 4.88 0 00.336-.96c.104-.396.192-.874.264-1.434.076-.564.134-1.232.174-2.004h3.876V220zm6.755-6.078V220h-1.074v-2.844h-2.916V220h-1.074v-6.078h1.074v2.424h2.916v-2.424h1.074zm47.726 5.262V220h-4.608v-.816h1.842v-5.862c0-.176.006-.354.018-.534l-1.53 1.314a.375.375 0 01-.156.084.373.373 0 01-.27-.048.318.318 0 01-.084-.078l-.336-.462 2.562-2.214h.87v7.8h1.692zm3.025-4.536c.448-.096.86-.144 1.236-.144.448 0 .844.066 1.188.198s.63.314.858.546c.232.232.406.506.522.822.12.316.18.66.18 1.032 0 .456-.08.868-.24 1.236a2.774 2.774 0 01-1.632 1.548c-.376.14-.782.21-1.218.21a3.31 3.31 0 01-.726-.078 3.663 3.663 0 01-1.212-.486 3.226 3.226 0 01-.456-.342l.33-.456a.33.33 0 01.282-.156c.08 0 .17.032.27.096.1.06.222.128.366.204.144.076.312.146.504.21.196.06.428.09.696.09.3 0 .57-.048.81-.144.24-.096.446-.232.618-.408.172-.18.304-.394.396-.642.092-.248.138-.526.138-.834 0-.268-.04-.51-.12-.726a1.381 1.381 0 00-.354-.552 1.594 1.594 0 00-.588-.354 2.468 2.468 0 00-.828-.126 4.5 4.5 0 00-1.392.228l-.672-.198.69-4.02h4.074v.468a.524.524 0 01-.144.378c-.092.096-.252.144-.48.144h-2.7l-.396 2.256zm15.479-.744V220h-.966v-4.038c0-.112.006-.236.018-.372.016-.14.036-.27.06-.39l-2.112 3.702a.401.401 0 01-.126.144.308.308 0 01-.18.054h-.12a.337.337 0 01-.186-.054.401.401 0 01-.126-.144l-2.148-3.714c.02.12.038.252.054.396.016.14.024.266.024.378V220h-.966v-6.096h.858c.076 0 .15.018.222.054a.416.416 0 01.186.186l1.896 3.168c.092.184.174.378.246.582.068-.212.148-.406.24-.582l1.86-3.168a.412.412 0 01.186-.192.541.541 0 01.222-.048h.858zM376.01 220h-1.068v-5.238h-1.92c-.048.772-.12 1.44-.216 2.004a9.32 9.32 0 01-.348 1.434 3.99 3.99 0 01-.45.96 2.278 2.278 0 01-.522.57c-.18.136-.368.228-.564.276a2.367 2.367 0 01-.576.072c-.34 0-.51-.054-.51-.162v-.678h.312c.136 0 .274-.024.414-.072.14-.048.276-.14.408-.276.136-.136.266-.326.39-.57a4.88 4.88 0 00.336-.96c.104-.396.192-.874.264-1.434.076-.564.134-1.232.174-2.004h3.876V220zm6.755-6.078V220h-1.074v-2.844h-2.916V220h-1.074v-6.078h1.074v2.424h2.916v-2.424h1.074zm-322.804 5.064c.116 0 .208.034.276.102a.357.357 0 01.102.264V220h-5.736v-.366a.661.661 0 01.198-.456l2.754-2.766c.228-.232.436-.454.624-.666.188-.216.348-.432.48-.648a3.11 3.11 0 00.306-.654 2.32 2.32 0 00.108-.714c0-.252-.04-.472-.12-.66a1.278 1.278 0 00-.816-.75 1.868 1.868 0 00-.606-.096c-.22 0-.422.032-.606.096a1.631 1.631 0 00-.492.27c-.14.112-.258.246-.354.402a1.62 1.62 0 00-.204.516c-.048.14-.114.234-.198.282-.08.044-.194.056-.342.036l-.558-.096a3.13 3.13 0 01.324-1.038 2.57 2.57 0 01.612-.762c.248-.204.53-.358.846-.462a3.153 3.153 0 011.026-.162c.364 0 .704.054 1.02.162.316.108.59.266.822.474.232.204.414.454.546.75.132.296.198.632.198 1.008 0 .32-.048.618-.144.894a3.556 3.556 0 01-.39.78c-.164.248-.354.49-.57.726-.212.236-.438.474-.678.714l-2.268 2.316c.16-.044.322-.078.486-.102.164-.028.322-.042.474-.042h2.88zm7.639-3.282c0 .752-.082 1.404-.246 1.956-.16.548-.38 1.002-.66 1.362-.28.36-.612.628-.996.804-.38.176-.788.264-1.224.264-.44 0-.85-.088-1.23-.264a2.685 2.685 0 01-.984-.804c-.28-.36-.5-.814-.66-1.362-.16-.552-.24-1.204-.24-1.956s.08-1.404.24-1.956c.16-.552.38-1.008.66-1.368.28-.364.608-.634.984-.81a2.89 2.89 0 011.23-.264c.436 0 .844.088 1.224.264.384.176.716.446.996.81.28.36.5.816.66 1.368.164.552.246 1.204.246 1.956zm-1.11 0c0-.656-.056-1.206-.168-1.65-.108-.448-.256-.808-.444-1.08a1.63 1.63 0 00-.642-.582 1.706 1.706 0 00-1.524 0 1.63 1.63 0 00-.642.582c-.184.272-.332.632-.444 1.08-.108.444-.162.994-.162 1.65 0 .656.054 1.206.162 1.65.112.444.26.802.444 1.074s.398.468.642.588a1.754 1.754 0 001.524 0 1.68 1.68 0 00.642-.588c.188-.272.336-.63.444-1.074.112-.444.168-.994.168-1.65zm-50.67-1.974a3.13 3.13 0 01.323-1.038c.16-.304.362-.558.606-.762.248-.204.53-.358.846-.462.32-.108.664-.162 1.032-.162.364 0 .7.052 1.008.156.308.104.572.252.792.444.224.192.398.424.522.696.124.272.186.574.186.906 0 .272-.036.516-.108.732a1.666 1.666 0 01-.3.558c-.128.16-.284.296-.468.408-.184.112-.39.204-.618.276.56.144.98.392 1.26.744.284.348.426.784.426 1.308a2.433 2.433 0 01-.84 1.878c-.26.22-.564.39-.912.51a3.452 3.452 0 01-1.11.174c-.456 0-.846-.056-1.17-.168a2.466 2.466 0 01-.822-.474 2.522 2.522 0 01-.552-.708 5.429 5.429 0 01-.366-.894l.462-.192a.563.563 0 01.348-.042c.116.024.2.09.252.198.052.112.116.246.192.402.08.156.188.306.324.45.136.144.308.266.516.366.212.1.48.15.804.15.3 0 .562-.048.786-.144.228-.1.416-.228.564-.384a1.574 1.574 0 00.456-1.092c0-.232-.03-.444-.09-.636a1.065 1.065 0 00-.336-.498c-.164-.14-.39-.25-.678-.33-.284-.08-.65-.12-1.098-.12v-.774c.368-.004.68-.044.936-.12.26-.076.47-.18.63-.312.164-.132.282-.29.354-.474.076-.184.114-.388.114-.612 0-.248-.04-.464-.12-.648a1.216 1.216 0 00-.318-.456 1.34 1.34 0 00-.486-.27 1.925 1.925 0 00-.6-.09c-.216 0-.418.032-.606.096a1.631 1.631 0 00-.492.27c-.14.112-.258.246-.354.402a1.62 1.62 0 00-.204.516c-.052.14-.118.234-.198.282-.076.044-.188.056-.336.036l-.558-.096zm12.78 1.974c0 .752-.082 1.404-.246 1.956-.16.548-.38 1.002-.66 1.362-.28.36-.612.628-.996.804-.38.176-.788.264-1.224.264-.44 0-.85-.088-1.23-.264a2.685 2.685 0 01-.984-.804c-.28-.36-.5-.814-.66-1.362-.16-.552-.24-1.204-.24-1.956s.08-1.404.24-1.956c.16-.552.38-1.008.66-1.368.28-.364.608-.634.984-.81a2.89 2.89 0 011.23-.264c.436 0 .844.088 1.224.264.384.176.716.446.996.81.28.36.5.816.66 1.368.164.552.246 1.204.246 1.956zm-1.11 0c0-.656-.056-1.206-.168-1.65-.108-.448-.256-.808-.444-1.08a1.63 1.63 0 00-.642-.582 1.706 1.706 0 00-1.524 0 1.63 1.63 0 00-.642.582c-.184.272-.332.632-.444 1.08-.108.444-.162.994-.162 1.65 0 .656.054 1.206.162 1.65.112.444.26.802.444 1.074s.398.468.642.588a1.754 1.754 0 001.524 0 1.68 1.68 0 00.642-.588c.188-.272.336-.63.444-1.074.112-.444.168-.994.168-1.65z" fill="#82818A"/><path d="M226.706 27.458c.42 0 .747.117.98.35.243.233.364.541.364.924V31h-14.084v-1.26c0-.243.051-.504.154-.784.103-.29.275-.55.518-.784l6.02-6.034c.513-.513.966-1.003 1.358-1.47.392-.476.719-.938.98-1.386.261-.457.457-.92.588-1.386.131-.467.196-.957.196-1.47 0-.905-.233-1.591-.7-2.058-.467-.476-1.125-.714-1.974-.714-.373 0-.719.056-1.036.168a2.989 2.989 0 00-.84.434 2.997 2.997 0 00-.63.658 2.698 2.698 0 00-.392.826c-.168.467-.397.78-.686.938-.28.15-.681.182-1.204.098l-2.044-.364c.149-.99.429-1.857.84-2.604a6.166 6.166 0 011.54-1.862 6.27 6.27 0 012.114-1.106 8.415 8.415 0 012.562-.378c.961 0 1.834.145 2.618.434.793.28 1.47.677 2.03 1.19.56.504.994 1.115 1.302 1.834.308.719.462 1.512.462 2.38a6.42 6.42 0 01-.322 2.072 8.215 8.215 0 01-.882 1.82c-.364.57-.789 1.125-1.274 1.666a49.03 49.03 0 01-1.54 1.638l-4.312 4.41c.476-.14.947-.247 1.414-.322a7.447 7.447 0 011.316-.126h4.564zm12.392-4.214v-6.048c0-.317.01-.653.028-1.008.028-.364.066-.742.112-1.134l-5.88 8.19h5.74zm5.712 0v2.184c0 .205-.07.383-.21.532-.13.14-.317.21-.56.21h-1.582V31h-3.36v-4.83h-8.386c-.242 0-.466-.075-.672-.224a.94.94 0 01-.364-.588l-.406-1.932 9.52-12.754h3.668v12.572h2.352zm15.438 1.312c0 1.128-.123 2.106-.369 2.934-.24.822-.57 1.503-.99 2.043-.42.54-.918.942-1.494 1.206a4.315 4.315 0 01-1.836.396c-.66 0-1.275-.132-1.845-.396a4.027 4.027 0 01-1.476-1.206c-.42-.54-.75-1.221-.99-2.043-.24-.828-.36-1.806-.36-2.934 0-1.128.12-2.106.36-2.934.24-.828.57-1.512.99-2.052.42-.546.912-.951 1.476-1.215a4.336 4.336 0 011.845-.396c.654 0 1.266.132 1.836.396a3.954 3.954 0 011.494 1.215c.42.54.75 1.224.99 2.052.246.828.369 1.806.369 2.934zm-1.665 0c0-.984-.084-1.809-.252-2.475-.162-.672-.384-1.212-.666-1.62-.276-.408-.597-.699-.963-.873a2.56 2.56 0 00-2.286 0c-.366.174-.687.465-.963.873-.276.408-.498.948-.666 1.62-.162.666-.243 1.491-.243 2.475s.081 1.809.243 2.475c.168.666.39 1.203.666 1.611.276.408.597.702.963.882a2.632 2.632 0 002.286 0c.366-.18.687-.474.963-.882.282-.408.504-.945.666-1.611.168-.666.252-1.491.252-2.475zm12.106 0c0 1.128-.123 2.106-.369 2.934-.24.822-.57 1.503-.99 2.043-.42.54-.918.942-1.494 1.206a4.315 4.315 0 01-1.836.396c-.66 0-1.275-.132-1.845-.396a4.027 4.027 0 01-1.476-1.206c-.42-.54-.75-1.221-.99-2.043-.24-.828-.36-1.806-.36-2.934 0-1.128.12-2.106.36-2.934.24-.828.57-1.512.99-2.052.42-.546.912-.951 1.476-1.215a4.336 4.336 0 011.845-.396c.654 0 1.266.132 1.836.396a3.954 3.954 0 011.494 1.215c.42.54.75 1.224.99 2.052.246.828.369 1.806.369 2.934zm-1.665 0c0-.984-.084-1.809-.252-2.475-.162-.672-.384-1.212-.666-1.62-.276-.408-.597-.699-.963-.873a2.56 2.56 0 00-2.286 0c-.366.174-.687.465-.963.873-.276.408-.498.948-.666 1.62-.162.666-.243 1.491-.243 2.475s.081 1.809.243 2.475c.168.666.39 1.203.666 1.611.276.408.597.702.963.882a2.632 2.632 0 002.286 0c.366-.18.687-.474.963-.882.282-.408.504-.945.666-1.611.168-.666.252-1.491.252-2.475zm12.106 0c0 1.128-.123 2.106-.369 2.934-.24.822-.57 1.503-.99 2.043-.42.54-.918.942-1.494 1.206a4.315 4.315 0 01-1.836.396c-.66 0-1.275-.132-1.845-.396a4.027 4.027 0 01-1.476-1.206c-.42-.54-.75-1.221-.99-2.043-.24-.828-.36-1.806-.36-2.934 0-1.128.12-2.106.36-2.934.24-.828.57-1.512.99-2.052.42-.546.912-.951 1.476-1.215a4.336 4.336 0 011.845-.396c.654 0 1.266.132 1.836.396a3.954 3.954 0 011.494 1.215c.42.54.75 1.224.99 2.052.246.828.369 1.806.369 2.934zm-1.665 0c0-.984-.084-1.809-.252-2.475-.162-.672-.384-1.212-.666-1.62-.276-.408-.597-.699-.963-.873a2.56 2.56 0 00-2.286 0c-.366.174-.687.465-.963.873-.276.408-.498.948-.666 1.62-.162.666-.243 1.491-.243 2.475s.081 1.809.243 2.475c.168.666.39 1.203.666 1.611.276.408.597.702.963.882a2.632 2.632 0 002.286 0c.366-.18.687-.474.963-.882.282-.408.504-.945.666-1.611.168-.666.252-1.491.252-2.475zm16.712 0c0 1.128-.123 2.106-.369 2.934-.24.822-.57 1.503-.99 2.043-.42.54-.918.942-1.494 1.206a4.315 4.315 0 01-1.836.396c-.66 0-1.275-.132-1.845-.396a4.027 4.027 0 01-1.476-1.206c-.42-.54-.75-1.221-.99-2.043-.24-.828-.36-1.806-.36-2.934 0-1.128.12-2.106.36-2.934.24-.828.57-1.512.99-2.052.42-.546.912-.951 1.476-1.215a4.336 4.336 0 011.845-.396c.654 0 1.266.132 1.836.396a3.954 3.954 0 011.494 1.215c.42.54.75 1.224.99 2.052.246.828.369 1.806.369 2.934zm-1.665 0c0-.984-.084-1.809-.252-2.475-.162-.672-.384-1.212-.666-1.62-.276-.408-.597-.699-.963-.873a2.56 2.56 0 00-2.286 0c-.366.174-.687.465-.963.873-.276.408-.498.948-.666 1.62-.162.666-.243 1.491-.243 2.475s.081 1.809.243 2.475c.168.666.39 1.203.666 1.611.276.408.597.702.963.882a2.632 2.632 0 002.286 0c.366-.18.687-.474.963-.882.282-.408.504-.945.666-1.611.168-.666.252-1.491.252-2.475zm12.107 0c0 1.128-.123 2.106-.369 2.934-.24.822-.57 1.503-.99 2.043-.42.54-.918.942-1.494 1.206a4.315 4.315 0 01-1.836.396c-.66 0-1.275-.132-1.845-.396a4.027 4.027 0 01-1.476-1.206c-.42-.54-.75-1.221-.99-2.043-.24-.828-.36-1.806-.36-2.934 0-1.128.12-2.106.36-2.934.24-.828.57-1.512.99-2.052.42-.546.912-.951 1.476-1.215a4.336 4.336 0 011.845-.396c.654 0 1.266.132 1.836.396a3.954 3.954 0 011.494 1.215c.42.54.75 1.224.99 2.052.246.828.369 1.806.369 2.934zm-1.665 0c0-.984-.084-1.809-.252-2.475-.162-.672-.384-1.212-.666-1.62-.276-.408-.597-.699-.963-.873a2.56 2.56 0 00-2.286 0c-.366.174-.687.465-.963.873-.276.408-.498.948-.666 1.62-.162.666-.243 1.491-.243 2.475s.081 1.809.243 2.475c.168.666.39 1.203.666 1.611.276.408.597.702.963.882a2.632 2.632 0 002.286 0c.366-.18.687-.474.963-.882.282-.408.504-.945.666-1.611.168-.666.252-1.491.252-2.475zm12.106 0c0 1.128-.123 2.106-.369 2.934-.24.822-.57 1.503-.99 2.043-.42.54-.918.942-1.494 1.206a4.315 4.315 0 01-1.836.396c-.66 0-1.275-.132-1.845-.396a4.027 4.027 0 01-1.476-1.206c-.42-.54-.75-1.221-.99-2.043-.24-.828-.36-1.806-.36-2.934 0-1.128.12-2.106.36-2.934.24-.828.57-1.512.99-2.052.42-.546.912-.951 1.476-1.215a4.336 4.336 0 011.845-.396c.654 0 1.266.132 1.836.396a3.954 3.954 0 011.494 1.215c.42.54.75 1.224.99 2.052.246.828.369 1.806.369 2.934zm-1.665 0c0-.984-.084-1.809-.252-2.475-.162-.672-.384-1.212-.666-1.62-.276-.408-.597-.699-.963-.873a2.56 2.56 0 00-2.286 0c-.366.174-.687.465-.963.873-.276.408-.498.948-.666 1.62-.162.666-.243 1.491-.243 2.475s.081 1.809.243 2.475c.168.666.39 1.203.666 1.611.276.408.597.702.963.882a2.632 2.632 0 002.286 0c.366-.18.687-.474.963-.882.282-.408.504-.945.666-1.611.168-.666.252-1.491.252-2.475z" fill="#130E20"/><path d="M218.116 53.076c.332 0 .618-.038.858-.114.24-.076.436-.182.588-.318.156-.14.27-.304.342-.492a1.78 1.78 0 00.108-.63c0-.444-.158-.794-.474-1.05-.316-.26-.79-.39-1.422-.39h-1.86v2.994h1.86zm-1.86-6.756v2.934h1.536c.328 0 .612-.036.852-.108.244-.072.444-.172.6-.3.16-.128.278-.282.354-.462.076-.184.114-.384.114-.6 0-.508-.152-.878-.456-1.11-.304-.236-.776-.354-1.416-.354h-1.584zm1.584-.918c.528 0 .982.052 1.362.156.384.104.698.252.942.444.248.192.43.428.546.708.116.276.174.588.174.936a1.854 1.854 0 01-.396 1.152c-.132.168-.3.32-.504.456-.2.132-.436.24-.708.324.632.12 1.106.346 1.422.678.32.328.48.76.48 1.296 0 .364-.068.696-.204.996a2.09 2.09 0 01-.588.774 2.745 2.745 0 01-.948.504 4.354 4.354 0 01-1.284.174h-3.036v-8.598h2.742zm7.232 2.424a3.1 3.1 0 011.2.222c.356.148.66.358.912.63s.444.602.576.99c.136.384.204.814.204 1.29 0 .48-.068.912-.204 1.296a2.735 2.735 0 01-.576.984 2.572 2.572 0 01-.912.63 3.175 3.175 0 01-1.2.216c-.448 0-.852-.072-1.212-.216a2.572 2.572 0 01-.912-.63 2.805 2.805 0 01-.582-.984 3.972 3.972 0 01-.198-1.296c0-.476.066-.906.198-1.29.136-.388.33-.718.582-.99.252-.272.556-.482.912-.63.36-.148.764-.222 1.212-.222zm0 5.424c.6 0 1.048-.2 1.344-.6.296-.404.444-.966.444-1.686 0-.724-.148-1.288-.444-1.692-.296-.404-.744-.606-1.344-.606-.304 0-.57.052-.798.156a1.507 1.507 0 00-.564.45c-.148.196-.26.438-.336.726a3.941 3.941 0 00-.108.966c0 .72.148 1.282.444 1.686.3.4.754.6 1.362.6zm3.745-4.704c.228-.216.504-.39.828-.522.328-.132.722-.198 1.182-.198.368 0 .692.046.972.138.28.088.514.206.702.354.192.148.336.318.432.51a1.236 1.236 0 01.09.966 1.148 1.148 0 01-.186.378 1.607 1.607 0 01-.864.588c.388.116.692.302.912.558.224.256.336.57.336.942 0 .28-.064.534-.192.762-.128.224-.3.416-.516.576a2.451 2.451 0 01-.756.36 3.136 3.136 0 01-.894.126c-.196 0-.396-.018-.6-.054a3.073 3.073 0 01-.588-.168 3.12 3.12 0 01-.546-.294 2.128 2.128 0 01-.45-.42l.3-.39a.235.235 0 01.204-.102c.072 0 .148.032.228.096.084.06.186.128.306.204.12.076.266.146.438.21.176.06.39.09.642.09.22 0 .416-.026.588-.078.176-.056.324-.132.444-.228a.977.977 0 00.372-.774c0-.3-.126-.542-.378-.726-.248-.184-.626-.276-1.134-.276h-.69v-.708h.69c.22 0 .418-.022.594-.066.176-.048.326-.112.45-.192a.758.758 0 00.048-1.284 1.289 1.289 0 00-.408-.192 2.06 2.06 0 00-.576-.072 2.253 2.253 0 00-1.308.384.354.354 0 01-.186.072.268.268 0 01-.132-.03.399.399 0 01-.108-.126l-.246-.414zm12.549-.642V54h-.966v-4.038c0-.112.006-.236.018-.372.016-.14.036-.27.06-.39l-2.112 3.702a.401.401 0 01-.126.144.308.308 0 01-.18.054h-.12a.337.337 0 01-.186-.054.401.401 0 01-.126-.144l-2.148-3.714c.02.12.038.252.054.396.016.14.024.266.024.378V54h-.966v-6.096h.858c.076 0 .15.018.222.054a.416.416 0 01.186.186l1.896 3.168c.092.184.174.378.246.582.068-.212.148-.406.24-.582l1.86-3.168a.412.412 0 01.186-.192.541.541 0 01.222-.048h.858zm4.249-.078a3.1 3.1 0 011.2.222c.356.148.66.358.912.63s.444.602.576.99c.136.384.204.814.204 1.29 0 .48-.068.912-.204 1.296a2.735 2.735 0 01-.576.984 2.572 2.572 0 01-.912.63 3.175 3.175 0 01-1.2.216c-.448 0-.852-.072-1.212-.216a2.572 2.572 0 01-.912-.63 2.805 2.805 0 01-.582-.984 3.972 3.972 0 01-.198-1.296c0-.476.066-.906.198-1.29.136-.388.33-.718.582-.99.252-.272.556-.482.912-.63.36-.148.764-.222 1.212-.222zm0 5.424c.6 0 1.048-.2 1.344-.6.296-.404.444-.966.444-1.686 0-.724-.148-1.288-.444-1.692-.296-.404-.744-.606-1.344-.606-.304 0-.57.052-.798.156a1.507 1.507 0 00-.564.45c-.148.196-.26.438-.336.726a3.941 3.941 0 00-.108.966c0 .72.148 1.282.444 1.686.3.4.754.6 1.362.6zm12.461.75h-.744c-.192 0-.34-.03-.444-.09a.592.592 0 01-.234-.282l-1.182-1.89a.941.941 0 00-.846-.468h-.612v2.736h-1.038V51.27h-.606c-.18 0-.344.04-.492.12a.952.952 0 00-.354.348l-1.182 1.89a.613.613 0 01-.246.282c-.1.06-.246.09-.438.09h-.738l1.596-2.514c.104-.176.222-.318.354-.426.132-.108.294-.19.486-.246a1.107 1.107 0 01-.39-.21 1.755 1.755 0 01-.294-.366l-1.584-2.316h.84c.104 0 .198.028.282.084.084.052.15.124.198.216l1.29 1.92a.964.964 0 00.318.306c.124.068.27.102.438.102h.522v-2.628h1.038v2.628h.51c.34 0 .596-.136.768-.408l1.29-1.92a.544.544 0 01.486-.3h.84l-1.584 2.316c-.092.148-.192.27-.3.366a1.046 1.046 0 01-.384.21c.192.056.354.138.486.246.132.108.25.25.354.426L258.076 54zm6.061-6.078V54h-1.074v-2.844h-2.916V54h-1.074v-6.078h1.074v2.424h2.916v-2.424h1.074zm4.031 5.298c.216 0 .402-.026.558-.078.16-.056.292-.132.396-.228a.972.972 0 00.234-.348c.052-.132.078-.276.078-.432 0-.144-.022-.278-.066-.402a.811.811 0 00-.222-.336 1.054 1.054 0 00-.396-.228 1.87 1.87 0 00-.6-.084h-1.296v2.136h1.314zm-.018-2.916c.42 0 .772.05 1.056.15.288.1.518.234.69.402.176.168.302.362.378.582a2.08 2.08 0 01-.03 1.44 1.644 1.644 0 01-.426.594c-.188.164-.42.294-.696.39a3.015 3.015 0 01-.954.138h-2.334v-6.078h1.02v2.382h1.296zm4.644-2.382V54h-1.068v-6.078h1.068zm5.768 2.376c0-.248-.036-.474-.108-.678a1.437 1.437 0 00-.306-.534 1.292 1.292 0 00-.486-.348 1.616 1.616 0 00-.654-.126c-.512 0-.918.15-1.218.45-.296.296-.48.708-.552 1.236h3.324zm.864 2.85c-.132.16-.29.3-.474.42a3.022 3.022 0 01-.594.288 3.503 3.503 0 01-.648.168c-.224.04-.446.06-.666.06-.42 0-.808-.07-1.164-.21a2.636 2.636 0 01-.918-.624 2.919 2.919 0 01-.6-1.02 4.135 4.135 0 01-.216-1.392c0-.424.064-.82.192-1.188.132-.368.32-.686.564-.954.244-.272.542-.484.894-.636a2.902 2.902 0 011.188-.234c.364 0 .7.062 1.008.186.312.12.58.296.804.528.228.228.406.512.534.852.128.336.192.72.192 1.152 0 .168-.018.28-.054.336-.036.056-.104.084-.204.084h-4.062c.012.384.064.718.156 1.002.096.284.228.522.396.714.168.188.368.33.6.426a2.1 2.1 0 00.78.138c.268 0 .498-.03.69-.09a3.456 3.456 0 00.852-.402.47.47 0 01.246-.096c.088 0 .156.034.204.102l.3.39zm12.657-5.226V54h-8.178v-6.078h1.074v5.268h2.478v-5.268h1.074v5.268h2.478v-5.268h1.074zm6.741.816h-2.334V54h-1.068v-5.262h-2.334v-.816h5.736v.816zm2.092 3.798c.196.264.41.45.642.558.232.108.492.162.78.162.568 0 1.004-.202 1.308-.606.304-.404.456-.98.456-1.728 0-.396-.036-.736-.108-1.02a1.926 1.926 0 00-.3-.696 1.171 1.171 0 00-.486-.402 1.616 1.616 0 00-.654-.126c-.348 0-.654.08-.918.24-.26.16-.5.386-.72.678v2.94zm-.054-3.672c.256-.316.552-.57.888-.762a2.28 2.28 0 011.152-.288c.352 0 .67.068.954.204.284.132.526.33.726.594.2.26.354.584.462.972.108.388.162.834.162 1.338 0 .448-.06.866-.18 1.254-.12.384-.294.718-.522 1.002-.224.28-.5.502-.828.666-.324.16-.69.24-1.098.24-.372 0-.692-.062-.96-.186a2.301 2.301 0 01-.702-.528v2.688h-1.074v-8.136h.642c.152 0 .246.074.282.222l.096.72zm8.989 2.4a8.645 8.645 0 00-1.26.12c-.344.06-.626.14-.846.24-.216.1-.374.218-.474.354a.772.772 0 00-.144.456c0 .16.026.298.078.414a.814.814 0 00.21.288.956.956 0 00.318.162c.124.032.256.048.396.048.188 0 .36-.018.516-.054.156-.04.302-.096.438-.168.14-.072.272-.158.396-.258.128-.1.252-.214.372-.342v-1.26zm-3.45-2.484a3.47 3.47 0 011.086-.726c.388-.16.818-.24 1.29-.24.34 0 .642.056.906.168.264.112.486.268.666.468.18.2.316.442.408.726.092.284.138.596.138.936V54h-.474a.49.49 0 01-.24-.048c-.056-.036-.1-.104-.132-.204l-.12-.576c-.16.148-.316.28-.468.396a2.935 2.935 0 01-.48.288 2.585 2.585 0 01-.54.174 2.77 2.77 0 01-.63.066c-.236 0-.458-.032-.666-.096a1.61 1.61 0 01-.546-.3 1.453 1.453 0 01-.366-.498 1.807 1.807 0 01-.132-.72c0-.24.066-.47.198-.69.132-.224.346-.422.642-.594.296-.172.682-.312 1.158-.42.476-.112 1.06-.176 1.752-.192v-.474c0-.472-.102-.828-.306-1.068-.204-.244-.502-.366-.894-.366-.264 0-.486.034-.666.102-.176.064-.33.138-.462.222-.128.08-.24.154-.336.222a.48.48 0 01-.276.096.319.319 0 01-.186-.054.567.567 0 01-.132-.144l-.192-.342zm9.979 4.494c.356-.016.67-.082.942-.198.276-.116.506-.272.69-.468.188-.2.328-.438.42-.714a2.82 2.82 0 00.144-.93c0-.348-.048-.66-.144-.936a1.884 1.884 0 00-1.11-1.188 2.803 2.803 0 00-.948-.204v4.584l.006.054zm-.948-4.638c-.36.02-.676.088-.948.204a1.953 1.953 0 00-.69.468c-.184.2-.324.44-.42.72-.092.28-.138.592-.138.936 0 .344.046.654.138.93.096.276.236.514.42.714a2 2 0 00.684.468c.276.116.592.182.948.198l.006-.036v-4.602zm.978-.804c.5.02.95.108 1.35.264.4.156.74.37 1.02.642s.494.596.642.972c.152.372.228.788.228 1.248 0 .46-.076.878-.228 1.254a2.744 2.744 0 01-.642.966c-.28.268-.62.48-1.02.636-.4.156-.85.244-1.35.264v2.016h-1.008v-2.016c-.5-.02-.95-.108-1.35-.264-.4-.156-.74-.368-1.02-.636a2.814 2.814 0 01-.648-.966 3.397 3.397 0 01-.222-1.254c0-.46.074-.876.222-1.248.152-.376.368-.7.648-.972s.62-.486 1.02-.642c.4-.156.85-.244 1.35-.264v-2.43h1.008v2.43zm6.907 5.388c.216 0 .402-.026.558-.078.16-.056.292-.132.396-.228a.972.972 0 00.234-.348c.052-.132.078-.276.078-.432 0-.144-.022-.278-.066-.402a.811.811 0 00-.222-.336 1.054 1.054 0 00-.396-.228 1.87 1.87 0 00-.6-.084h-1.296v2.136h1.314zm-.018-2.916c.42 0 .772.05 1.056.15.288.1.518.234.69.402.176.168.302.362.378.582a2.08 2.08 0 01-.03 1.44 1.644 1.644 0 01-.426.594c-.188.164-.42.294-.696.39a3.015 3.015 0 01-.954.138h-2.334v-6.078h1.02v2.382h1.296zm4.644-2.382V54h-1.068v-6.078h1.068z" fill="#82818A"/><path fill="#E3E3E4" d="M156 9h1v193h-1z"/><path fill="#F15087" d="M140 98h16v16h-16zm-22 32h38v16h-38zm-33 32h71v16H85z"/><path fill="#07D1FE" d="M157 98h198v16H157zm0 32h39v16h-39zm0 32h24v16h-24z"/><path fill="#E3E3E4" d="M5 199h348v1H5z"/><path fill="#E3E3E4" d="M109 199h1v3h-1zm103 0h1v3h-1zm72 0h1v3h-1zm80 0h1v3h-1zm-295 0h1v3h-1zm-48 0h1v3h-1z"/><circle cx="4" cy="21" r="4" fill="#F15087"/><circle cx="201" cy="21" r="4" fill="#07D1FE"/></svg>