<svg width="19" height="16" fill="none" xmlns="http://www.w3.org/2000/svg"><path d="M9.445 5.228l-.595-.072-.66-.08h-.004 0c-2.514-.32-4.712-1.41-6.569-3.224l-.003-.003h0l-.306-.304c-.366 1.225-.081 2.472.739 3.31l.006.006h0c.134.142.258.285.337.415a.75.75 0 01.11.305.551.551 0 01-.258.535.658.658 0 01-.377.09 1.39 1.39 0 01-.254-.038 4.502 4.502 0 01-.437-.132c.095.347.218.699.312.878l.001.003h0c.286.553.897 1.135 1.584 1.482l.64.303-.205.952-.765.013h-.009v0h-.045c.134.222.331.457.587.683a4.26 4.26 0 001.403.818l.817.279 1.022.349-.927.553-.713.426-.006.003h0a7.924 7.924 0 01-3.1 1.008c.331.136.66.26.925.343 2.68.823 5.873.465 8.257-.938L9.445 5.228zm0 0l-.036-.6-.04-.65h0v-.006c-.102-1.451.791-2.796 2.243-3.323M9.445 5.228l2.167-4.58M1.082 13.33l.004.156 3.428-1.845.198.067.364-.217.257.429-.162.473-.402-.137-.15.09a7.443 7.443 0 01-3.537.984zm0 0l.004.156c-.11-.051-.212-.1-.304-.146.095-.005.196-.008.3-.01zM11.612.649c.237-.083.59-.138.974-.148.381-.009.753.028 1.028.104.197.06.644.292.982.519 0 0 0 0 0 0l.646.438.2.136.232-.073.71-.225c.078-.024.164-.051.252-.081-.025.029-.05.056-.075.081h0l-.006.007a2.499 2.499 0 00-.35.447.683.683 0 00-.092.38.554.554 0 00.38.486.785.785 0 00.383.024c-.325.322-.566.57-.704.823-.17.312-.173.604-.173.906 0 .415-.102 1.1-.268 1.835-.165.729-.382 1.46-.591 1.962v.002c-.793 1.926-2.504 3.927-4.187 4.92L11.612.648zm5.102 1.107h.007-.007zM1.537 5.8a.04.04 0 01-.003-.006.036.036 0 01.003.006zm.976 3.47s0 0 0 0h0zM0 13.437c0-.025.197-.056.494-.079a.482.482 0 01-.08.357c-.25-.133-.414-.237-.414-.279z" stroke="#6B6B72"/></svg>