<svg width="24" height="24" fill="none" xmlns="http://www.w3.org/2000/svg"><path opacity=".7" d="M12 9.803c0-.99 1.283-1.378 1.832-.555l3.095 4.643C17.813 15.22 16.86 17 15.263 17H13a1 1 0 01-1-1V9.803z" fill="#F15087"/><path clip-rule="evenodd" d="M12 8.8A2.4 2.4 0 1012 4a2.4 2.4 0 000 4.8zM5.4 19.6a2.4 2.4 0 100-4.8 2.4 2.4 0 000 4.8zm13.2 0a2.4 2.4 0 100-4.8 2.4 2.4 0 000 4.8z" stroke="#130E20" stroke-width="1.3" stroke-linecap="round" stroke-linejoin="round"/><path d="M7.8 17.2h8.4m-2.873-8.8l4.226 6.64m-6.88-6.64l-4.226 6.64" stroke="#130E20" stroke-width="1.3" stroke-linecap="round" stroke-linejoin="round"/></svg>