<svg width="24" height="24" fill="none" xmlns="http://www.w3.org/2000/svg"><path opacity=".7" d="M20.948 19c.06.55-.395 1-.947 1h-6C13.448 20 13 19.55 13 18.998v-5c0-.552.449-1.003 1-.962 3.647.27 6.532 2.07 6.948 5.964zM14 12.5s-1.258-1.361-1.258-3.864C12.742 6.134 14 6 14 6c3.012 0 5 .134 5 2.636 0 2.503-1.988 3.864-5 3.864z" fill="#F15087"/><path d="M13.501 6.518a3.208 3.208 0 11.588 5.682m-.006 1.513a5.255 5.255 0 016.417 5.12M13.498 8.398a5.323 5.323 0 004.93.376M3 18.833a5.25 5.25 0 1110.5 0M5.051 9.461l-.009.605c.03.896-.202 1.78-.668 2.545m7.083-3.317v.778a4.59 4.59 0 00.669 2.545M5.052 9.46A4.264 4.264 0 008.25 7.987a4.264 4.264 0 003.198 1.477" stroke="#130E20" stroke-width="1.3" stroke-linecap="round" stroke-linejoin="round"/><path clip-rule="evenodd" d="M8.25 12.417A3.208 3.208 0 108.25 6a3.208 3.208 0 000 6.417z" stroke="#130E20" stroke-width="1.3" stroke-linecap="round" stroke-linejoin="round"/></svg>