<svg width="24" height="24" viewBox="0 0 24 24" fill="none" xmlns="http://www.w3.org/2000/svg">
<path opacity="0.7" d="M19 5.5V14H5L19 5.5Z" fill="#F15087"/>
<path fill-rule="evenodd" clip-rule="evenodd" d="M19.1996 13.9998V6.19998C19.1996 5.53725 18.6623 5 17.9996 5H5.99978C5.33705 5 4.7998 5.53725 4.7998 6.19998V13.9998H19.1996Z" stroke="#130E20" stroke-width="1.3" stroke-linecap="round" stroke-linejoin="round"/>
<path fill-rule="evenodd" clip-rule="evenodd" d="M20.8966 17.7125C21.0616 18.0837 21.0275 18.5131 20.8061 18.8537C20.5847 19.1943 20.2061 19.3997 19.7999 19.3997H4.20014C3.79394 19.3997 3.41529 19.1943 3.1939 18.8537C2.97251 18.5131 2.93844 18.0837 3.10335 17.7125L4.80012 13.9998H19.1999L20.8966 17.7125Z" stroke="#130E20" stroke-width="1.3" stroke-linecap="round" stroke-linejoin="round"/>
<path d="M10.7998 16.9998H13.1998" stroke="#130E20" stroke-width="1.3" stroke-linecap="round" stroke-linejoin="round"/>
</svg>
