<svg width="48" height="48" viewBox="0 0 48 48" fill="none" xmlns="http://www.w3.org/2000/svg">
<circle cx="24" cy="24" r="24" fill="#BB6BD9"/>
<path fill-rule="evenodd" clip-rule="evenodd" d="M24.3462 18.9606C24.3462 17.4151 28.2173 16.1457 32.8156 16.0004C33.0456 15.9931 33.2688 16.0793 33.4341 16.2395C33.5994 16.3996 33.6926 16.62 33.6925 16.8501V29.1701C33.6927 29.6296 33.3276 30.006 32.8683 30.0198C28.247 30.1557 24.3462 31.4285 24.3462 32.98C24.3462 31.4285 20.4455 30.1557 15.8242 30.0181C15.3649 30.0043 14.9998 29.6279 15 29.1684V16.8501C14.9999 16.62 15.0931 16.3996 15.2584 16.2395C15.4237 16.0793 15.6468 15.9931 15.8768 16.0004C20.4743 16.1457 24.3462 17.4151 24.3462 18.9606Z" stroke="white" stroke-width="1.3" stroke-linecap="round" stroke-linejoin="round"/>
<path d="M24.3462 18.9604V32.8735" stroke="white" stroke-width="1.3" stroke-linecap="round" stroke-linejoin="round"/>
</svg>
