<svg width="48" height="48" viewBox="0 0 48 48" fill="none" xmlns="http://www.w3.org/2000/svg">
<circle cx="24" cy="24" r="24" fill="#56CCF2"/>
<path fill-rule="evenodd" clip-rule="evenodd" d="M16.499 20.25C18.1558 20.25 19.499 18.9069 19.499 17.25C19.499 15.5931 18.1558 14.25 16.499 14.25C14.8421 14.25 13.499 15.5931 13.499 17.25C13.499 18.9069 14.8421 20.25 16.499 20.25Z" stroke="white" stroke-width="1.5" stroke-linecap="round" stroke-linejoin="round"/>
<path d="M17.825 21.991C16.6727 21.5569 15.3808 21.7157 14.3679 22.4159C13.355 23.1161 12.75 24.2687 12.749 25.5V27.75H14.249L14.999 33.75H18L18.75 27.75H20.25" stroke="white" stroke-width="1.5" stroke-linecap="round" stroke-linejoin="round"/>
<path fill-rule="evenodd" clip-rule="evenodd" d="M31.499 20.25C33.1558 20.25 34.499 18.9069 34.499 17.25C34.499 15.5931 33.1558 14.25 31.499 14.25C29.8421 14.25 28.499 15.5931 28.499 17.25C28.499 18.9069 29.8421 20.25 31.499 20.25Z" stroke="white" stroke-width="1.5" stroke-linecap="round" stroke-linejoin="round"/>
<path d="M31.019 21.78C31.1782 21.7599 31.3385 21.7499 31.499 21.75C33.5701 21.75 35.249 23.4289 35.249 25.5V27.75H33.749L32.999 33.75H30L29.25 27.75H27.75" stroke="white" stroke-width="1.5" stroke-linecap="round" stroke-linejoin="round"/>
<path fill-rule="evenodd" clip-rule="evenodd" d="M26.029 18L20.669 23.36C20.5618 23.4674 20.5298 23.6288 20.588 23.7689C20.6463 23.9091 20.7832 24.0003 20.935 24H23.029V28.5L28.389 23.14C28.4961 23.0328 28.5281 22.8716 28.4701 22.7315C28.4122 22.5915 28.2756 22.5001 28.124 22.5H26.029V18Z" stroke="white" stroke-width="1.5" stroke-linecap="round" stroke-linejoin="round"/>
</svg>
