<svg width="48" height="48" viewBox="0 0 48 48" fill="none" xmlns="http://www.w3.org/2000/svg">
<circle cx="24" cy="24" r="24" fill="#F2C94C"/>
<rect x="16" y="18.1334" width="16" height="13.8667" rx="1.5" stroke="white" stroke-width="1.3" stroke-linecap="round" stroke-linejoin="round"/>
<path d="M16 22.4H32" stroke="white" stroke-width="1.3" stroke-linecap="round" stroke-linejoin="round"/>
<path d="M20.2667 19.7333V16" stroke="white" stroke-width="1.3" stroke-linecap="round" stroke-linejoin="round"/>
<path d="M27.7334 19.7333V16" stroke="white" stroke-width="1.3" stroke-linecap="round" stroke-linejoin="round"/>
<path d="M19.4666 25.0667C19.3194 25.0667 19.2 25.1861 19.2 25.3333C19.2 25.4806 19.3194 25.6 19.4666 25.6C19.6139 25.6 19.7333 25.4806 19.7333 25.3333C19.7333 25.1861 19.6139 25.0667 19.4666 25.0667" stroke="white" stroke-width="1.3" stroke-linecap="round" stroke-linejoin="round"/>
<path d="M19.4666 28.8C19.3194 28.8 19.2 28.9194 19.2 29.0667C19.2 29.214 19.3194 29.3333 19.4666 29.3333C19.6139 29.3333 19.7333 29.214 19.7333 29.0667C19.7333 28.9194 19.6139 28.8 19.4666 28.8" stroke="white" stroke-width="1.3" stroke-linecap="round" stroke-linejoin="round"/>
<path d="M24 25.0667C23.8527 25.0667 23.7334 25.1861 23.7334 25.3333C23.7334 25.4806 23.8527 25.6 24 25.6C24.1473 25.6 24.2667 25.4806 24.2667 25.3333C24.2667 25.1861 24.1473 25.0667 24 25.0667" stroke="white" stroke-width="1.3" stroke-linecap="round" stroke-linejoin="round"/>
<path d="M24 28.8C23.8527 28.8 23.7334 28.9194 23.7334 29.0667C23.7334 29.214 23.8527 29.3333 24 29.3333C24.1473 29.3333 24.2667 29.214 24.2667 29.0667C24.2667 28.9194 24.1473 28.8 24 28.8" stroke="white" stroke-width="1.3" stroke-linecap="round" stroke-linejoin="round"/>
<path d="M28.5334 25.0667C28.3861 25.0667 28.2667 25.1861 28.2667 25.3333C28.2667 25.4806 28.3861 25.6 28.5334 25.6C28.6806 25.6 28.8 25.4806 28.8 25.3333C28.8 25.1861 28.6806 25.0667 28.5334 25.0667" stroke="white" stroke-width="1.3" stroke-linecap="round" stroke-linejoin="round"/>
<path d="M28.5334 28.8C28.3861 28.8 28.2667 28.9194 28.2667 29.0667C28.2667 29.214 28.3861 29.3333 28.5334 29.3333C28.6806 29.3333 28.8 29.214 28.8 29.0667C28.8 28.9194 28.6806 28.8 28.5334 28.8" stroke="white" stroke-width="1.3" stroke-linecap="round" stroke-linejoin="round"/>
</svg>
